<svg width="48" height="49" viewBox="0 0 48 49" fill="none" xmlns="http://www.w3.org/2000/svg">
<rect y="0.703247" width="48" height="48" rx="8" fill="#2C764E" fill-opacity="0.05"/>
<path d="M28.1925 15.8032V19.0282H22.9425L22.7675 22.4532C23.0508 22.4366 23.3008 22.4282 23.5175 22.4282C25.5341 22.4282 27.0758 23.0366 28.1425 24.2532C29.0758 25.3032 29.5425 26.7199 29.5425 28.5032C29.5425 30.3366 28.8258 31.7366 27.3925 32.7032C26.2591 33.4699 24.8508 33.8532 23.1675 33.8532C22.0675 33.8532 20.9591 33.7366 19.8425 33.5032L18.7425 32.1282V30.6032C20.0425 30.8366 21.0925 30.9532 21.8925 30.9532C23.3091 30.9532 24.3008 30.7532 24.8675 30.3532C25.4341 29.9532 25.7175 29.2449 25.7175 28.2282C25.7175 27.1782 25.4591 26.4366 24.9425 26.0032C24.4258 25.5532 23.5591 25.3282 22.3425 25.3282C21.6925 25.3282 20.6925 25.4116 19.3425 25.5782C19.1591 25.6116 19.0091 25.6282 18.8925 25.6282L19.4425 15.8032H28.1925Z" fill="#2C764E"/>
</svg>
