<svg width="48" height="49" viewBox="0 0 48 49" fill="none" xmlns="http://www.w3.org/2000/svg">
<rect y="0.703247" width="48" height="48" rx="8" fill="#2C764E" fill-opacity="0.05"/>
<path d="M19.1634 17.1782C20.7467 16.1282 22.3634 15.6032 24.0134 15.6032C25.73 15.6032 27.0384 16.1282 27.9384 17.1782C28.705 18.0616 29.0884 19.2366 29.0884 20.7032C29.0884 21.6532 28.8634 22.5949 28.4134 23.5282C27.9634 24.4449 27.1384 25.6449 25.9384 27.1282C25.2384 28.0282 24.8467 28.5116 24.7634 28.5782L22.9384 30.4782H29.4634V31.7282L27.9134 33.7032H18.5134V30.4782L20.2884 28.7782L21.9134 27.0282C23.3967 25.4616 24.3967 24.2532 24.9134 23.4032C25.4467 22.5532 25.7134 21.7199 25.7134 20.9032C25.7134 19.6366 24.93 19.0032 23.3634 19.0032C22.6134 19.0032 21.83 19.2782 21.0134 19.8282L19.1634 17.1782Z" fill="#2C764E"/>
</svg>
