<svg width="48" height="49" viewBox="0 0 48 49" fill="none" xmlns="http://www.w3.org/2000/svg">
<rect y="0.703247" width="48" height="48" rx="8" fill="#2C764E" fill-opacity="0.05"/>
<path d="M19.6059 16.3032C21.0059 15.8199 22.1642 15.5782 23.0809 15.5782C24.8475 15.5782 26.2892 16.0532 27.4059 17.0032C28.4725 17.9199 29.0059 19.1116 29.0059 20.5782C29.0059 22.6116 27.9725 23.9532 25.9059 24.6032C27.1059 24.8699 28.0392 25.3699 28.7059 26.1032C29.3725 26.8366 29.7059 27.7282 29.7059 28.7782C29.7059 30.4782 28.9892 31.8116 27.5559 32.7782C26.4392 33.5449 25.1225 33.9366 23.6059 33.9532C23.5392 33.9532 23.4392 33.9532 23.3059 33.9532C22.2059 33.9532 21.0975 33.8366 19.9809 33.6032L18.8809 32.2282V30.7032C20.1809 30.9366 21.2309 31.0532 22.0309 31.0532C24.5809 31.0532 25.8475 30.2949 25.8309 28.7782C25.8309 27.9949 25.5142 27.3616 24.8809 26.8782C24.4475 26.5449 23.9392 26.3199 23.3559 26.2032C22.7892 26.0699 21.8975 25.9949 20.6809 25.9782V23.0532H23.5559C24.0892 23.0532 24.5059 22.8782 24.8059 22.5282C25.1225 22.1782 25.2809 21.7199 25.2809 21.1532C25.2809 19.6699 24.3559 18.9282 22.5059 18.9282C21.7559 18.9282 20.7892 19.1116 19.6059 19.4782V16.3032Z" fill="#2C764E"/>
</svg>
