<svg width="48" height="48" viewBox="0 0 48 48" fill="none" xmlns="http://www.w3.org/2000/svg">
<rect width="48" height="48" rx="8" fill="#2C764E" fill-opacity="0.05"/>
<path d="M32.3442 25.3779V35.5209H8.93848V20.2537H26.6718" stroke="#2C764E" stroke-width="1.87639" stroke-miterlimit="10"/>
<path d="M31.8633 24.9812L29.5027 27.3417H11.78L8.93848 24.5002V20.2537H26.6718M18.3591 16.6516H22.9237V20.2537H18.3591V16.6516ZM21.543 31.0515H19.7397L18.458 29.7697V27.3417H22.8247V29.7697L21.543 31.0515Z" stroke="#2C764E" stroke-width="1.87639" stroke-miterlimit="10"/>
<path d="M32.7775 25.0476C36.2482 25.0476 39.0617 22.234 39.0617 18.7633C39.0617 15.2926 36.2482 12.479 32.7775 12.479C29.3067 12.479 26.4932 15.2926 26.4932 18.7633C26.4932 22.234 29.3067 25.0476 32.7775 25.0476Z" stroke="#2C764E" stroke-width="1.87639" stroke-miterlimit="10"/>
<path d="M34.9151 16.6255L30.6396 20.901M30.6396 16.6255L34.9151 20.901" stroke="#2C764E" stroke-width="1.87639" stroke-miterlimit="10"/>
</svg>
