<svg width="80" height="80" viewBox="0 0 80 80" fill="none" xmlns="http://www.w3.org/2000/svg">
<circle cx="30" cy="30" r="30" transform="matrix(-1 0 0 1 74 6)" fill="#D31E28"/>
<path d="M51.1361 35.0121L40.7523 28.6736C40.5793 28.564 40.3796 28.504 40.1748 28.5002C39.9701 28.4964 39.7682 28.5489 39.5913 28.652C39.4118 28.7505 39.2621 28.8956 39.158 29.0719C39.054 29.2483 38.9994 29.4495 39 29.6543V42.3457C38.9994 42.5505 39.054 42.7517 39.158 42.9281C39.2621 43.1044 39.4118 43.2495 39.5913 43.348C39.7682 43.4511 39.9701 43.5036 40.1748 43.4998C40.3796 43.496 40.5793 43.436 40.7523 43.3264L51.1361 36.9879C51.3063 36.8852 51.4471 36.7403 51.5448 36.5672C51.6426 36.3942 51.6939 36.1988 51.6939 36C51.6939 35.8012 51.6426 35.6058 51.5448 35.4328C51.4471 35.2597 51.3063 35.1148 51.1361 35.0121Z" fill="white"/>
</svg>
