<svg width="56" height="56" viewBox="0 0 56 56" fill="none" xmlns="http://www.w3.org/2000/svg">
<rect width="56" height="56" rx="28" fill="#E9F5EE"/>
<path d="M43.9782 15.2292C44.1342 14.503 43.4223 13.8907 42.7278 14.1557L12.6031 25.6556C12.426 25.7232 12.2735 25.843 12.1659 25.999C12.0582 26.155 12.0004 26.3401 12 26.5296C11.9996 26.7192 12.0568 26.9045 12.1638 27.0609C12.2709 27.2174 12.4229 27.3377 12.5997 27.406L21.0623 30.6744V40.9688C21.0623 41.1798 21.1334 41.3846 21.2642 41.5501C21.395 41.7156 21.5778 41.8322 21.783 41.881C21.9882 41.9298 22.2039 41.9079 22.3952 41.819C22.5865 41.73 22.7422 41.5791 22.8371 41.3907L26.3371 34.4453L34.8785 40.7842C35.3981 41.1698 36.1449 40.9245 36.3339 40.3049C44.3088 14.1578 43.964 15.2949 43.9782 15.2292ZM36.542 18.5241L21.8669 28.9752L15.5528 26.5366L36.542 18.5241ZM22.9373 30.5147L35.7289 21.405C24.7219 33.0167 25.2968 32.4056 25.2488 32.4702C25.1775 32.5661 25.3729 32.1922 22.9373 37.0253V30.5147ZM34.9283 38.4862L27.4099 32.9066L41.0042 18.5653L34.9283 38.4862Z" fill="#219653"/>
</svg>
