<svg width="56" height="56" viewBox="0 0 56 56" fill="none" xmlns="http://www.w3.org/2000/svg">
<rect width="56" height="56" rx="28" fill="#E9F5EE"/>
<g clip-path="url(#clip0_1443_1153)">
<path fill-rule="evenodd" clip-rule="evenodd" d="M22.6065 22.6563C23.0461 22.9906 23.1315 23.618 22.7971 24.0576C21.962 25.1557 21.4668 26.5213 21.4668 28.0001C21.4668 31.5966 24.4029 34.5327 27.9994 34.5327C31.5959 34.5327 34.532 31.5966 34.532 28.0001C34.532 26.5213 34.0369 25.1557 33.2017 24.0575C32.8674 23.618 32.9527 22.9906 33.3923 22.6562C33.8319 22.3219 34.4593 22.4073 34.7936 22.8469C35.8829 24.2792 36.532 26.0668 36.532 28.0001C36.532 32.7012 32.7005 36.5327 27.9994 36.5327C23.2983 36.5327 19.4668 32.7012 19.4668 28.0001C19.4668 26.0668 20.1159 24.2791 21.2052 22.8468C21.5396 22.4072 22.1669 22.3219 22.6065 22.6563Z" fill="#219653"/>
<path fill-rule="evenodd" clip-rule="evenodd" d="M14.0975 28C17.1461 33.0121 22.2578 36.25 28 36.25C33.7422 36.25 38.8539 33.0121 41.9025 28C38.8539 22.9879 33.7422 19.75 28 19.75C22.2578 19.75 17.1461 22.9879 14.0975 28ZM12.0681 27.5059C15.379 21.68 21.252 17.75 28 17.75C34.748 17.75 40.621 21.68 43.9319 27.5059C44.106 27.8123 44.106 28.1877 43.9319 28.4941C40.621 34.32 34.748 38.25 28 38.25C21.252 38.25 15.379 34.32 12.0681 28.4941C11.894 28.1877 11.894 27.8123 12.0681 27.5059Z" fill="#219653"/>
<path fill-rule="evenodd" clip-rule="evenodd" d="M13.646 28.7421C13.6458 28.7422 13.6462 28.7419 13.646 28.7421L13.5887 28.7897C13.1641 29.1429 12.5336 29.0849 12.1804 28.6603C11.8273 28.2357 11.8852 27.6052 12.3098 27.2521L12.3691 27.2027C16.6709 23.6344 22.0981 21.5 27.9999 21.5C33.8723 21.5 39.2749 23.6132 43.5664 27.1496C43.9927 27.5008 44.0535 28.131 43.7022 28.5572C43.351 28.9835 42.7208 29.0443 42.2946 28.6931C38.3391 25.4337 33.3805 23.5 27.9999 23.5C22.5927 23.5 17.611 25.4534 13.646 28.7421Z" fill="#219653"/>
<circle cx="27.9395" cy="29.0215" r="2.5" fill="#219653"/>
</g>
<defs>
<clipPath id="clip0_1443_1153">
<rect width="32" height="32" fill="white" transform="translate(12 12)"/>
</clipPath>
</defs>
</svg>
