<svg width="56" height="56" viewBox="0 0 56 56" fill="none" xmlns="http://www.w3.org/2000/svg">
<rect width="56" height="56" rx="28" fill="#E9F5EE"/>
<path d="M42.76 21.35L36.76 14.35C36.5578 14.1451 36.288 14.0207 36.001 14H21.001C20.7408 14.0227 20.4939 14.125 20.294 14.293L13.294 21.293L13.29 21.299C13.1255 21.4698 13.0259 21.6928 13.0086 21.9293C12.9912 22.1659 13.0572 22.401 13.195 22.594L27.195 41.594C27.2882 41.7197 27.4095 41.8219 27.5493 41.8923C27.6891 41.9627 27.8434 41.9994 28 41.9994C28.1565 41.9994 28.3108 41.9627 28.4506 41.8923C28.5904 41.8219 28.7118 41.7197 28.805 41.594L42.805 22.594C42.9377 22.4113 43.0054 22.1894 42.9973 21.9637C42.9891 21.7381 42.9056 21.5216 42.76 21.349V21.35ZM20.485 16.93L21.581 21H16.415L20.485 16.93ZM32.493 23L28.065 37.392L24.191 23H32.493ZM24.855 21L28.054 16.623L31.709 21H24.855ZM30.139 16H34.647L33.433 19.944L30.139 16ZM23.309 19.726L22.306 16H26.032L23.309 19.726ZM22.119 23L25.654 36.129L15.98 23H22.119ZM34.586 23H40.022L30.688 35.668L34.586 23ZM35.201 21L36.423 17.029L39.827 21H35.201Z" fill="#219653"/>
</svg>
