<svg width="390" height="389" viewBox="0 0 390 389" fill="none" xmlns="http://www.w3.org/2000/svg">
<path d="M155.102 347.32C155.102 350.371 156.29 353.238 158.449 355.397L189.548 386.497C192.009 388.957 196.013 388.957 198.474 386.497L213.937 371.033C215.131 369.84 215.789 368.259 215.789 366.567C215.789 364.876 215.131 363.295 213.937 362.102L210.936 359.1C209.742 357.907 208.162 357.248 206.47 357.248C204.778 357.248 203.198 357.907 202.004 359.1L198.031 363.073C196.954 364.15 195.527 364.74 194.002 364.74C192.476 364.74 191.049 364.15 189.973 363.073L178.249 351.349C177.172 350.273 176.582 348.846 176.582 347.32C176.582 345.795 177.172 344.368 178.249 343.292L190.397 331.143C191.474 330.067 192.901 329.476 194.426 329.476C195.952 329.476 197.379 330.067 198.455 331.143L208.057 340.745L226.11 358.854L238.037 346.927L219.762 328.597L205.301 314.142C199.304 308.144 189.542 308.144 183.539 314.142L158.442 339.238C156.283 341.397 155.096 344.263 155.096 347.314L155.102 347.32ZM215.174 366.567C215.174 368.087 214.583 369.52 213.507 370.596L198.043 386.06C195.823 388.281 192.206 388.281 189.985 386.06L158.885 354.96C154.672 350.747 154.672 343.894 158.885 339.681L183.982 314.584C189.739 308.827 199.113 308.827 204.871 314.584L219.775 329.482L237.176 346.933L226.117 357.993L208.5 340.321L198.898 330.719C197.705 329.525 196.124 328.867 194.432 328.867C192.741 328.867 191.16 329.525 189.967 330.719L177.818 342.867C176.625 344.06 175.967 345.641 175.967 347.327C175.967 349.012 176.625 350.599 177.818 351.786L189.542 363.51C190.736 364.703 192.316 365.362 194.008 365.362C195.693 365.362 197.28 364.703 198.474 363.516L202.447 359.543C203.524 358.466 204.951 357.876 206.476 357.876C208.002 357.876 209.429 358.466 210.505 359.543L213.507 362.544C214.583 363.621 215.174 365.048 215.174 366.573V366.567Z" fill="url(#paint0_linear_1233_2687)"/>
<path d="M152.138 41.4212L170.406 59.7392L184.88 74.2003C190.877 80.1976 200.639 80.1976 206.642 74.2003L231.739 49.1039C236.192 44.6505 236.192 37.4045 231.739 32.9512L200.639 1.85135C199.445 0.658051 197.865 -0.00012207 196.173 -0.00012207C194.482 -0.00012207 192.901 0.658051 191.707 1.85135L176.244 17.3152C175.05 18.5085 174.392 20.0893 174.392 21.7809C174.392 23.4724 175.05 25.0533 176.244 26.2466L179.245 29.2483C180.439 30.4416 182.019 31.0997 183.711 31.0997C185.403 31.0997 186.983 30.4416 188.177 29.2483L192.15 25.2746C193.227 24.1982 194.654 23.6077 196.179 23.6077C197.705 23.6077 199.132 24.1982 200.208 25.2746L211.932 36.9986C214.153 39.2192 214.153 42.836 211.932 45.0565L199.784 57.2049C197.563 59.4254 193.946 59.4254 191.726 57.2049L182.124 47.6031L164.071 29.4943L152.144 41.4212H152.138ZM170.412 58.878L153.005 41.4212L164.064 30.3616L181.681 48.0336L191.283 57.6355C193.743 60.0959 197.748 60.0959 200.208 57.6355L212.357 45.4871C214.817 43.0266 214.817 39.0223 212.357 36.5619L200.633 24.838C199.439 23.6446 197.859 22.9865 196.167 22.9865C194.475 22.9865 192.895 23.6446 191.701 24.838L187.728 28.8115C186.651 29.8879 185.224 30.4785 183.699 30.4785C182.173 30.4785 180.746 29.8879 179.67 28.8115L176.668 25.8098C175.592 24.7333 175.001 23.3063 175.001 21.7809C175.001 20.2554 175.592 18.8283 176.668 17.7519L192.132 2.28806C193.208 1.21164 194.635 0.621155 196.161 0.621155C197.686 0.621155 199.113 1.21164 200.19 2.28806L231.29 33.3879C235.503 37.6014 235.503 44.4537 231.29 48.6672L206.193 73.7636C200.436 79.521 191.062 79.521 185.304 73.7636L170.412 58.8718V58.878Z" fill="url(#paint1_linear_1233_2687)"/>
<path d="M310.546 192.652C310.546 196.594 312.047 200.531 315.049 203.533L340.145 228.629C344.599 233.083 351.845 233.083 356.298 228.629L387.392 197.529C388.585 196.336 389.243 194.755 389.243 193.064C389.243 191.372 388.585 189.791 387.392 188.598L371.928 173.134C370.735 171.941 369.154 171.283 367.462 171.283C365.771 171.283 364.19 171.941 362.997 173.134L359.995 176.136C358.801 177.329 358.143 178.91 358.143 180.602C358.143 182.293 358.801 183.874 359.995 185.067L363.968 189.041C365.045 190.117 365.635 191.544 365.635 193.07C365.635 194.595 365.045 196.022 363.968 197.099L352.244 208.823C350.024 211.043 346.407 211.043 344.187 208.823L332.038 196.674C330.962 195.598 330.371 194.171 330.371 192.646C330.371 191.12 330.962 189.693 332.038 188.617L341.64 179.015L359.749 160.961L347.822 149.034L329.504 167.303L315.043 181.77C312.047 184.772 310.546 188.709 310.546 192.652ZM388.628 193.07C388.628 194.589 388.038 196.022 386.961 197.099L355.861 228.199C351.648 232.412 344.795 232.412 340.582 228.199L315.486 203.102C309.728 197.345 309.728 187.971 315.486 182.213L330.377 167.322L347.834 149.914L358.894 160.974L341.222 178.59L331.62 188.192C330.427 189.385 329.768 190.966 329.768 192.658C329.768 194.349 330.427 195.93 331.62 197.123L343.768 209.272C346.229 211.732 350.233 211.732 352.693 209.272L364.417 197.548C365.611 196.355 366.269 194.774 366.269 193.082C366.269 191.391 365.611 189.81 364.417 188.617L360.444 184.643C359.367 183.567 358.777 182.139 358.777 180.614C358.777 179.089 359.367 177.661 360.444 176.585L363.446 173.583C364.522 172.507 365.949 171.916 367.474 171.916C369 171.916 370.427 172.507 371.503 173.583L386.967 189.047C388.044 190.124 388.634 191.551 388.634 193.076L388.628 193.07Z" fill="url(#paint2_linear_1233_2687)"/>
<path d="M0.919434 195.254C0.919434 196.939 1.57761 198.526 2.7709 199.719L18.2347 215.183C19.428 216.376 21.0089 217.035 22.7004 217.035C24.3919 217.035 25.9728 216.376 27.1661 215.183L30.1678 212.181C31.3611 210.988 32.0193 209.407 32.0193 207.716C32.0193 206.024 31.3611 204.443 30.1678 203.25L26.1942 199.276C25.1178 198.2 24.5273 196.773 24.5273 195.247C24.5273 193.722 25.1178 192.295 26.1942 191.218L37.9182 179.494C38.9946 178.418 40.4217 177.828 41.9471 177.828C43.4726 177.828 44.8997 178.418 45.9761 179.494L58.1245 191.643C59.2009 192.719 59.7914 194.146 59.7914 195.672C59.7914 197.197 59.2009 198.624 58.1245 199.701L48.5226 209.303L30.4139 227.356L42.3408 239.283L60.6587 221.014L75.1199 206.547C81.1172 200.55 81.1172 190.788 75.1199 184.784L50.0235 159.688C47.8645 157.529 44.9981 156.342 41.9471 156.342C38.8962 156.342 36.0298 157.529 33.8708 159.688L2.7709 190.788C1.57761 191.981 0.919434 193.562 0.919434 195.254ZM31.3919 207.716C31.3919 209.235 30.8014 210.668 29.7249 211.745L26.7232 214.746C25.6468 215.823 24.2197 216.413 22.6943 216.413C21.1688 216.413 19.7417 215.823 18.6653 214.746L3.20151 199.283C2.12506 198.206 1.53455 196.779 1.53455 195.254C1.53455 193.728 2.12506 192.301 3.20151 191.225L34.3014 160.125C36.3435 158.083 39.0561 156.957 41.941 156.957C44.8258 156.957 47.5385 158.083 49.5806 160.125L74.677 185.221C80.4344 190.979 80.4344 200.353 74.677 206.11L59.7853 221.002L42.3285 238.41L31.2689 227.35L48.9409 209.733L58.5427 200.131C59.7361 198.938 60.3942 197.357 60.3942 195.666C60.3942 193.974 59.7361 192.393 58.5427 191.2L46.3943 179.052C43.9339 176.591 39.9296 176.591 37.4691 179.052L25.7452 190.776C24.5519 191.969 23.8937 193.55 23.8937 195.241C23.8937 196.933 24.5519 198.514 25.7452 199.707L29.7188 203.681C30.7952 204.757 31.3857 206.184 31.3857 207.709L31.3919 207.716Z" fill="url(#paint3_linear_1233_2687)"/>
<path d="M205.455 192.799L288.015 275.353C294.012 281.35 303.774 281.35 309.777 275.353L334.874 250.256C337.033 248.097 338.22 245.231 338.22 242.18C338.22 239.129 337.033 236.263 334.874 234.104L303.774 203.004C302.581 201.811 301 201.152 299.308 201.152C297.617 201.152 296.036 201.811 294.843 203.004L279.379 218.468C278.185 219.661 277.527 221.242 277.527 222.933C277.527 224.625 278.185 226.206 279.379 227.399L282.38 230.401C283.574 231.594 285.155 232.252 286.846 232.252C288.538 232.252 290.119 231.594 291.312 230.401L295.285 226.427C297.506 224.207 301.123 224.207 303.343 226.427L315.067 238.151C316.144 239.228 316.734 240.655 316.734 242.18C316.734 243.706 316.144 245.133 315.067 246.209L302.919 258.357C301.842 259.434 300.415 260.024 298.89 260.024C297.365 260.024 295.937 259.434 294.861 258.357L253.618 217.096V217.108L229.309 192.805L253.243 168.878L253.618 168.521L255.912 166.227V166.22L294.498 127.629C296.719 125.408 300.335 125.408 302.556 127.629L314.704 139.777C315.781 140.853 316.371 142.28 316.371 143.806C316.371 145.331 315.781 146.758 314.704 147.835L302.98 159.559C301.904 160.635 300.477 161.226 298.951 161.226C297.426 161.226 295.999 160.635 294.923 159.559L290.949 155.585C289.756 154.392 288.175 153.734 286.483 153.734C284.792 153.734 283.211 154.392 282.018 155.585L279.016 158.587C276.555 161.047 276.555 165.052 279.016 167.512L294.48 182.976C295.673 184.169 297.254 184.827 298.945 184.827C300.637 184.827 302.218 184.169 303.411 182.976L334.511 151.876C336.67 149.717 337.857 146.851 337.857 143.8C337.857 140.749 336.67 137.882 334.511 135.723L309.414 110.627C303.417 104.63 293.655 104.63 287.652 110.627L273.185 125.088L272.969 125.297L205.461 192.805L205.455 192.799ZM273.548 260.018L206.329 192.799L288.089 111.058C293.846 105.3 303.22 105.3 308.978 111.058L334.074 136.154C338.288 140.367 338.288 147.22 334.074 151.433L302.974 182.533C301.898 183.61 300.471 184.2 298.945 184.2C297.42 184.2 295.993 183.61 294.916 182.533L279.453 167.069C277.232 164.849 277.232 161.232 279.453 159.011L282.454 156.01C283.531 154.933 284.958 154.343 286.483 154.343C288.009 154.343 289.436 154.933 290.512 156.01L294.486 159.983C295.679 161.177 297.26 161.835 298.951 161.835C300.643 161.835 302.224 161.177 303.417 159.983L315.141 148.259C316.334 147.066 316.993 145.485 316.993 143.794C316.993 142.102 316.334 140.521 315.141 139.328L302.993 127.18C300.532 124.719 296.528 124.719 294.068 127.18L255.039 166.208V166.214L228.448 192.793L253.919 218.265V218.252L294.437 258.782C295.63 259.975 297.211 260.633 298.902 260.633C300.594 260.633 302.175 259.975 303.368 258.782L315.516 246.633C316.71 245.44 317.368 243.859 317.368 242.168C317.368 240.476 316.71 238.895 315.516 237.702L303.792 225.978C301.332 223.518 297.328 223.518 294.867 225.978L290.894 229.952C289.817 231.028 288.39 231.619 286.865 231.619C285.339 231.619 283.912 231.028 282.836 229.952L279.834 226.95C278.757 225.874 278.167 224.447 278.167 222.921C278.167 221.396 278.757 219.969 279.834 218.892L295.298 203.428C296.374 202.352 297.801 201.761 299.327 201.761C300.852 201.761 302.279 202.352 303.356 203.428L334.456 234.528C338.669 238.742 338.669 245.594 334.456 249.807L309.359 274.904C303.602 280.661 294.227 280.661 288.47 274.904L273.566 260.006L273.548 260.018Z" fill="url(#paint4_linear_1233_2687)"/>
<path d="M107.229 297.792C107.229 301.735 108.729 305.672 111.731 308.673L136.828 333.77C141.281 338.223 148.527 338.223 152.98 333.77L184.08 302.67C186.541 300.209 186.541 296.205 184.08 293.745L168.616 278.281C166.156 275.82 162.152 275.82 159.691 278.281L156.689 281.283C154.229 283.743 154.229 287.747 156.689 290.208L160.663 294.181C161.739 295.258 162.33 296.685 162.33 298.21C162.33 299.736 161.739 301.163 160.663 302.239L148.939 313.963C147.863 315.04 146.436 315.63 144.91 315.63C143.385 315.63 141.958 315.04 140.881 313.963L128.733 301.815C127.656 300.738 127.066 299.311 127.066 297.786C127.066 296.26 127.656 294.833 128.733 293.757L169.994 252.514H169.982L194.285 228.205L218.219 252.139L218.569 252.508L220.864 254.802V254.796L259.462 293.388C261.682 295.608 261.682 299.225 259.462 301.446L247.313 313.594C245.093 315.815 241.476 315.815 239.255 313.594L227.531 301.87C226.455 300.794 225.864 299.367 225.864 297.841C225.864 296.316 226.455 294.889 227.531 293.812L231.505 289.839C232.698 288.645 233.356 287.065 233.356 285.373C233.356 283.681 232.698 282.101 231.505 280.907L228.503 277.906C226.043 275.445 222.038 275.445 219.578 277.906L204.114 293.369C201.654 295.83 201.654 299.834 204.114 302.295L235.214 333.394C237.373 335.554 240.239 336.741 243.29 336.741C246.341 336.741 249.208 335.554 251.367 333.394L276.463 308.298C282.46 302.301 282.46 292.539 276.463 286.536L194.285 204.345L111.737 286.905C108.742 289.906 107.241 293.843 107.241 297.786L107.229 297.792ZM185.31 298.21C185.31 299.668 184.757 301.126 183.643 302.239L152.544 333.339C148.33 337.553 141.478 337.553 137.264 333.339L112.168 308.243C106.41 302.485 106.41 293.111 112.168 287.354L194.285 205.231L276.026 286.991C281.784 292.748 281.784 302.122 276.026 307.88L250.93 332.976C248.888 335.018 246.175 336.144 243.29 336.144C240.406 336.144 237.693 335.018 235.651 332.976L204.551 301.876C202.33 299.656 202.33 296.039 204.551 293.818L220.015 278.355C222.235 276.134 225.852 276.134 228.073 278.355L231.074 281.356C232.151 282.433 232.741 283.86 232.741 285.385C232.741 286.911 232.151 288.338 231.074 289.414L227.101 293.388C225.907 294.581 225.249 296.162 225.249 297.854C225.249 299.545 225.907 301.126 227.101 302.319L238.825 314.043C241.285 316.504 245.289 316.504 247.75 314.043L259.898 301.895C262.359 299.434 262.359 295.43 259.898 292.97L220.87 253.941V253.947L194.279 227.35L168.807 252.822H168.819L128.29 293.339C127.097 294.532 126.438 296.113 126.438 297.804C126.438 299.496 127.097 301.077 128.29 302.27L140.438 314.418C141.632 315.612 143.212 316.27 144.904 316.27C146.595 316.27 148.176 315.612 149.37 314.418L161.094 302.694C162.287 301.501 162.945 299.92 162.945 298.229C162.945 296.537 162.287 294.956 161.094 293.763L157.12 289.789C154.899 287.569 154.899 283.952 157.12 281.732L160.122 278.73C162.342 276.509 165.959 276.509 168.18 278.73L183.643 294.194C184.757 295.307 185.31 296.765 185.31 298.223V298.21Z" fill="url(#paint5_linear_1233_2687)"/>
<path d="M51.8565 146.063C51.8565 148.985 52.9698 151.913 55.1965 154.14L86.2964 185.24C88.7568 187.7 92.7612 187.7 95.2216 185.24L110.685 169.776C111.879 168.582 112.537 167.002 112.537 165.31C112.537 163.619 111.879 162.038 110.685 160.844L107.684 157.843C106.49 156.649 104.91 155.991 103.218 155.991C101.526 155.991 99.9456 156.649 98.7523 157.843L94.7787 161.816C92.5582 164.037 88.9414 164.037 86.7208 161.816L74.9969 150.092C73.9204 149.016 73.3299 147.589 73.3299 146.063C73.3299 144.538 73.9204 143.111 74.9969 142.034L87.1453 129.886C88.2217 128.81 89.6487 128.219 91.1742 128.219C92.6997 128.219 94.1267 128.81 95.2032 129.886L136.446 171.147V171.135L160.755 195.438L136.821 219.366L136.446 219.723L134.152 222.017V222.023L95.5661 260.615C93.3456 262.835 89.7287 262.835 87.5081 260.615L75.3598 248.467C73.1393 246.246 73.1393 242.629 75.3598 240.409L87.0837 228.685C88.1602 227.608 89.5872 227.018 91.1127 227.018C92.6382 227.018 94.0652 227.608 95.1417 228.685L99.1152 232.658C101.576 235.119 105.58 235.119 108.04 232.658L111.042 229.656C112.236 228.463 112.894 226.882 112.894 225.191C112.894 223.499 112.236 221.918 111.042 220.725L95.5784 205.261C94.3851 204.068 92.8043 203.41 91.1127 203.41C89.4211 203.41 87.8403 204.068 86.647 205.261L55.5471 236.361C53.3881 238.52 52.201 241.387 52.201 244.438C52.201 247.488 53.3881 250.355 55.5471 252.514L80.6436 277.61C86.6409 283.608 96.4026 283.608 102.406 277.61L184.597 195.432L102.037 112.878C96.0397 106.881 86.278 106.881 80.2745 112.878L55.1781 137.975C52.9514 140.201 51.838 143.123 51.838 146.051L51.8565 146.063ZM111.922 165.31C111.922 166.829 111.331 168.263 110.255 169.339L94.791 184.803C92.5705 187.023 88.9537 187.023 86.7331 184.803L55.6333 153.703C53.5911 151.661 52.4655 148.948 52.4655 146.063C52.4655 143.179 53.5911 140.466 55.6333 138.424L80.7297 113.327C86.4871 107.57 95.8613 107.57 101.619 113.327L183.748 195.444L101.988 277.186C96.2304 282.943 86.8562 282.943 81.0988 277.186L56.0023 252.089C51.7888 247.876 51.7888 241.024 56.0023 236.81L87.1022 205.71C88.1786 204.634 89.6057 204.043 91.1312 204.043C92.6566 204.043 94.0837 204.634 95.1601 205.71L110.624 221.174C111.7 222.251 112.291 223.678 112.291 225.203C112.291 226.729 111.7 228.156 110.624 229.232L107.622 232.234C105.402 234.454 101.785 234.454 99.5643 232.234L95.5907 228.26C94.3974 227.067 92.8166 226.409 91.125 226.409C89.4334 226.409 87.8526 227.067 86.6593 228.26L74.9354 239.984C72.4749 242.445 72.4749 246.449 74.9354 248.909L87.0837 261.058C89.5442 263.518 93.5485 263.518 96.0089 261.058L135.031 222.035V222.029L161.623 195.444L136.151 169.973V169.985L95.6338 129.455C94.4404 128.262 92.8596 127.604 91.1681 127.604C89.4765 127.604 87.8957 128.262 86.7024 129.455L74.554 141.604C73.3607 142.797 72.7025 144.378 72.7025 146.07C72.7025 147.761 73.3607 149.342 74.554 150.535L86.278 162.259C88.7384 164.72 92.7427 164.72 95.2032 162.259L99.1768 158.286C100.253 157.209 101.68 156.619 103.206 156.619C104.731 156.619 106.158 157.209 107.235 158.286L110.236 161.287C111.313 162.364 111.903 163.791 111.903 165.316L111.922 165.31Z" fill="url(#paint6_linear_1233_2687)"/>
<path d="M109.129 90.8144C109.129 94.7511 110.63 98.6939 113.626 101.696L195.804 183.886L278.352 101.327C284.349 95.3293 284.349 85.5675 278.352 79.5641L253.255 54.4677C248.802 50.0143 241.556 50.0143 237.102 54.4677L206.003 85.5675C204.809 86.7608 204.151 88.3416 204.151 90.0332C204.151 91.7247 204.809 93.3056 206.003 94.4989L221.466 109.963C222.66 111.156 224.24 111.814 225.932 111.814C227.624 111.814 229.204 111.156 230.398 109.963L233.399 106.961C234.593 105.768 235.251 104.187 235.251 102.495C235.251 100.804 234.593 99.2229 233.399 98.0296L229.426 94.056C227.205 91.8355 227.205 88.2186 229.426 85.9981L241.15 74.2741C242.226 73.1977 243.653 72.6072 245.179 72.6072C246.704 72.6072 248.131 73.1977 249.208 74.2741L261.356 86.4225C262.433 87.499 263.023 88.926 263.023 90.4515C263.023 91.9769 262.433 93.404 261.356 94.4804L220.095 135.723H220.107L195.804 160.032L171.87 136.099L171.513 135.73L169.219 133.435V133.441L130.621 94.8495C129.545 93.773 128.954 92.346 128.954 90.8205C128.954 89.2951 129.545 87.868 130.621 86.7916L142.769 74.6432C143.846 73.5668 145.273 72.9763 146.798 72.9763C148.324 72.9763 149.751 73.5668 150.827 74.6432L162.551 86.3672C164.772 88.5877 164.772 92.2045 162.551 94.4251L158.578 98.3987C157.384 99.592 156.726 101.173 156.726 102.864C156.726 104.556 157.384 106.137 158.578 107.33L161.579 110.332C162.773 111.525 164.354 112.183 166.045 112.183C167.737 112.183 169.318 111.525 170.511 110.332L185.975 94.868C187.168 93.6747 187.826 92.0938 187.826 90.4023C187.826 88.7107 187.168 87.1299 185.975 85.9366L154.875 54.8367C152.716 52.6777 149.849 51.4905 146.798 51.4905C143.747 51.4905 140.881 52.6777 138.722 54.8367L113.626 79.9331C110.624 82.9348 109.123 86.8715 109.123 90.8144H109.129ZM128.954 116.163L128.739 115.942L114.062 101.259C108.305 95.5015 108.305 86.1273 114.062 80.3698L139.159 55.2735C141.201 53.2313 143.914 52.1057 146.798 52.1057C149.683 52.1057 152.396 53.2313 154.438 55.2735L185.538 86.3733C186.614 87.4497 187.205 88.8768 187.205 90.4023C187.205 91.9277 186.614 93.3548 185.538 94.4312L170.074 109.895C168.998 110.971 167.571 111.562 166.045 111.562C164.52 111.562 163.093 110.971 162.016 109.895L159.014 106.893C156.794 104.673 156.794 101.056 159.014 98.8354L162.988 94.8618C165.448 92.4014 165.448 88.397 162.988 85.9366L151.264 74.2126C150.071 73.0193 148.49 72.3611 146.798 72.3611C145.107 72.3611 143.526 73.0193 142.333 74.2126L130.184 86.361C128.991 87.5543 128.333 89.1351 128.333 90.8267C128.333 92.5182 128.991 94.0991 130.184 95.2924L169.213 134.321V134.315L195.798 160.912L221.27 135.44H221.257L222.746 133.946L222.973 133.737L261.781 94.9294C262.974 93.7361 263.632 92.1553 263.632 90.4638C263.632 88.7722 262.974 87.1914 261.781 85.9981L249.632 73.8497C248.439 72.6564 246.858 71.9983 245.166 71.9983C243.475 71.9983 241.894 72.6564 240.701 73.8497L228.977 85.5737C226.516 88.0341 226.516 92.0385 228.977 94.4989L232.95 98.4725C234.027 99.5489 234.617 100.976 234.617 102.501C234.617 104.027 234.027 105.454 232.95 106.53L229.949 109.532C228.872 110.609 227.445 111.199 225.92 111.199C224.394 111.199 222.967 110.609 221.891 109.532L206.427 94.0683C205.351 92.9919 204.76 91.5648 204.76 90.0393C204.76 88.5139 205.351 87.0868 206.427 86.0104L237.527 54.9105C241.74 50.6971 248.593 50.6971 252.806 54.9105L277.902 80.007C283.66 85.7643 283.66 95.1386 277.902 100.896L195.786 183.019L128.936 116.169L128.954 116.163Z" fill="url(#paint7_linear_1233_2687)"/>
<defs>
<linearGradient id="paint0_linear_1233_2687" x1="379.515" y1="194.171" x2="0.919424" y2="194.171" gradientUnits="userSpaceOnUse">
<stop stop-color="white"/>
<stop offset="1" stop-color="white" stop-opacity="0"/>
</linearGradient>
<linearGradient id="paint1_linear_1233_2687" x1="379.515" y1="194.171" x2="0.919424" y2="194.171" gradientUnits="userSpaceOnUse">
<stop stop-color="white"/>
<stop offset="1" stop-color="white" stop-opacity="0"/>
</linearGradient>
<linearGradient id="paint2_linear_1233_2687" x1="379.515" y1="194.171" x2="0.919424" y2="194.171" gradientUnits="userSpaceOnUse">
<stop stop-color="white"/>
<stop offset="1" stop-color="white" stop-opacity="0"/>
</linearGradient>
<linearGradient id="paint3_linear_1233_2687" x1="379.515" y1="194.171" x2="0.919424" y2="194.171" gradientUnits="userSpaceOnUse">
<stop stop-color="white"/>
<stop offset="1" stop-color="white" stop-opacity="0"/>
</linearGradient>
<linearGradient id="paint4_linear_1233_2687" x1="379.515" y1="194.171" x2="0.919424" y2="194.171" gradientUnits="userSpaceOnUse">
<stop stop-color="white"/>
<stop offset="1" stop-color="white" stop-opacity="0"/>
</linearGradient>
<linearGradient id="paint5_linear_1233_2687" x1="379.515" y1="194.171" x2="0.919424" y2="194.171" gradientUnits="userSpaceOnUse">
<stop stop-color="white"/>
<stop offset="1" stop-color="white" stop-opacity="0"/>
</linearGradient>
<linearGradient id="paint6_linear_1233_2687" x1="379.515" y1="194.171" x2="0.919424" y2="194.171" gradientUnits="userSpaceOnUse">
<stop stop-color="white"/>
<stop offset="1" stop-color="white" stop-opacity="0"/>
</linearGradient>
<linearGradient id="paint7_linear_1233_2687" x1="379.515" y1="194.171" x2="0.919424" y2="194.171" gradientUnits="userSpaceOnUse">
<stop stop-color="white"/>
<stop offset="1" stop-color="white" stop-opacity="0"/>
</linearGradient>
</defs>
</svg>
