<svg width="1430" height="379" viewBox="0 0 1430 379" fill="none" xmlns="http://www.w3.org/2000/svg">
<g style="mix-blend-mode:overlay">
<path d="M749.834 318.77C854.05 314.092 926.427 329.533 980.967 344.252C1035.51 358.971 1101.66 375.176 1205.03 372.375C1321.86 369.209 1427.47 340.349 1429.94 316.762C1432.42 293.175 1355.8 275.943 1260.41 267.343C1199.95 261.893 1131.7 259.242 1069.11 254.522C1006.52 249.802 947.753 242.578 920.003 230.282C892.253 217.987 903.369 199.695 961.663 187.211C1053.6 167.52 1209.09 170.763 1295.32 150.069C1336.08 140.29 1348.79 127.489 1341.56 116.89C1334.33 106.292 1309.93 97.4162 1285.85 88.732C1250.71 76.0612 1214.27 63.1004 1154.93 55.272C1095.6 47.4435 1007.33 45.795 931.211 55.6369C861.38 64.6668 818.668 80.6399 776.144 95.1496C733.621 109.659 677.22 125.288 602.735 130.171C512.483 136.085 440.522 122.59 422.426 105.962C404.331 89.3345 423.591 70.1204 426.946 51.9733C430.301 33.8261 412.232 14.8268 340.842 7.68459C252.657 -1.13228 112.186 13.6062 45.6774 35.0677C-20.8312 56.5292 -22.8647 81.5182 13.855 100.498C50.5747 119.478 120.805 133.541 191.682 146.839C262.56 160.137 336.231 173.276 381.818 191.065C429.395 209.633 441.412 233.829 384.552 257.835C332.774 279.687 230.91 298.767 234.157 322.41C236.854 341.935 316.927 352.243 409.541 351.731C535.999 351.033 627.648 324.264 749.834 318.77Z" stroke="white" stroke-opacity="0.32" stroke-width="0.197" stroke-miterlimit="10"/>
<path d="M735.745 316.462C839.367 313.032 909.333 328.962 961.738 343.987C1014.14 359.012 1077.87 375.624 1180.44 374.022C1296.41 372.215 1403.96 345.106 1408.94 322.024C1413.92 298.942 1339.93 281.209 1246.47 271.732C1187.22 265.723 1119.98 262.368 1058.54 257.051C997.109 251.733 939.721 244.003 913.589 231.65C887.457 219.297 900.396 201.495 959.407 189.914C1052.48 171.64 1206 176.539 1293.53 157.221C1334.89 148.088 1348.85 135.689 1342.82 125.226C1336.8 114.762 1313.6 105.793 1290.7 97.0183C1257.26 84.2147 1222.6 71.1125 1164.73 62.7916C1106.85 54.4707 1019.69 51.8722 943.318 60.6716C873.255 68.7446 829.287 83.9213 785.663 97.6661C742.04 111.411 684.555 126.094 610.322 130.052C520.389 134.848 450.623 120.829 434.491 104.337C418.358 87.8452 439.474 69.237 444.738 51.488C450.003 33.739 434.145 14.9231 364.271 7.13298C277.974 -2.48368 137.389 10.402 69.2839 30.6935C1.17883 50.9851 -3.49743 75.452 30.7843 94.4495C65.0661 113.447 133.085 128.009 201.8 141.822C270.514 155.635 342.033 169.327 385.22 187.262C430.316 205.981 439.62 229.821 380.797 252.713C327.255 273.55 224.383 291.117 225.089 314.318C225.655 333.478 303.803 344.465 395.527 344.989C520.713 345.703 614.254 320.482 735.745 316.462Z" stroke="white" stroke-opacity="0.32" stroke-width="0.194" stroke-miterlimit="10"/>
<path d="M722.051 314.042C824.95 311.831 892.489 328.213 942.725 343.515C992.961 358.818 1054.26 375.8 1155.92 375.369C1270.84 374.883 1380.18 349.514 1387.57 326.954C1394.96 304.394 1323.64 286.196 1232.17 275.876C1174.18 269.332 1108 265.3 1047.78 259.41C987.562 253.52 931.604 245.309 907.063 232.916C882.522 220.523 897.225 203.229 956.856 192.527C1050.9 175.652 1202.27 182.154 1290.95 164.194C1332.86 155.705 1347.99 143.71 1343.15 133.391C1338.3 123.073 1316.3 114.029 1294.58 105.177C1262.88 92.2546 1229.97 79.0388 1173.59 70.2394C1117.21 61.44 1031.23 57.9335 954.731 65.7096C884.539 72.8431 839.416 87.227 794.779 100.21C750.141 113.194 691.728 126.937 617.836 130C528.334 133.702 460.796 119.192 446.6 102.856C432.404 86.5198 455.272 68.5141 462.365 51.1877C469.458 33.8613 455.79 15.2462 387.475 6.84493C303.092 -3.53309 162.626 7.54345 93.0701 26.6615C23.5142 45.7796 16.2759 69.7086 48.1737 88.7026C80.0715 107.697 145.798 122.718 212.334 137.013C278.869 151.308 348.145 165.515 388.98 183.567C431.589 202.409 438.266 225.87 377.621 247.654C322.412 267.478 218.768 283.55 216.972 306.288C215.489 325.07 291.641 336.7 382.319 338.231C506.156 340.311 601.407 316.637 722.051 314.042Z" stroke="white" stroke-opacity="0.32" stroke-width="0.191" stroke-miterlimit="10"/>
<path d="M708.763 311.516C810.815 310.49 875.889 327.289 923.968 342.839C972.046 358.39 1030.89 375.705 1131.53 376.411C1245.29 377.207 1356.19 353.561 1365.91 331.532C1375.64 309.503 1307.01 290.893 1217.59 279.764C1160.91 272.711 1095.86 268.028 1036.9 261.589C977.952 255.151 923.45 246.487 900.489 234.071C877.529 221.656 893.925 204.872 954.07 195.05C1048.93 179.558 1198.03 187.605 1287.68 170.991C1330.06 163.133 1346.31 151.552 1342.62 141.389C1338.93 131.225 1318.12 122.12 1297.57 113.208C1267.58 100.201 1236.42 86.8809 1181.58 77.6345C1126.73 68.388 1042.03 63.9996 965.504 70.7716C895.29 76.9848 849.104 90.576 803.55 102.805C757.996 115.034 698.698 127.855 625.275 130.031C536.318 132.668 471.018 117.702 458.737 101.539C446.455 85.3756 470.985 67.9881 479.847 51.0895C488.709 34.1909 477.177 15.7993 410.48 6.81308C328.093 -4.28965 187.918 4.9987 117.068 22.9677C46.2172 40.9368 36.487 64.2948 66.0224 83.2574C95.5578 102.22 159.008 117.667 223.306 132.411C287.603 147.155 354.64 161.843 393.123 179.981C433.29 198.914 437.378 221.973 375.044 242.639C318.303 261.451 214.029 276.05 209.827 298.309C206.353 316.694 280.483 328.934 370.017 331.436C492.328 334.866 589.106 312.725 708.763 311.516Z" stroke="white" stroke-opacity="0.32" stroke-width="0.188" stroke-miterlimit="10"/>
<path d="M695.876 308.897C796.963 309.021 859.566 326.201 905.482 341.97C951.398 357.739 1007.77 375.358 1107.28 377.162C1219.76 379.204 1332.02 357.265 1343.99 335.795C1355.96 314.325 1290.05 295.324 1202.75 283.43C1147.43 275.891 1083.55 270.583 1025.9 263.62C968.248 256.658 915.25 247.565 893.854 235.156C872.457 222.747 890.477 206.474 951.026 197.517C1046.55 183.388 1193.2 192.925 1283.7 177.64C1326.47 170.414 1343.78 159.243 1341.22 149.244C1338.66 139.245 1319.04 130.093 1299.65 121.129C1271.37 108.053 1241.94 94.6574 1188.67 84.9919C1135.41 75.3263 1052.05 70.0858 975.626 75.8729C905.509 81.1815 858.337 93.9886 811.957 105.463C765.577 116.938 705.53 128.847 632.647 130.166C544.342 131.764 481.35 116.37 470.898 100.404C460.445 84.4383 486.598 67.6672 497.17 51.207C507.741 34.7467 498.297 16.6013 433.261 7.05799C352.896 -4.73277 213.202 2.81459 141.186 19.6311C69.1708 36.4476 57.0461 59.2293 84.2406 78.1308C111.435 97.0323 172.582 112.881 234.625 128.034C296.668 143.186 361.445 158.324 397.588 176.524C435.311 195.518 436.896 218.158 373.009 237.716C314.855 255.518 210.122 268.667 203.585 290.431C198.191 308.405 270.218 321.219 358.57 324.657C479.22 329.379 577.351 308.758 695.876 308.897Z" stroke="white" stroke-opacity="0.32" stroke-width="0.186" stroke-miterlimit="10"/>
<path d="M683.406 306.194C783.42 307.436 843.532 324.963 887.285 340.92C931.038 356.877 984.936 374.766 1083.21 377.639C1194.32 380.883 1307.71 360.632 1321.85 339.727C1335.98 318.823 1272.77 299.476 1187.68 286.858C1133.75 278.858 1071.1 272.947 1014.81 265.489C958.507 258.03 907.025 248.532 887.182 236.127C867.339 223.722 886.902 207.988 947.785 199.882C1043.79 187.097 1187.92 198.065 1279.08 184.092C1322.18 177.486 1340.5 166.732 1339.03 156.908C1337.55 147.083 1319.12 137.898 1300.9 128.903C1274.31 115.778 1246.64 102.328 1194.94 92.2665C1143.24 82.2046 1061.35 76.1485 985.082 80.9717C915.116 85.3967 867.091 97.4215 819.972 108.152C772.854 118.883 712.176 129.883 639.912 130.368C552.369 130.955 491.674 115.176 483.039 99.4157C474.404 83.6557 502.068 67.5133 514.29 51.5053C526.512 35.4973 519.095 17.6104 455.758 7.53794C377.519 -4.90416 238.493 0.944066 165.415 16.6272C92.337 32.3104 77.9361 54.4932 102.817 73.3266C127.698 92.16 186.52 108.348 246.287 123.888C306.053 139.428 368.544 154.971 402.362 173.202C437.663 192.236 436.816 214.431 371.516 232.886C312.067 249.685 207.01 261.408 198.24 282.654C190.981 300.206 260.887 313.563 347.946 317.911C466.848 323.857 566.144 304.739 683.406 306.194Z" stroke="white" stroke-opacity="0.32" stroke-width="0.183" stroke-miterlimit="10"/>
<path d="M671.358 303.402C770.191 305.726 827.8 323.566 869.385 339.686C910.969 355.806 962.398 373.93 1059.33 377.833C1168.9 382.242 1283.29 363.657 1299.51 343.332C1315.73 323.007 1255.28 303.343 1172.4 290.043C1119.87 281.607 1058.53 275.123 1003.62 267.192C948.703 259.26 898.78 249.38 880.469 237.009C862.157 224.639 883.192 209.434 944.302 202.168C1040.68 190.705 1182.11 203.041 1273.81 190.367C1317.15 184.372 1336.43 174.039 1336.02 164.396C1335.62 154.753 1318.35 145.549 1301.28 136.535C1276.37 123.38 1250.43 109.895 1200.35 99.4632C1150.27 89.0311 1069.88 82.1927 993.896 86.0729C924.195 89.6335 875.388 100.883 827.622 110.87C779.856 120.857 718.633 130.967 647.082 130.643C560.396 130.248 502.021 114.121 495.16 98.5778C488.299 83.0344 517.393 67.5311 531.195 51.9806C544.997 36.4302 539.566 18.8244 477.971 8.25425C401.883 -4.80429 263.688 -0.613269 189.704 13.9436C115.72 28.5004 99.0913 50.0755 121.744 68.7971C144.398 87.5188 200.831 104.038 258.316 119.926C315.801 135.813 375.967 151.736 407.487 169.974C440.388 189.008 437.179 210.751 370.595 228.108C309.981 243.91 204.795 254.233 193.83 274.957C184.774 292.071 252.518 305.931 338.195 311.161C455.188 318.31 555.482 300.678 671.358 303.402Z" stroke="white" stroke-opacity="0.32" stroke-width="0.18" stroke-miterlimit="10"/>
<path d="M659.733 300.534C757.276 303.906 812.372 322.013 851.805 338.278C891.238 354.543 940.185 372.854 1035.69 377.757C1143.64 383.291 1258.81 366.349 1277.02 346.615C1295.23 326.88 1237.5 306.95 1156.93 292.994C1105.87 284.147 1045.82 277.115 992.362 268.735C938.901 260.355 890.531 250.125 873.73 237.798C856.929 225.471 879.366 210.811 940.611 204.368C1037.2 194.204 1175.83 207.86 1267.92 196.455C1311.44 191.061 1331.63 181.151 1332.25 171.699C1332.88 162.246 1316.78 153.036 1300.85 144.015C1277.6 130.85 1253.39 117.352 1204.93 106.575C1156.47 95.7992 1077.67 88.2064 1002.08 91.1681C932.725 93.8835 883.233 104.366 834.874 113.627C786.515 122.887 724.888 132.113 654.124 131C568.365 129.654 512.347 113.208 507.212 97.8999C502.078 82.5921 532.53 67.728 547.842 52.6438C563.155 37.5596 559.665 20.2506 499.839 9.21253C425.947 -4.42577 288.755 -1.85179 213.978 11.5927C139.201 25.0371 120.464 45.994 140.852 64.5847C161.24 83.1754 215.348 99.9902 270.536 116.194C325.723 132.397 383.559 148.664 412.797 166.882C443.32 185.897 437.824 207.165 370.085 223.435C308.426 238.245 203.24 247.193 190.176 267.378C179.389 284.048 244.948 298.376 329.164 304.449C444.242 312.739 545.362 296.581 659.733 300.534Z" stroke="white" stroke-opacity="0.32" stroke-width="0.177" stroke-miterlimit="10"/>
<path d="M648.535 297.594C744.698 301.979 797.286 320.341 834.561 336.71C871.836 353.08 918.324 371.574 1012.3 377.43C1118.52 384.048 1234.29 368.723 1254.43 349.589C1274.56 330.455 1219.55 310.289 1141.32 295.722C1091.73 286.488 1033.1 278.933 981.067 270.129C929.035 261.324 882.289 250.768 866.982 238.504C851.675 226.24 875.439 212.125 936.726 206.49C1033.39 197.603 1169.1 212.521 1261.42 202.363C1305.07 197.561 1326.09 188.074 1327.72 178.819C1329.35 169.563 1314.41 160.364 1299.6 151.348C1278.03 138.192 1255.47 124.697 1208.69 113.603C1161.92 102.509 1084.73 94.1947 1009.62 96.2588C940.701 98.1517 890.611 107.873 841.799 116.412C792.987 124.952 730.993 133.306 661.086 131.43C576.406 129.16 522.702 112.426 519.234 97.3782C515.766 82.3307 547.502 68.0951 564.271 53.4877C581.04 38.8802 579.421 21.8803 521.413 10.4004C449.748 -3.77925 313.727 -2.77689 238.313 9.56568C162.9 21.9083 142.113 42.2347 160.3 60.6787C178.488 79.1227 230.234 96.1925 283.118 112.681C336.003 129.169 391.487 145.746 418.498 163.921C446.669 182.891 438.961 203.668 370.198 218.857C307.6 232.685 202.57 240.289 187.49 259.92C175.036 276.134 238.373 290.899 321.062 297.783C434.004 307.172 535.787 292.455 648.535 297.594Z" stroke="white" stroke-opacity="0.32" stroke-width="0.175" stroke-miterlimit="10"/>
<path d="M637.793 294.59C732.478 299.951 782.552 318.525 817.691 334.971C852.83 351.417 896.853 370.057 989.208 376.836C1093.61 384.496 1209.81 370.764 1231.76 352.24C1253.71 333.715 1201.45 313.347 1125.59 298.207C1077.51 288.602 1020.3 280.559 969.753 271.356C919.204 262.153 874.081 251.293 860.263 239.106C846.444 226.919 871.449 213.354 932.694 208.512C1029.29 200.875 1161.98 216.997 1254.43 208.065C1298.12 203.844 1319.95 194.781 1322.55 185.732C1325.15 176.683 1311.34 167.503 1297.66 158.504C1277.7 145.374 1256.83 131.902 1211.73 120.514C1166.63 109.127 1091.14 100.127 1016.59 101.316C948.2 102.407 897.603 111.378 848.392 119.203C799.18 127.028 736.949 134.526 667.975 131.917C584.418 128.755 533.07 111.764 531.269 96.9764C529.468 82.1891 562.363 68.5979 580.513 54.4707C598.662 40.3434 598.883 23.6684 542.704 11.7798C473.309 -2.90796 338.609 -3.4336 262.673 7.82629C186.736 19.0862 163.97 38.7683 180.027 57.0412C196.083 75.3141 245.435 92.6125 295.989 109.352C346.543 126.092 399.687 142.952 424.454 161.057C450.306 179.955 440.462 200.228 370.798 214.35C307.386 227.204 202.647 233.49 185.631 252.558C171.575 268.306 232.673 283.467 313.756 291.134C424.476 301.598 526.76 288.305 637.793 294.59Z" stroke="white" stroke-opacity="0.32" stroke-width="0.172" stroke-miterlimit="10"/>
<path d="M627.442 291.527C720.557 297.83 768.123 316.581 801.116 333.088C834.108 349.596 875.698 368.342 966.365 376.008C1068.84 384.671 1185.29 372.502 1209 354.595C1232.7 336.689 1183.15 316.153 1109.71 300.479C1063.16 290.544 1007.41 282.021 958.377 272.444C909.344 262.868 865.85 251.727 853.455 239.634C841.061 227.541 867.274 214.524 928.389 210.459C1024.78 204.047 1154.38 221.312 1246.8 213.585C1290.49 209.933 1313.04 201.296 1316.58 192.455C1320.12 183.614 1307.41 174.469 1294.86 165.502C1276.52 152.415 1257.3 138.985 1213.89 127.327C1170.48 115.669 1096.74 106.022 1022.85 106.354C955.06 106.667 904.037 114.895 854.507 122.016C804.978 129.137 742.595 135.798 674.63 132.476C592.286 128.46 543.29 111.235 543.085 96.7268C542.88 82.2189 576.887 69.2651 596.353 55.6251C615.818 41.9851 617.835 25.654 563.522 13.3778C496.42 -1.78146 363.193 -3.78794 286.83 6.39276C210.467 16.5735 185.888 35.6165 199.798 53.699C213.709 71.7815 260.746 89.2755 308.97 106.239C357.195 123.202 407.997 140.306 430.569 158.321C454.134 177.125 442.23 196.877 371.779 209.942C307.66 221.834 203.347 226.834 184.475 245.327C168.888 260.601 227.721 276.139 307.137 284.544C415.634 296.031 518.264 284.139 627.442 291.527Z" stroke="white" stroke-opacity="0.32" stroke-width="0.17" stroke-miterlimit="10"/>
<path d="M617.544 288.414C709.009 295.619 754.078 314.519 784.983 331.054C815.889 347.589 855.025 366.423 943.922 374.936C1044.41 384.561 1160.92 373.928 1186.29 356.645C1211.66 339.363 1164.82 318.694 1093.82 302.522C1048.82 292.273 994.579 283.304 947.067 273.378C899.554 263.453 857.722 252.053 846.746 240.067C835.77 228.08 863.099 215.619 924.009 212.313C1020.07 207.097 1146.45 225.449 1238.74 218.904C1282.36 215.809 1305.62 207.595 1310.05 198.975C1314.47 190.356 1302.92 181.251 1291.43 172.326C1274.66 159.302 1257.09 145.929 1215.38 134.025C1173.66 122.121 1101.73 111.847 1028.59 111.36C961.473 110.915 910.104 118.413 860.338 124.841C810.571 131.269 748.151 137.104 681.232 133.098C600.182 128.243 553.544 110.831 554.887 96.613C556.23 82.395 591.261 70.0821 611.978 56.931C632.695 43.7799 636.417 27.7999 583.98 15.1744C519.203 -0.423184 387.582 -3.85984 310.961 5.27486C234.339 14.4095 207.943 32.7889 219.809 50.6602C231.675 68.5314 276.296 86.1931 322.228 103.347C368.16 120.5 416.579 137.825 436.993 155.724C458.298 174.409 444.415 193.632 373.349 205.651C308.625 216.593 204.885 220.336 184.238 238.247C167.183 253.04 223.741 268.917 301.425 278.03C407.485 290.478 510.303 279.964 617.544 288.414Z" stroke="white" stroke-opacity="0.32" stroke-width="0.167" stroke-miterlimit="10"/>
<path d="M608.084 285.251C697.823 293.324 740.395 312.341 769.218 328.885C798.042 345.429 834.745 364.315 921.803 373.642C1020.2 384.184 1136.63 375.056 1163.57 358.406C1190.52 341.755 1146.38 320.982 1077.85 304.352C1034.42 293.81 981.689 284.422 935.751 274.17C889.814 263.917 849.621 252.287 840.047 240.421C830.474 228.556 858.833 216.648 919.457 214.084C1015.07 210.038 1138.16 229.418 1230.18 224.028C1273.67 221.478 1297.54 213.69 1302.86 205.292C1308.18 196.894 1297.7 187.847 1287.29 178.974C1272.08 166.027 1256.13 152.731 1216.12 140.607C1176.12 128.483 1106.04 117.616 1033.71 116.334C967.369 115.153 915.719 121.922 865.791 127.685C815.862 133.447 753.458 138.455 687.688 133.796C608.003 128.142 563.716 110.571 566.564 96.65C569.412 82.7288 605.398 71.0586 627.291 58.4069C649.183 45.7552 654.582 30.1332 604.039 17.1829C541.608 1.18369 411.741 -3.64646 334.946 4.45968C258.152 12.5658 230.089 30.2764 239.89 47.9171C249.69 65.5579 291.992 83.3662 335.61 100.675C379.228 117.984 425.289 135.501 443.579 153.266C462.667 171.807 446.88 190.487 375.247 201.478C310.044 211.482 206.967 213.999 184.643 231.32C166.191 245.625 220.462 261.806 296.361 271.597C400.01 284.948 502.871 275.785 608.084 285.251Z" stroke="white" stroke-opacity="0.32" stroke-width="0.165" stroke-miterlimit="10"/>
<path d="M599.069 282.049C686.984 290.955 727.097 310.057 753.865 326.578C780.634 343.1 814.921 362.027 900.07 372.121C996.313 383.541 1112.49 375.888 1140.93 359.871C1169.37 343.854 1127.91 323.014 1061.88 305.96C1020.02 295.151 968.849 285.368 924.487 274.814C880.124 264.26 841.597 252.418 833.388 240.687C825.179 228.955 854.515 217.603 914.778 215.761C1009.82 212.857 1129.55 233.209 1221.17 228.945C1264.48 226.93 1288.94 219.562 1295.09 211.395C1301.25 203.228 1291.86 194.245 1282.49 185.437C1268.83 172.583 1254.44 159.377 1216.15 147.054C1177.85 134.731 1109.68 123.305 1038.24 121.248C972.705 119.357 920.894 125.425 870.874 130.503C820.854 135.581 758.574 139.812 693.964 134.511C615.724 128.088 573.772 110.376 578.077 96.7722C582.381 83.1688 619.224 72.1272 642.261 59.9698C665.297 47.8123 672.281 32.5709 623.653 19.322C563.584 2.95433 435.594 -3.21697 358.74 3.87459C281.887 10.9662 252.233 28.0097 260.037 45.4024C267.842 62.7952 307.808 80.7049 349.123 98.1535C390.438 115.602 434.143 133.269 450.345 150.877C467.254 169.256 449.633 187.384 377.585 197.359C311.999 206.439 209.752 207.763 185.799 224.487C166.01 238.298 217.989 254.755 292.054 265.189C393.205 279.447 495.97 271.608 599.069 282.049Z" stroke="white" stroke-opacity="0.32" stroke-width="0.162" stroke-miterlimit="10"/>
<path d="M590.48 278.811C676.535 288.508 714.172 307.671 738.88 324.163C763.588 340.655 795.513 359.563 878.688 370.404C972.704 382.659 1088.47 376.448 1118.33 361.07C1148.18 345.693 1109.38 324.813 1045.86 307.373C1005.6 296.317 956.01 286.164 913.239 275.334C870.468 264.504 833.608 252.472 826.736 240.887C819.865 229.303 850.107 218.504 909.933 217.365C1004.28 215.574 1120.58 236.841 1211.7 233.679C1254.77 232.184 1279.76 225.236 1286.72 217.301C1293.68 209.366 1285.34 200.461 1277.01 191.727C1264.86 178.979 1252.06 165.882 1215.49 153.386C1178.91 140.89 1112.67 128.938 1042.2 126.132C977.558 123.553 925.644 128.926 875.608 133.346C825.571 137.765 763.486 141.223 700.148 135.314C623.419 128.154 583.798 110.342 589.509 97.0532C595.221 83.7641 632.858 73.3634 656.929 61.7071C681.001 50.0508 689.561 35.1936 642.858 21.674C585.146 4.97106 459.178 -2.49245 382.379 3.60375C305.579 9.69994 274.409 26.0712 280.288 43.1985C286.167 60.3258 323.793 78.3175 362.811 95.8709C401.828 113.424 443.175 131.219 457.344 148.652C472.112 166.846 452.744 184.412 380.388 193.387C314.522 201.556 213.187 201.722 187.718 217.835C166.683 231.148 216.342 247.848 288.503 258.891C387.06 273.972 489.577 267.439 590.48 278.811Z" stroke="white" stroke-opacity="0.32" stroke-width="0.16" stroke-miterlimit="10"/>
<path d="M582.331 275.544C666.471 286 701.643 305.194 724.334 321.624C747.024 338.055 776.592 356.937 857.734 368.482C949.452 381.53 1064.67 376.726 1095.85 361.989C1127.03 347.252 1090.87 326.365 1029.88 308.574C991.22 297.297 943.233 286.8 902.048 275.713C860.862 264.626 825.696 252.432 820.135 241.005C814.574 229.577 845.647 219.332 904.96 218.881C998.512 218.169 1111.32 240.296 1201.82 238.207C1244.6 237.219 1270.06 230.688 1277.8 222.99C1285.54 215.293 1278.23 206.478 1270.93 197.827C1260.27 185.205 1249 172.23 1214.14 159.583C1179.28 146.937 1115.03 134.488 1045.61 130.953C981.916 127.711 929.976 132.398 879.988 136.177C830 139.955 768.21 142.652 706.168 136.161C631.008 128.303 593.706 110.396 600.771 97.4479C607.837 84.4994 646.191 74.7151 671.26 63.5705C696.33 52.4258 706.378 37.9546 661.611 24.1905C606.305 7.18718 482.441 -1.52317 405.792 3.60036C329.144 8.72389 296.561 24.4176 300.552 41.2637C304.543 58.1099 339.85 76.154 376.602 93.786C413.354 111.418 452.366 129.31 464.518 146.548C477.193 164.534 456.153 181.536 383.614 189.527C317.564 196.801 217.296 195.841 190.355 211.355C168.107 224.165 215.473 241.078 285.698 252.698C381.564 268.559 483.703 263.283 582.331 275.544Z" stroke="white" stroke-opacity="0.32" stroke-width="0.158" stroke-miterlimit="10"/>
<path d="M574.613 272.25C656.731 283.426 689.497 302.621 710.209 318.973C730.92 335.325 758.153 354.15 837.212 366.36C926.573 380.155 1041.09 376.731 1073.52 362.637C1105.94 348.543 1072.38 327.678 1013.94 309.571C976.885 298.093 930.527 287.277 890.965 275.959C851.403 264.642 817.941 252.301 813.626 241.043C809.311 229.785 841.187 220.088 899.924 220.306C992.57 220.645 1101.83 243.575 1191.6 242.531C1234.04 242.036 1259.93 235.919 1268.41 228.463C1276.89 221.006 1270.6 212.287 1264.29 203.73C1255.1 191.246 1245.32 178.41 1212.19 165.627C1179.05 152.844 1116.77 139.946 1048.46 135.714C985.779 131.832 933.887 135.85 884.023 138.996C834.159 142.143 772.726 144.104 712.032 137.056C638.495 128.517 603.496 110.567 611.872 97.9593C620.249 85.3513 659.239 76.1888 685.226 65.5383C711.212 54.8879 722.706 40.8287 679.875 26.8464C626.969 9.57412 505.338 -0.330667 428.948 3.83766C352.559 8.00598 318.654 23.0343 320.801 39.5749C322.948 56.1155 355.962 74.1962 390.427 91.8789C424.892 109.562 461.623 127.525 471.779 144.548C482.399 162.316 459.767 178.736 387.099 185.76C320.974 192.156 221.861 190.104 193.544 205.003C170.163 217.309 215.227 234.405 283.472 246.564C376.7 263.182 478.332 259.146 574.613 272.25Z" stroke="white" stroke-opacity="0.32" stroke-width="0.155" stroke-miterlimit="10"/>
<path d="M567.33 268.94C647.393 280.8 677.781 299.971 696.513 316.22C715.245 332.469 740.201 351.218 817.125 364.057C904.075 378.57 1017.77 376.476 1051.35 363.027C1084.93 349.577 1053.96 328.761 998.053 310.373C962.617 298.717 917.899 287.606 879.971 276.078C842.043 264.551 810.199 252.09 807.157 241.012C804.115 229.934 836.66 220.788 894.76 221.649C986.398 223.008 1092.06 246.684 1181 246.654C1223.05 246.642 1249.32 240.935 1258.51 233.732C1267.69 226.528 1262.39 217.907 1257.07 209.459C1249.3 197.125 1241 184.438 1209.61 171.547C1178.21 158.656 1117.92 145.329 1050.79 140.425C989.186 135.927 937.402 139.289 887.732 141.822C838.063 144.356 777.055 145.593 717.753 138.016C645.899 128.834 613.187 110.859 622.825 98.599C632.464 86.3385 672.015 77.7923 698.875 67.6448C725.735 57.4973 738.604 43.8502 697.716 29.6758C647.204 12.1661 527.908 1.114 451.875 4.35506C375.841 7.59612 340.68 21.9312 341.042 38.1714C341.403 54.4116 372.141 72.4837 404.357 90.1908C436.573 107.898 470.952 125.89 479.22 142.678C487.85 160.205 463.687 176.042 391.051 182.123C324.936 187.658 227.085 184.55 197.48 198.834C173.025 210.632 215.791 227.882 282.025 240.554C372.465 257.863 473.455 255.034 567.33 268.94Z" stroke="white" stroke-opacity="0.32" stroke-width="0.153" stroke-miterlimit="10"/>
<path d="M560.475 265.615C638.435 278.123 666.455 297.243 683.256 313.371C700.057 329.5 722.748 348.146 797.492 361.568C881.983 376.761 994.693 375.961 1029.37 363.154C1064.04 350.347 1035.6 329.61 982.256 310.974C948.432 299.16 905.37 287.778 869.076 276.062C832.783 264.347 802.595 251.789 800.772 240.898C798.949 230.007 832.125 221.41 889.523 222.898C980.05 225.245 1082.08 249.615 1170.09 250.569C1211.69 251.023 1238.3 245.721 1248.16 238.757C1258.01 231.793 1253.69 223.296 1249.33 214.954C1242.96 202.782 1236.1 190.26 1206.38 177.283C1176.65 164.307 1118.46 150.578 1052.55 145.03C992.077 139.94 940.482 142.66 891.06 144.59C841.639 146.52 781.144 147.059 723.271 138.977C653.154 129.186 622.702 111.212 633.543 99.3059C644.384 87.3999 684.442 79.4736 712.101 69.8343C739.759 60.1949 753.95 46.9582 715.002 32.6197C666.891 14.9039 550.028 2.75865 474.448 5.08467C398.867 7.41069 362.546 21.0751 361.182 36.9906C359.817 52.906 388.29 70.9536 418.278 88.659C448.267 106.364 480.386 124.389 486.777 140.933C493.428 158.202 467.846 173.452 395.329 178.604C329.316 183.294 232.825 179.166 202 192.834C176.548 204.123 217.027 221.497 281.211 234.648C368.841 252.603 469.07 250.951 560.475 265.615Z" stroke="white" stroke-opacity="0.32" stroke-width="0.151" stroke-miterlimit="10"/>
<path d="M554.046 262.283C629.853 275.401 655.538 294.444 670.44 310.433C685.343 326.421 705.806 344.942 778.312 358.931C860.295 374.742 971.905 375.215 1007.58 363.053C1043.26 350.89 1017.34 330.256 966.533 311.405C934.328 299.456 892.932 287.831 858.267 275.946C823.602 264.061 795.076 251.423 794.434 240.736C793.792 230.049 827.54 221.988 884.173 224.082C973.502 227.382 1071.87 252.389 1158.84 254.302C1199.96 255.205 1226.85 250.307 1237.35 243.593C1247.84 236.878 1244.48 228.505 1241.05 220.284C1236.05 208.289 1230.59 195.942 1202.57 182.898C1174.55 169.853 1118.43 155.759 1053.8 149.593C994.504 143.935 943.163 146.029 894.054 147.374C844.945 148.718 785.033 148.575 728.626 140.015C660.295 129.646 632.081 111.698 644.076 100.15C656.072 88.6015 696.556 81.276 724.953 72.1308C753.351 62.9856 768.803 50.1838 731.798 35.7003C686.087 17.8099 571.743 4.61684 496.712 6.05751C421.682 7.49818 384.277 20.4851 381.219 36.0635C378.161 51.6419 404.411 69.6406 432.199 87.3215C459.987 105.002 489.841 123.017 494.382 139.297C499.123 156.29 472.182 170.95 399.875 175.193C334.073 179.058 239.016 173.943 207.059 186.995C180.668 197.774 218.866 215.246 280.952 228.842C365.815 247.41 465.197 246.905 554.046 262.283Z" stroke="white" stroke-opacity="0.32" stroke-width="0.148" stroke-miterlimit="10"/>
<path d="M548.042 258.944C621.649 272.638 645.036 291.581 658.072 307.411C671.108 323.241 689.355 341.615 759.655 356.132C839.087 372.533 949.478 374.234 986.073 362.71C1022.67 351.187 999.228 330.684 950.972 311.651C920.379 299.586 880.661 287.727 847.625 275.71C814.589 263.692 787.718 250.983 788.22 240.503C788.721 230.024 822.976 222.501 878.795 225.18C966.834 229.404 1061.49 254.996 1147.35 257.835C1187.94 259.176 1215.07 254.674 1226.18 248.211C1237.28 241.748 1234.84 233.508 1232.33 225.416C1228.66 213.606 1224.58 201.45 1198.24 188.358C1171.9 175.266 1117.88 160.835 1054.59 154.077C996.521 147.878 945.492 149.362 896.755 150.133C848.018 150.903 788.754 150.103 733.868 141.09C667.36 130.173 641.357 112.277 654.463 101.101C667.57 89.925 708.4 83.1879 737.482 74.5439C766.564 65.8999 783.214 53.5242 748.14 38.9202C704.818 20.8848 593.084 6.68422 518.685 7.27097C444.285 7.85771 405.894 20.1619 401.201 35.3858C396.509 50.6097 420.575 68.542 446.178 86.1722C471.782 103.802 499.408 121.786 502.164 137.788C505.039 154.489 476.814 168.554 404.815 171.912C339.277 174.97 245.784 168.905 212.77 181.342C185.505 191.612 221.438 209.153 281.436 223.161C363.376 242.288 461.739 242.889 548.042 258.944Z" stroke="white" stroke-opacity="0.32" stroke-width="0.146" stroke-miterlimit="10"/>
<path d="M542.461 255.608C613.835 269.84 634.95 288.66 646.164 304.315C657.377 319.97 673.493 338.175 741.485 353.17C818.328 370.118 927.376 373.008 964.824 362.123C1002.27 351.239 981.253 330.89 935.536 311.707C906.556 299.546 868.515 287.493 837.114 275.346C805.712 263.199 780.481 250.455 782.099 240.194C783.717 229.933 818.414 222.941 873.359 226.182C960.023 231.297 1050.95 257.419 1135.61 261.151C1175.63 262.915 1202.96 258.804 1214.63 252.594C1226.31 246.385 1224.78 238.275 1223.15 230.326C1220.78 218.715 1218.04 206.752 1193.38 193.641C1168.72 180.53 1116.79 165.784 1054.9 158.46C998.097 151.743 947.451 152.63 899.14 152.848C850.83 153.066 792.271 151.626 738.912 142.184C674.27 130.751 650.457 112.925 664.61 102.116C678.763 91.3062 719.895 85.1629 749.592 77.0166C779.289 68.8703 797.055 56.9346 763.939 42.2346C722.996 24.0839 613.953 8.93335 540.271 8.68363C466.589 8.43392 427.286 20.0641 421.024 34.9352C414.762 49.8064 436.665 67.6357 460.106 85.1926C483.547 102.749 508.977 120.677 509.991 136.386C511.07 152.782 481.627 166.247 410.026 168.742C344.85 171.013 252.986 164.027 218.99 175.851C190.943 185.61 224.599 203.196 282.473 217.587C361.511 237.241 458.779 238.921 542.461 255.608Z" stroke="white" stroke-opacity="0.32" stroke-width="0.144" stroke-miterlimit="10"/>
<path d="M537.287 252.276C606.395 267.011 625.279 285.686 634.707 301.149C644.135 316.612 658.136 334.628 723.809 350.072C798.041 367.535 905.633 371.569 943.868 361.32C982.104 351.071 963.463 330.898 920.271 311.597C892.893 299.361 856.54 287.13 826.762 274.88C796.984 262.63 773.365 249.865 776.062 239.829C778.759 229.793 813.817 223.327 867.856 227.113C953.075 233.083 1040.25 259.684 1123.62 264.278C1163.03 266.451 1190.5 262.726 1202.73 256.769C1214.96 250.813 1214.29 242.861 1213.52 235.046C1212.41 223.643 1210.98 211.899 1187.98 198.771C1164.97 185.643 1115.16 170.63 1054.7 162.77C999.217 155.558 948.987 155.867 901.178 155.544C853.369 155.221 795.566 153.159 743.776 143.32C681.027 131.402 659.361 113.674 674.522 103.24C689.684 92.8061 731.042 87.2425 761.295 79.5886C791.547 71.9347 810.43 60.4321 779.201 45.6692C740.626 27.4313 634.345 11.3779 561.467 10.3179C488.588 9.25795 448.454 20.2158 440.65 34.7167C432.845 49.2177 452.629 66.93 473.961 84.3926C495.293 101.855 518.528 119.702 517.859 135.104C517.164 151.182 486.604 164.05 415.489 165.698C350.766 167.2 260.601 159.347 225.704 170.548C196.88 179.803 228.331 197.402 284.068 212.144C360.199 232.278 456.27 235.001 537.287 252.276Z" stroke="white" stroke-opacity="0.32" stroke-width="0.142" stroke-miterlimit="10"/>
<path d="M532.533 248.957C599.338 264.16 616.031 282.66 623.685 297.92C631.338 313.181 643.296 330.982 706.628 346.842C778.217 364.769 884.25 369.919 923.154 360.298C962.058 350.678 945.807 330.71 905.112 311.319C879.326 299.027 844.661 286.641 816.501 274.309C788.341 261.977 766.34 249.208 770.083 239.405C773.827 229.601 809.22 223.654 862.271 227.962C945.948 234.756 1029.38 261.785 1111.39 267.211C1150.15 269.774 1177.73 266.43 1190.46 260.732C1203.18 255.034 1203.4 247.232 1203.47 239.567C1203.59 228.381 1203.43 216.866 1182.07 203.743C1160.71 190.62 1113.03 175.362 1054.04 166.991C999.9 159.307 950.181 159.056 902.896 158.211C855.61 157.366 798.648 154.704 748.45 144.49C687.631 132.118 668.085 114.507 684.206 104.452C700.328 94.3971 741.891 89.4046 772.635 82.2327C803.378 75.0608 823.302 64.0087 793.977 49.1969C757.754 30.9014 654.283 13.9958 582.3 12.1483C510.316 10.3007 469.417 20.5949 460.167 34.7169C450.917 48.839 468.575 66.4115 487.82 83.7571C507.064 101.103 528.159 118.847 525.85 133.931C523.445 149.675 491.833 161.946 421.29 162.774C357.073 163.528 268.704 154.833 232.977 165.423C203.474 174.166 232.713 191.763 286.288 206.823C359.436 227.399 454.207 231.131 532.533 248.957Z" stroke="white" stroke-opacity="0.32" stroke-width="0.14" stroke-miterlimit="10"/>
<path d="M528.173 245.65C592.659 261.286 607.2 279.602 613.171 294.634C619.142 309.666 629.044 327.245 690.025 343.487C758.944 361.844 863.316 368.064 902.84 359.071C942.365 350.078 928.39 330.331 890.208 310.874C866.007 298.546 833.036 286.025 806.483 273.63C779.931 261.235 759.559 248.484 764.278 238.916C768.998 229.348 804.682 223.917 856.719 228.727C938.789 236.309 1018.46 263.718 1099.02 269.938C1137.11 272.879 1164.76 269.909 1177.96 264.466C1191.16 259.023 1192.2 251.381 1193.09 243.872C1194.41 232.914 1195.48 221.623 1175.74 208.535C1156.01 195.446 1110.48 179.964 1052.98 171.107C1000.23 162.983 951.037 162.184 904.361 160.83C857.685 159.477 801.581 156.239 753 145.676C694.145 132.88 676.681 115.41 693.703 105.736C710.725 96.0614 752.337 91.6294 783.528 84.9552C814.719 78.281 835.609 67.6673 808.172 52.8241C774.278 34.4971 673.72 16.7865 602.675 14.1793C531.63 11.5721 490.078 21.2063 479.415 34.9388C468.752 48.6714 484.361 66.0869 501.529 83.2963C518.697 100.506 537.666 118.122 533.804 132.876C529.743 148.275 497.127 159.943 427.264 159.978C363.62 160.006 277.128 150.508 240.645 160.486C210.516 168.729 237.571 186.293 288.977 201.642C359.197 222.611 452.571 227.317 528.173 245.65Z" stroke="white" stroke-opacity="0.32" stroke-width="0.138" stroke-miterlimit="10"/>
<path d="M524.221 242.365C586.355 258.399 598.792 276.506 603.091 291.3C607.39 306.095 615.324 323.432 673.925 340.021C740.164 358.772 842.745 366.023 882.841 357.648C922.938 349.273 911.196 329.772 875.49 310.293C852.837 297.945 821.554 285.321 796.619 272.874C771.685 260.426 752.839 247.712 758.557 238.394C764.274 229.076 800.141 224.146 851.116 229.434C931.513 237.772 1007.42 265.51 1086.48 272.5C1123.85 275.804 1151.53 273.199 1165.17 268.012C1178.81 262.826 1180.65 255.352 1182.34 248.004C1184.81 237.282 1187.07 226.229 1168.94 213.187C1150.81 200.144 1107.4 184.464 1051.48 175.15C1000.16 166.605 951.594 165.276 905.527 163.434C859.46 161.592 804.316 157.797 757.375 146.909C700.5 133.719 685.101 116.409 702.959 107.119C720.817 97.8286 762.483 93.9467 794.063 87.7492C825.642 81.5517 847.459 71.3815 821.872 56.54C790.292 38.2043 692.684 19.741 622.659 16.3987C552.634 13.0564 510.472 22.0356 498.477 35.3736C486.481 48.7115 500.041 65.9454 515.197 82.9976C530.353 100.05 547.262 117.521 541.836 131.935C536.178 146.977 502.684 158.054 433.527 157.308C370.567 156.63 285.979 146.366 248.812 155.736C218.122 163.478 243.019 180.986 292.247 196.599C359.484 217.917 451.369 223.563 524.221 242.365Z" stroke="white" stroke-opacity="0.32" stroke-width="0.136" stroke-miterlimit="10"/>
<path d="M520.653 239.098C580.425 255.495 590.797 273.375 593.467 287.918C596.137 302.461 602.14 319.525 658.358 336.434C721.9 355.54 822.658 363.781 863.202 356.02C903.745 348.26 894.231 329.021 860.979 309.54C839.901 297.191 810.279 284.467 786.93 271.995C763.582 259.524 746.3 246.858 752.951 237.79C759.601 228.721 795.62 224.291 845.494 230.036C924.155 239.098 996.305 267.116 1073.78 274.84C1110.41 278.492 1138.08 276.237 1152.13 271.316C1166.18 266.395 1168.8 259.082 1171.26 251.901C1174.84 241.424 1178.27 230.62 1161.71 217.64C1145.15 204.66 1103.89 188.826 1049.52 179.077C999.654 170.136 951.738 168.296 906.35 165.98C860.963 163.664 806.806 159.335 761.516 148.149C706.652 134.594 693.244 117.464 711.927 108.559C730.611 99.6552 772.227 96.3129 804.158 90.5904C836.088 84.8679 858.719 75.143 835.009 60.319C805.716 42.0059 711.102 22.832 642.171 18.7824C573.241 14.7329 530.583 23.0625 517.266 35.9988C503.95 48.9351 515.551 65.9698 528.749 82.8457C541.947 99.7216 556.796 117.027 549.887 131.088C542.681 145.757 508.356 156.246 440.003 154.75C377.782 153.388 295.174 142.395 257.402 151.166C226.206 158.412 248.972 175.843 296.015 191.68C360.248 213.321 450.574 219.871 520.653 239.098Z" stroke="white" stroke-opacity="0.32" stroke-width="0.134" stroke-miterlimit="10"/>
<path d="M517.478 235.858C574.871 252.587 583.226 270.221 584.32 284.5C585.415 298.779 589.531 315.572 643.353 332.755C704.188 352.178 803.004 361.369 843.953 354.213C884.901 347.057 877.539 328.103 846.714 308.648C827.179 296.314 799.25 283.519 777.449 271.049C755.648 258.579 739.926 245.969 747.477 237.157C755.028 228.346 791.165 224.41 839.875 230.586C916.745 240.336 985.147 268.587 1061.01 277.014C1096.86 280.997 1124.48 279.11 1138.91 274.428C1153.35 269.746 1156.71 262.625 1159.91 255.617C1164.58 245.391 1169.11 234.837 1154.12 221.942C1139.13 209.048 1099.98 193.066 1047.23 182.915C998.835 173.602 951.62 171.269 906.961 168.498C862.302 165.727 809.169 160.886 765.551 149.422C712.694 135.536 701.27 118.6 720.703 110.084C740.136 101.567 781.651 98.7523 813.862 93.4943C846.072 88.2363 869.502 78.9637 847.62 64.1764C820.588 45.9087 729.015 26.0747 661.239 21.3423C593.463 16.6099 550.368 24.3005 535.81 36.8264C521.253 49.3523 530.918 66.1741 542.17 82.8561C553.421 99.5381 566.273 116.657 557.94 130.354C549.24 144.655 514.166 154.544 446.686 152.321C385.264 150.297 304.694 138.611 266.383 146.787C234.745 153.539 255.413 170.869 300.271 186.911C361.505 208.826 450.182 216.244 517.478 235.858Z" stroke="white" stroke-opacity="0.32" stroke-width="0.132" stroke-miterlimit="10"/>
<path d="M514.678 232.651C569.693 249.677 576.068 267.052 575.626 281.05C575.183 295.048 577.46 311.55 628.882 328.983C687.009 348.688 783.808 358.787 825.085 352.229C866.363 345.672 861.104 327.02 832.685 307.616C814.665 295.315 788.377 282.47 768.156 270.01C747.935 257.551 733.707 245.019 742.116 236.471C750.524 227.924 786.678 224.459 834.244 231.058C909.269 241.462 973.938 269.9 1048.08 278.996C1083.14 283.297 1110.65 281.747 1125.43 277.327C1140.22 272.907 1144.31 265.959 1148.22 259.127C1153.93 249.16 1159.55 238.871 1146.06 226.069C1132.58 213.267 1095.58 197.177 1044.46 186.647C997.568 176.987 951.096 174.177 907.203 170.968C863.31 167.758 811.251 162.425 769.316 150.711C718.508 136.517 708.999 119.802 729.139 111.67C749.278 103.537 790.68 101.243 823.084 96.4511C855.489 91.6593 879.717 82.8302 859.621 68.1005C834.81 49.9027 746.328 29.454 679.771 24.0685C613.214 18.6831 569.741 25.738 554.008 37.85C538.275 49.9621 546.031 66.5498 555.389 83.0188C564.747 99.4878 575.631 116.404 565.923 129.735C555.788 143.651 520.023 152.96 453.493 150.026C392.928 147.363 314.457 135.019 275.671 142.606C243.644 148.872 262.246 166.081 304.921 182.295C363.231 204.436 450.187 212.679 514.678 232.651Z" stroke="white" stroke-opacity="0.32" stroke-width="0.13" stroke-miterlimit="10"/>
<path d="M512.252 229.475C564.862 246.763 569.328 263.856 567.397 277.571C565.466 291.286 565.962 307.477 614.985 325.127C670.393 345.078 765.1 356.036 806.641 350.077C848.183 344.119 844.973 325.776 818.922 306.449C802.407 294.197 777.764 281.32 759.086 268.889C740.407 256.457 727.662 244.022 736.902 235.739C746.141 227.457 782.278 224.462 828.636 231.454C901.763 242.478 962.716 271.057 1035.11 280.793C1069.33 285.394 1096.74 284.181 1111.83 280.012C1126.93 275.844 1131.72 269.084 1136.32 262.434C1143.03 252.73 1149.69 242.717 1137.74 230.02C1125.79 217.323 1090.86 201.153 1041.41 190.268C996.038 180.283 950.354 177.016 907.264 173.385C864.175 169.755 813.232 163.956 772.963 152.01C724.205 137.542 716.578 121.055 737.365 113.312C758.152 105.569 799.392 103.779 831.953 99.4435C864.514 95.1076 889.417 86.7255 871.127 72.0691C848.533 53.9657 763.147 32.9529 697.863 26.9353C632.579 20.9177 588.82 27.3509 571.954 39.0456C555.088 50.7403 561 67.0766 568.497 83.3168C575.994 99.5571 584.964 116.251 573.939 129.205C562.424 142.728 526.044 151.444 460.522 147.841C400.88 144.56 324.55 131.601 285.365 138.602C253.003 144.385 269.573 161.453 310.068 177.812C365.417 200.154 450.566 209.2 512.252 229.475Z" stroke="white" stroke-opacity="0.32" stroke-width="0.128" stroke-miterlimit="10"/>
<path d="M510.184 226.338C560.398 243.863 562.993 260.657 559.622 274.074C556.251 287.49 555.005 303.359 601.627 321.195C654.328 341.357 746.872 353.151 788.613 347.764C830.354 342.377 829.135 324.378 805.419 305.155C790.387 292.968 767.373 280.077 750.221 267.691C733.069 255.305 721.786 242.978 731.807 234.966C741.828 226.954 777.906 224.421 823.04 231.783C894.236 243.395 951.478 272.073 1022.06 282.412C1055.43 287.302 1082.68 286.415 1098.06 282.498C1113.44 278.581 1118.91 272.011 1124.17 265.547C1131.85 256.117 1139.5 246.376 1129.02 233.803C1118.55 221.23 1085.72 204.999 1037.95 193.788C994.126 183.502 949.272 179.795 907.019 175.759C864.765 171.724 814.982 165.476 776.434 153.329C729.731 138.613 723.943 122.374 745.345 115.019C766.747 107.664 807.722 106.365 840.424 102.477C873.125 98.5903 898.642 90.6535 882.105 76.0915C861.685 58.105 779.438 36.5648 715.481 29.9482C651.523 23.3317 607.533 29.1485 589.599 40.4258C571.666 51.7032 575.765 67.7705 581.455 83.7645C587.145 99.7585 594.238 116.217 581.94 128.787C569.104 141.908 532.174 150.046 467.725 145.79C409.059 141.915 334.913 128.367 295.394 134.797C262.752 140.106 277.331 157.011 315.653 173.489C368.014 195.983 451.313 205.79 510.184 226.338Z" stroke="white" stroke-opacity="0.32" stroke-width="0.126" stroke-miterlimit="10"/>
<path d="M508.48 223.242C556.294 240.968 557.071 257.451 552.298 270.565C547.524 283.68 544.606 299.204 588.839 317.191C638.833 337.536 729.143 350.109 771.014 345.298C812.884 340.487 813.623 322.834 792.194 303.737C778.619 291.631 757.228 278.747 741.575 266.42C725.923 254.093 716.075 241.892 726.846 234.151C737.617 226.409 773.592 224.33 817.458 232.043C886.653 244.209 940.249 272.942 1009 283.854C1041.5 289.013 1068.56 288.447 1084.19 284.78C1099.83 281.113 1105.94 274.735 1111.84 268.461C1120.47 259.304 1129.05 249.848 1120.03 237.413C1111.02 224.977 1080.26 208.711 1034.18 197.196C991.92 186.633 947.93 182.505 906.555 178.082C865.181 173.658 816.579 166.986 779.73 154.657C735.092 139.722 731.101 123.748 753.064 116.777C775.027 109.806 815.705 108.989 848.477 105.544C881.248 102.098 907.348 94.6034 892.543 80.1513C874.253 62.2993 795.166 40.2877 732.59 33.0966C670.013 25.9055 625.861 31.1163 606.919 41.9606C587.976 52.8049 590.328 68.5945 594.233 84.3284C598.138 100.062 603.402 116.266 589.918 128.446C575.819 141.16 538.409 148.723 475.094 143.839C417.452 139.393 345.534 125.299 305.734 131.16C272.871 136 285.492 152.726 321.656 169.294C371.04 191.924 452.419 202.456 508.48 223.242Z" stroke="white" stroke-opacity="0.32" stroke-width="0.124" stroke-miterlimit="10"/>
<path d="M507.122 220.187C552.542 238.087 551.549 254.24 545.417 267.036C539.284 279.833 534.748 295.015 576.592 313.137C623.894 333.618 711.912 346.945 753.864 342.691C795.815 338.437 798.41 321.153 779.257 302.201C767.116 290.188 747.321 277.327 733.152 265.075C718.983 252.823 710.537 240.76 722.02 233.293C733.503 225.826 769.322 224.188 811.91 232.231C879.071 244.918 929.043 273.663 995.913 285.119C1027.51 290.532 1054.35 290.277 1070.21 286.865C1086.07 283.453 1092.8 277.261 1099.34 271.182C1108.82 262.304 1118.35 253.134 1110.76 240.851C1103.16 228.568 1074.47 212.289 1030.1 200.497C989.408 189.67 946.324 185.145 905.85 180.355C865.376 175.565 818.004 168.481 782.876 155.998C740.299 140.871 738.055 125.175 760.53 118.588C783.005 112.001 823.349 111.652 856.143 108.635C888.936 105.617 915.559 98.5674 902.452 84.2446C886.271 66.5514 810.356 44.1067 749.204 36.3673C688.051 28.6279 643.812 33.245 623.899 43.6597C603.986 54.0744 604.628 69.5759 606.828 85.0461C609.029 100.516 612.508 116.44 597.837 128.224C582.53 140.525 544.705 147.522 482.576 142.034C426.019 137.039 356.366 122.434 316.356 127.735C283.325 132.113 294.021 148.641 328.038 165.28C374.472 187.981 453.871 199.201 507.122 220.187Z" stroke="white" stroke-opacity="0.32" stroke-width="0.122" stroke-miterlimit="10"/>
<path d="M506.102 217.182C549.138 235.222 546.43 251.042 539.003 263.507C531.576 275.971 525.465 290.802 564.935 309.018C609.551 329.609 695.224 343.642 737.191 339.939C779.159 336.235 783.576 319.333 766.635 300.548C755.912 288.64 737.698 275.823 724.985 263.669C712.273 251.515 705.202 239.595 717.359 232.411C729.516 225.227 765.135 224.013 806.418 232.367C871.524 245.541 917.904 274.26 982.843 286.222C1013.54 291.878 1040.12 291.925 1056.2 288.75C1072.27 285.576 1079.57 279.595 1086.66 273.706C1097 265.113 1107.4 256.235 1101.22 244.116C1095.04 231.997 1068.35 215.727 1025.71 203.683C986.597 192.633 944.446 187.714 904.895 182.571C865.343 177.428 819.239 169.97 785.798 157.344C745.282 142.051 744.737 126.647 767.681 120.444C790.626 114.241 830.576 114.343 863.348 111.753C896.119 109.163 923.217 102.547 911.777 88.3688C897.64 70.852 824.94 48.0214 765.243 39.7616C705.547 31.5018 661.292 35.5357 640.478 45.5243C619.664 55.5129 618.645 70.7036 619.174 85.8751C619.702 101.047 621.439 116.698 605.69 128.082C589.228 139.957 551.052 146.4 490.164 140.336C434.734 134.816 367.362 119.73 327.218 124.485C294.063 128.409 302.887 144.721 334.769 161.396C378.284 184.155 455.65 196.029 506.102 217.182Z" stroke="white" stroke-opacity="0.32" stroke-width="0.121" stroke-miterlimit="10"/>
<path d="M505.419 214.224C546.07 232.377 541.707 247.848 533.034 259.976C524.361 272.104 516.724 286.57 553.837 304.855C595.789 325.524 679.06 340.222 720.98 337.06C762.899 333.897 769.069 317.379 754.323 298.79C744.976 287.008 728.32 274.243 717.037 262.187C705.754 250.131 700.031 238.382 712.835 231.476C725.64 224.569 761.006 223.776 800.956 232.419C863.975 246.048 906.8 274.699 969.776 287.141C999.549 293.021 1025.87 293.363 1042.05 290.429C1058.23 287.496 1066.16 281.717 1073.8 276.026C1084.95 267.723 1096.19 259.138 1091.35 247.195C1086.5 235.253 1061.86 219.016 1020.96 206.743C983.427 195.482 942.247 190.196 903.677 184.719C865.108 179.243 820.271 171.423 788.524 158.684C750.067 143.249 751.168 128.151 774.533 122.327C797.898 116.503 837.422 117.047 870.124 114.872C902.825 112.698 930.349 106.515 920.538 92.4959C908.424 75.1782 838.911 52.0018 780.735 43.2513C722.56 34.5008 678.327 37.9602 656.682 47.5105C635.038 57.0608 632.411 71.9389 631.295 86.8101C630.178 101.681 630.248 117.036 613.426 128.022C595.87 139.483 557.408 145.366 497.803 138.749C443.549 132.726 378.496 117.202 338.265 121.412C305.035 124.889 312.025 140.97 341.798 157.661C382.466 180.45 457.75 192.946 505.419 214.224Z" stroke="white" stroke-opacity="0.32" stroke-width="0.119" stroke-miterlimit="10"/>
<path d="M505.05 211.319C543.345 229.556 537.374 244.673 527.498 256.455C517.623 268.237 508.518 282.329 543.291 300.658C582.594 321.374 663.423 336.697 705.245 334.062C747.067 331.427 754.925 315.313 742.315 296.937C734.327 285.289 719.209 272.597 709.333 260.66C699.457 248.723 695.045 237.147 708.448 230.521C721.852 223.896 756.932 223.512 795.544 232.421C856.444 246.475 895.763 275.03 956.759 287.909C985.588 294 1011.57 294.627 1027.96 291.925C1044.34 289.224 1052.77 283.657 1060.91 278.165C1072.82 270.153 1084.87 261.865 1081.35 250.111C1077.84 238.357 1055.18 222.171 1016.01 209.695C980.087 198.247 939.904 192.612 902.322 186.819C864.739 181.027 821.207 172.867 791.154 160.034C754.747 144.492 757.449 129.704 781.192 124.256C804.935 118.808 843.985 119.779 876.573 118.01C909.161 116.241 937.057 110.49 928.848 96.646C918.708 79.5431 852.398 56.0646 795.771 46.8426C739.143 37.6206 694.997 40.5246 672.549 49.6366C650.1 58.7486 645.904 73.3037 643.229 87.8623C640.554 102.421 638.968 117.465 621.153 128.035C602.561 139.07 563.873 144.408 505.6 137.264C452.554 130.763 389.843 114.832 349.585 118.511C316.338 121.549 321.538 137.383 349.213 154.066C386.989 176.864 460.159 189.936 505.05 211.319Z" stroke="white" stroke-opacity="0.32" stroke-width="0.117" stroke-miterlimit="10"/>
<path d="M505.002 208.468C540.945 226.76 533.427 241.501 522.397 252.942C511.367 264.384 500.855 278.088 533.303 296.424C569.979 317.157 648.332 333.068 689.992 330.949C731.652 328.831 741.151 313.137 730.639 294.976C723.972 283.475 710.369 270.878 701.869 259.068C693.369 247.258 690.246 235.871 704.21 229.528C718.174 223.186 752.936 223.198 790.195 232.355C848.953 246.799 884.815 275.203 943.788 288.506C971.668 294.793 997.304 295.696 1013.8 293.237C1030.29 290.778 1039.2 285.41 1047.87 280.121C1060.52 272.401 1073.32 264.415 1071.09 252.858C1068.87 241.301 1048.17 225.197 1010.76 212.537C976.425 200.921 937.262 194.956 900.726 188.863C864.19 182.77 821.952 174.296 793.587 161.387C759.219 145.75 763.475 131.298 787.546 126.223C811.618 121.148 850.155 122.531 882.593 121.159C915.03 119.786 943.238 114.462 936.593 100.804C928.39 83.9354 865.284 60.1985 810.232 50.5347C755.179 40.8709 711.194 43.2266 688.007 51.9125C664.82 60.5984 659.114 74.8042 654.912 89.0397C650.711 103.275 647.539 117.998 628.786 128.156C609.207 138.761 570.357 143.563 513.459 135.918C461.681 128.959 401.31 112.656 361.085 115.815C327.86 118.424 331.317 133.995 356.921 150.65C391.844 173.403 462.862 187.022 505.002 208.468Z" stroke="white" stroke-opacity="0.32" stroke-width="0.115" stroke-miterlimit="10"/>
<path d="M505.255 205.676C538.868 223.996 529.855 238.354 517.72 249.443C505.584 260.532 493.724 273.838 523.874 292.169C557.956 312.89 633.78 329.347 675.229 327.731C716.679 326.116 727.758 310.838 719.29 292.944C713.923 281.593 701.809 269.104 694.657 257.442C687.505 245.781 685.628 234.586 700.126 228.524C714.624 222.463 749.014 222.861 784.903 232.247C841.504 247.051 873.957 275.279 930.892 288.966C957.806 295.436 983.081 296.602 999.661 294.379C1016.24 292.156 1025.64 286.993 1034.77 281.906C1048.11 274.483 1061.63 266.801 1060.66 255.452C1059.69 244.103 1040.94 228.097 1005.26 215.277C972.53 203.516 934.419 197.235 898.886 190.861C863.353 184.487 822.497 175.716 795.804 162.746C763.469 147.044 769.218 132.931 793.581 128.226C817.944 123.522 855.926 125.303 888.169 124.318C920.412 123.333 948.896 118.426 943.777 104.973C937.456 88.3538 877.549 64.3968 824.104 54.3191C770.658 44.2415 726.889 46.0611 703.017 54.3191C679.145 62.5772 671.988 76.4286 666.341 90.3288C660.694 104.229 655.953 118.618 636.309 128.366C615.813 138.541 576.85 142.814 521.366 134.694C470.86 127.304 412.879 110.661 372.74 113.31C339.585 115.499 341.343 130.793 364.903 147.393C397.049 170.07 465.85 184.196 505.255 205.676Z" stroke="white" stroke-opacity="0.32" stroke-width="0.114" stroke-miterlimit="10"/>
<path d="M505.806 202.941C537.089 221.265 526.658 235.231 513.47 245.962C500.283 256.693 487.122 269.599 514.997 287.893C546.511 308.573 619.784 325.537 660.969 324.415C702.155 323.292 714.744 308.443 708.277 290.816C704.178 279.64 693.525 267.265 687.695 255.76C681.864 244.256 681.195 233.265 696.19 227.488C711.184 221.712 745.169 222.48 779.677 232.074C834.109 247.204 863.203 275.222 918.083 289.264C944.02 295.9 968.907 297.323 985.551 295.327C1002.2 293.331 1012.04 288.375 1021.63 283.493C1035.62 276.368 1049.82 268.999 1050.06 257.861C1050.31 246.723 1033.47 230.839 999.537 217.884C968.405 205.997 931.362 199.422 896.886 192.783C862.41 186.144 822.912 177.097 797.886 164.103C767.563 148.358 774.764 134.591 799.369 130.253C823.975 125.915 861.396 128.081 893.38 127.473C925.364 126.865 954.101 122.374 950.471 109.137C945.989 92.7835 889.265 68.6467 837.459 58.1796C785.653 47.7125 742.149 49.0118 717.645 56.835C693.142 64.6583 684.577 78.1534 677.484 91.7114C670.392 105.269 664.184 119.314 643.704 128.648C622.335 138.389 583.334 142.145 529.301 133.574C480.111 125.772 424.514 108.823 384.515 110.976C351.473 112.752 351.581 127.758 373.118 144.284C402.535 166.851 469.108 181.459 505.806 202.941Z" stroke="white" stroke-opacity="0.32" stroke-width="0.112" stroke-miterlimit="10"/>
<path d="M506.649 200.27C535.667 218.569 523.833 232.139 509.637 242.505C495.441 252.87 481.051 265.381 506.676 283.606C535.645 304.212 606.339 321.65 647.212 321.006C688.085 320.362 702.13 305.953 697.61 288.611C694.746 277.618 685.523 265.372 680.981 254.035C676.44 242.698 676.958 231.922 692.41 226.429C707.863 220.935 741.411 222.063 774.533 231.842C826.771 247.268 852.574 275.043 905.377 289.409C930.339 296.199 954.809 297.868 971.487 296.097C988.164 294.327 998.454 289.58 1008.45 284.902C1023.05 278.076 1037.89 271.004 1039.33 260.105C1040.76 249.207 1025.78 233.445 993.595 220.374C964.06 208.384 928.106 201.532 894.698 194.645C861.29 187.758 823.178 178.455 799.802 165.446C771.481 149.684 780.067 136.283 804.883 132.298C829.699 128.313 866.467 130.856 898.193 130.615C929.918 130.374 958.817 126.291 956.638 113.28C953.941 97.214 900.399 72.9305 850.254 62.1019C800.11 51.2733 756.945 52.0627 731.843 59.4563C706.741 66.85 696.849 79.9784 688.376 93.1819C679.903 106.385 672.271 120.074 651.014 128.998C628.825 138.307 589.835 141.555 537.285 132.558C489.444 124.37 436.241 107.147 396.431 108.809C363.53 110.183 362.052 124.887 381.604 141.318C408.313 163.764 472.621 178.813 506.649 200.27Z" stroke="white" stroke-opacity="0.32" stroke-width="0.11" stroke-miterlimit="10"/>
<path d="M507.756 197.661C534.52 215.913 521.359 229.078 506.208 239.077C491.058 249.076 475.465 261.165 498.889 279.316C525.356 299.831 593.45 317.693 633.961 317.515C674.473 317.337 689.904 303.371 687.288 286.334C685.627 275.532 677.806 263.43 674.521 252.271C671.237 241.113 672.903 230.562 688.777 225.349C704.65 220.137 737.724 221.618 769.454 231.568C819.502 247.263 842.068 274.762 892.784 289.421C916.754 296.352 940.788 298.259 957.508 296.707C974.228 295.154 984.875 290.621 995.263 286.147C1010.44 279.621 1025.88 272.858 1028.46 262.192C1031.04 251.526 1017.91 235.921 987.469 222.758C959.525 210.682 924.682 203.57 892.358 196.452C860.034 189.334 823.32 179.798 801.573 166.794C775.231 151.035 785.16 137.996 810.138 134.371C835.116 130.746 871.232 133.639 902.66 133.756C934.089 133.873 963.106 130.19 962.341 117.418C961.397 101.641 910.999 77.2542 862.559 66.0956C814.119 54.937 771.277 55.2251 745.674 62.1909C720.07 69.1567 708.857 81.9115 699.068 94.7552C689.278 107.599 680.26 120.932 658.27 129.434C635.321 138.307 596.395 141.059 545.355 131.662C498.889 123.106 448.087 105.643 408.514 106.836C375.834 107.817 372.787 122.203 390.375 138.523C414.35 160.802 476.376 176.26 507.756 197.661Z" stroke="white" stroke-opacity="0.32" stroke-width="0.109" stroke-miterlimit="10"/>
<path d="M509.139 195.114C533.669 213.293 519.246 226.046 503.206 235.676C487.165 245.307 470.434 256.981 491.669 275.021C515.67 295.414 581.138 313.671 621.245 313.945C661.352 314.219 678.115 300.712 677.338 283.985C676.848 273.383 670.402 261.439 668.347 250.469C666.292 239.499 669.054 229.18 685.321 224.249C701.588 219.317 734.155 221.135 764.494 231.234C812.335 247.165 831.73 274.366 880.348 289.285C903.331 296.34 926.912 298.475 943.594 297.143C960.276 295.81 971.322 291.483 982.094 287.215C997.811 280.988 1013.8 274.532 1017.5 264.111C1021.19 253.689 1009.86 238.254 981.128 225.02C954.764 212.879 921.049 205.525 889.825 198.193C858.602 190.86 823.284 181.111 803.155 168.126C778.776 152.395 789.989 139.73 815.091 136.454C840.193 133.178 875.618 136.413 906.707 136.876C937.796 137.339 966.9 134.053 967.509 121.53C968.254 106.06 920.989 81.6158 874.2 70.1393C827.41 58.6629 785.038 58.4779 758.96 65.0193C732.882 71.5608 720.423 83.9331 709.366 96.4083C698.309 108.884 687.964 121.848 665.3 129.937C641.643 138.376 602.831 140.641 553.329 130.869C508.27 121.974 459.863 104.3 420.581 105.024C388.139 105.625 383.581 119.693 399.244 135.87C420.646 157.968 480.375 173.801 509.139 195.114Z" stroke="white" stroke-opacity="0.32" stroke-width="0.107" stroke-miterlimit="10"/>
<path d="M510.773 192.637C533.108 210.721 517.477 223.057 500.552 232.313C483.627 241.57 465.855 252.822 484.91 270.731C506.485 290.988 569.32 309.592 608.963 310.307C648.606 311.021 666.643 297.969 667.662 281.572C668.309 271.178 663.207 259.405 662.344 248.634C661.481 237.863 665.316 227.782 681.939 223.139C698.562 218.495 730.595 220.627 759.531 230.861C805.172 247.001 821.461 273.859 867.975 289.022C889.965 296.19 913.066 298.542 929.721 297.419C946.377 296.296 957.768 292.181 968.873 288.119C985.092 282.192 1001.61 276.043 1006.38 265.873C1011.14 255.703 1001.57 240.455 974.553 227.169C949.742 214.982 917.186 207.401 887.074 199.871C856.961 192.342 823.057 182.398 804.552 169.453C782.103 153.77 794.557 141.483 819.745 138.544C844.934 135.606 879.641 139.177 910.358 139.973C941.075 140.769 970.227 137.877 972.158 125.61C974.548 110.461 930.385 85.9855 885.321 74.2245C840.257 62.4634 798.338 61.8103 771.834 67.9379C745.33 74.0656 731.684 86.0414 719.414 98.1482C707.143 110.255 695.52 122.837 672.23 130.51C647.927 138.517 609.276 140.305 561.338 130.183C517.698 120.968 471.685 103.116 432.738 103.392C400.57 103.623 394.567 117.354 408.337 133.379C427.177 155.261 484.587 171.435 510.773 192.637Z" stroke="white" stroke-opacity="0.32" stroke-width="0.105" stroke-miterlimit="10"/>
<path d="M512.662 190.229C532.834 208.194 516.049 220.105 498.315 228.996C480.581 237.886 461.795 248.706 478.769 266.469C497.954 286.551 558.141 305.48 597.298 306.617C636.456 307.754 655.695 295.168 658.451 279.115C660.199 268.938 656.407 257.346 656.704 246.783C657 236.22 661.871 226.385 678.817 222.012C695.764 217.64 727.231 220.092 754.776 230.438C798.216 246.759 811.462 273.255 855.873 288.627C876.86 295.891 899.47 298.453 916.072 297.533C932.673 296.613 944.377 292.71 955.806 288.854C972.483 283.226 989.484 277.385 995.287 267.473C1001.09 257.561 993.248 242.514 967.931 229.198C944.69 216.981 913.267 209.186 884.282 201.482C855.296 193.777 822.794 183.652 805.848 170.763C785.309 155.15 798.944 143.249 824.186 140.656C849.428 138.063 883.386 141.938 913.72 143.059C944.054 144.18 973.179 141.662 976.399 129.672C980.385 114.855 939.302 90.381 895.98 78.3615C852.659 66.3419 811.241 65.2348 784.333 70.9381C757.424 76.6414 742.678 88.2261 729.242 99.954C715.807 111.682 702.965 123.878 679.082 131.137C654.174 138.714 615.739 140.043 569.387 129.588C527.187 120.076 483.563 102.074 444.994 101.915C413.171 101.784 405.734 115.171 417.653 131.027C433.915 152.681 489.011 169.164 512.662 190.229Z" stroke="white" stroke-opacity="0.32" stroke-width="0.104" stroke-miterlimit="10"/>
<path d="M514.782 187.882C532.824 205.707 514.938 217.193 496.444 225.7C477.949 234.208 458.198 244.607 473.1 262.197C489.939 282.082 547.473 301.3 586.102 302.848C624.731 304.397 645.102 292.277 649.547 276.578C652.362 266.624 649.849 255.226 651.262 244.88C652.675 234.533 658.554 224.951 675.786 220.856C693.019 216.761 723.898 219.51 750.046 229.953C791.285 246.423 801.571 272.532 843.894 288.084C863.889 295.436 885.965 298.196 902.507 297.482C919.049 296.768 931.034 293.071 942.754 289.42C959.857 284.09 977.273 278.555 984.096 268.908C990.919 259.262 984.748 244.431 961.119 231.103C939.437 218.88 909.173 210.899 881.294 203.022C853.414 195.144 822.363 184.871 806.965 172.055C788.308 156.529 803.065 145.02 828.312 142.76C853.56 140.5 886.752 144.681 916.616 146.106C946.481 147.531 975.601 145.407 980.072 133.683C985.595 119.21 947.554 94.7798 905.975 82.5175C864.396 70.2553 823.523 68.7221 796.318 74.008C769.112 79.2939 753.25 90.491 738.703 101.826C724.156 113.161 710.149 124.976 685.765 131.825C660.312 138.972 622.12 139.844 577.391 129.092C536.648 119.304 495.408 101.183 457.259 100.6C425.755 100.118 416.996 113.152 427.093 128.82C440.884 150.227 493.628 166.988 514.782 187.882Z" stroke="white" stroke-opacity="0.32" stroke-width="0.102" stroke-miterlimit="10"/>
<path d="M517.128 185.611C533.076 203.277 514.161 214.334 494.949 222.457C475.737 230.581 455.09 240.557 467.981 257.959C482.544 277.629 537.397 297.094 575.459 299.042C613.522 300.989 634.967 289.338 641.04 274.004C644.886 264.286 643.618 253.087 646.121 242.966C648.624 232.844 655.463 223.521 672.954 219.698C690.446 215.876 720.698 218.913 745.46 229.434C784.51 246.023 791.899 271.723 832.093 287.431C851.094 294.856 872.669 297.805 889.092 297.288C905.516 296.771 917.786 293.282 929.776 289.833C947.268 284.802 965.115 279.572 972.877 270.195C980.638 260.818 976.113 246.221 954.172 232.9C934.021 220.676 904.923 212.528 878.192 204.502C851.461 196.477 821.818 186.065 807.945 173.337C791.144 157.917 806.975 146.806 832.217 144.873C857.459 142.94 889.837 147.394 919.237 149.13C948.638 150.866 977.677 149.092 983.351 137.661C990.363 123.542 955.304 99.1837 915.489 86.7101C875.673 74.2366 835.377 72.2755 807.892 77.1581C780.406 82.0406 763.518 92.8308 747.92 103.776C732.322 114.722 717.176 126.142 692.333 132.581C666.379 139.302 628.522 139.741 585.384 128.704C546.118 118.663 507.241 100.451 469.556 99.4578C438.435 98.6353 428.376 111.31 436.698 126.773C448.025 147.892 498.428 164.906 517.128 185.611Z" stroke="white" stroke-opacity="0.32" stroke-width="0.101" stroke-miterlimit="10"/>
<path d="M519.671 183.421C533.565 200.907 513.668 211.536 493.782 219.283C473.896 227.029 452.407 236.571 463.281 253.77C475.573 273.202 527.799 292.886 565.22 295.212C602.641 297.538 625.143 286.363 632.786 271.407C637.64 261.926 637.57 250.941 641.13 241.052C644.69 231.162 652.456 222.105 670.158 218.553C687.86 215.001 717.487 218.31 740.863 228.894C777.734 245.587 782.302 270.843 820.403 286.68C838.412 294.164 859.441 297.293 875.746 296.969C892.051 296.644 904.57 293.361 916.797 290.114C934.644 285.379 952.864 280.452 961.564 271.351C970.264 262.249 967.346 247.897 947.034 234.603C928.404 222.407 900.481 214.096 874.889 205.936C849.296 197.776 821.071 187.251 808.709 174.624C793.726 159.33 810.575 148.617 835.742 147C860.909 145.383 892.488 150.108 921.392 152.134C950.297 154.159 979.223 152.743 986.056 141.607C994.497 127.852 962.432 103.596 924.348 90.9342C886.264 78.2721 846.615 75.9041 818.903 80.3833C791.191 84.8624 773.322 95.2475 756.715 105.798C740.108 116.349 723.927 127.373 698.642 133.407C672.245 139.704 634.733 139.707 593.229 128.423C555.447 118.15 518.921 99.8751 481.743 98.4833C451.032 97.3342 439.727 109.64 446.313 124.883C455.342 145.7 503.399 162.92 519.671 183.421Z" stroke="white" stroke-opacity="0.32" stroke-width="0.099" stroke-miterlimit="10"/>
<path d="M522.466 181.296C534.332 198.584 513.529 208.77 493.033 216.148C472.537 223.526 450.251 232.634 459.177 249.599C469.263 268.775 518.836 288.637 555.647 291.335C592.459 294.033 615.883 283.328 625.042 268.759C630.85 259.525 631.956 248.761 636.535 239.111C641.114 229.461 649.76 220.671 667.662 217.386C685.563 214.101 714.521 217.674 736.522 228.303C771.224 245.068 773.048 269.865 809.055 285.801C826.077 293.334 846.552 296.628 862.722 296.497C878.892 296.366 891.626 293.28 904.074 290.236C922.235 285.794 940.794 281.168 950.352 272.346C959.909 263.524 958.571 249.43 939.899 236.179C922.763 224.023 896.022 215.573 871.567 207.294C847.113 199.015 820.328 188.386 809.422 175.881C796.229 160.728 814.05 150.42 839.119 149.114C864.189 147.808 894.943 152.781 923.324 155.093C951.705 157.405 980.496 156.331 988.436 145.489C998.257 132.104 969.116 107.984 932.779 95.1564C896.442 82.3283 857.468 79.5692 829.567 83.6502C801.666 87.7312 782.88 97.7094 765.324 107.862C747.768 118.015 730.573 128.643 704.915 134.269C678.125 140.149 641.012 139.737 601.148 128.218C564.854 117.741 530.664 99.4242 494.02 97.65C463.762 96.1831 451.259 108.115 456.146 123.123C462.818 143.624 508.534 161.029 522.466 181.296Z" stroke="white" stroke-opacity="0.32" stroke-width="0.098" stroke-miterlimit="10"/>
<path d="M525.439 179.247C535.352 196.315 513.659 206.066 492.597 213.066C471.535 220.067 448.478 228.744 455.522 245.467C463.456 264.368 510.391 284.379 546.528 287.427C582.665 290.476 606.985 280.25 617.6 266.078C624.331 257.093 626.58 246.558 632.162 237.154C637.745 227.751 647.216 219.234 665.279 216.215C683.342 213.196 711.615 217.015 732.251 227.672C764.796 244.482 763.96 268.798 797.886 284.813C813.921 292.383 833.835 295.841 849.848 295.886C865.862 295.932 878.79 293.056 891.433 290.211C909.879 286.058 928.735 281.733 939.134 273.195C949.533 264.658 949.716 250.833 932.662 237.643C917.02 225.543 891.444 216.966 868.127 208.584C844.811 200.202 819.428 189.49 809.99 177.116C798.555 162.126 817.287 152.221 842.233 151.221C867.178 150.22 897.075 155.438 924.917 158.012C952.758 160.586 981.339 159.858 990.363 149.33C1001.51 136.324 975.26 112.368 940.671 99.3971C906.082 86.4258 867.815 83.2896 839.768 86.9794C811.721 90.6693 792.051 100.237 773.583 109.999C755.115 119.76 736.982 129.969 710.984 135.202C683.849 140.666 647.167 139.851 608.948 128.125C574.159 117.45 542.283 99.1369 506.216 96.9873C476.427 95.2148 462.787 106.766 466.018 121.526C470.44 141.674 513.816 159.243 525.439 179.247Z" stroke="white" stroke-opacity="0.32" stroke-width="0.096" stroke-miterlimit="10"/>
<path d="M528.6 177.269C536.588 194.103 514.08 203.418 492.463 210.043C470.845 216.668 447.156 224.916 452.323 241.378C458.159 259.984 502.484 280.11 537.893 283.498C573.302 286.886 598.479 277.136 610.502 263.367C618.117 254.636 621.467 244.341 627.972 235.189C634.476 226.037 644.778 217.796 662.976 215.039C681.174 212.282 708.741 216.337 728.023 227.008C758.432 243.838 754.991 267.654 786.867 283.721C801.932 291.316 821.262 294.925 837.103 295.145C852.944 295.365 866.045 292.701 878.855 290.046C897.555 286.182 916.67 282.151 927.872 273.902C939.075 265.653 940.731 252.109 925.251 238.998C911.05 226.968 886.676 218.282 864.498 209.809C842.319 201.336 818.35 190.562 810.33 178.334C800.621 163.519 820.205 154.023 845 153.319C869.794 152.616 898.812 158.059 926.087 160.889C953.363 163.72 981.722 163.322 991.776 153.106C1004.18 140.488 980.762 116.726 947.931 103.633C915.1 90.5395 877.555 87.0434 849.412 90.3491C821.268 93.6547 800.804 102.81 781.495 112.163C762.186 121.516 743.152 131.325 716.869 136.164C689.437 141.216 653.224 140.006 616.661 128.1C583.377 117.255 553.788 98.9529 518.33 96.4523C489.043 94.3865 474.313 105.554 475.937 120.05C478.186 139.847 519.231 157.533 528.6 177.269Z" stroke="white" stroke-opacity="0.32" stroke-width="0.095" stroke-miterlimit="10"/>
<path d="M531.933 175.368C538.044 191.957 514.781 200.827 492.711 207.08C470.64 213.333 446.293 221.151 449.643 237.338C453.418 255.631 495.122 275.843 529.819 279.553C564.516 283.264 590.448 273.992 603.814 260.634C612.287 252.167 616.699 242.124 624.11 233.218C631.521 224.312 642.594 216.363 660.9 213.863C679.206 211.362 706.039 215.64 724.005 226.31C752.3 243.137 746.367 266.434 776.183 282.529C790.271 290.136 809.014 293.88 824.666 294.28C840.318 294.679 853.565 292.196 866.526 289.739C885.441 286.161 904.788 282.424 916.751 274.465C928.714 266.505 931.799 253.255 917.878 240.238C905.112 228.294 881.919 219.513 860.884 210.967C839.849 202.421 817.271 191.598 810.642 179.535C802.606 164.911 823.01 155.824 847.616 155.408C872.221 154.993 900.36 160.647 927.047 163.724C953.735 166.801 981.836 166.724 992.85 156.826C1006.48 144.602 985.838 121.059 954.749 107.866C923.66 94.6732 886.887 90.8332 858.683 93.7599C830.48 96.6867 809.251 105.432 789.154 114.382C769.058 123.331 749.166 132.731 722.64 137.182C694.955 141.828 659.255 140.245 624.347 128.168C592.574 117.176 565.25 98.9149 530.428 96.072C501.67 93.7233 485.899 104.503 485.958 118.725C486.044 138.145 524.776 155.925 531.933 175.368Z" stroke="white" stroke-opacity="0.32" stroke-width="0.094" stroke-miterlimit="10"/>
<path d="M535.437 173.543C539.714 189.856 515.745 198.296 493.237 204.178C470.73 210.059 445.811 217.449 447.392 233.34C449.188 251.307 488.286 271.571 522.217 275.6C556.149 279.628 582.809 270.822 597.458 257.882C606.741 249.675 612.177 239.88 620.462 231.246C628.747 222.613 640.553 214.938 658.935 212.691C677.316 210.443 703.41 214.933 720.022 225.585C746.23 242.386 737.87 265.146 765.652 281.245C778.786 288.855 796.935 292.737 812.377 293.294C827.819 293.851 841.195 291.574 854.28 289.315C873.379 286.018 892.92 282.571 905.606 274.906C918.292 267.242 922.763 254.29 910.379 241.378C899.02 229.533 877.009 220.673 857.101 212.067C837.193 203.462 816.018 192.605 810.716 180.706C804.33 166.289 825.484 157.612 849.879 157.481C874.274 157.35 901.512 163.2 927.585 166.509C953.657 169.818 981.483 170.054 993.457 160.479C1008.26 148.65 990.339 125.357 960.982 112.087C931.625 98.8169 895.649 94.645 867.43 97.1998C839.21 99.7546 817.269 108.088 796.428 116.634C775.587 125.18 754.898 134.17 728.183 138.237C700.293 142.484 665.137 140.539 631.885 128.318C601.617 117.194 576.526 99.0019 542.352 95.829C514.149 93.2096 497.396 103.596 495.967 117.532C494.003 136.561 530.426 154.414 535.437 173.543Z" stroke="white" stroke-opacity="0.32" stroke-width="0.092" stroke-miterlimit="10"/>
<path d="M539.09 171.792C541.582 187.824 516.977 195.827 494.07 201.342C471.163 206.857 445.716 213.821 445.592 229.413C445.452 247.038 481.977 267.324 515.127 271.639C548.276 275.954 575.589 267.623 591.462 255.113C601.527 247.18 607.951 237.638 617.071 229.268C626.192 220.898 638.694 213.51 657.119 211.512C675.543 209.514 700.888 214.203 716.189 224.824C740.326 241.574 729.63 263.783 755.401 279.864C767.58 287.466 785.125 291.472 800.346 292.189C815.567 292.907 829.045 290.824 842.233 288.755C861.483 285.735 881.185 282.575 894.551 275.205C907.916 267.836 913.725 255.197 902.846 242.411C892.873 230.681 872.038 221.754 853.263 213.101C834.488 204.449 814.682 193.578 810.739 181.861C805.955 167.665 827.816 159.397 851.963 159.535C876.11 159.673 902.447 165.711 927.894 169.24C953.341 172.77 980.843 173.313 993.696 164.065C1009.6 152.639 994.354 129.616 966.728 116.289C939.102 102.961 903.946 98.4767 875.749 100.667C847.551 102.856 824.957 110.779 803.42 118.922C781.884 127.065 760.46 135.644 733.584 139.332C705.537 143.185 670.959 140.888 639.358 128.547C610.593 117.314 587.708 99.2101 554.257 95.7176C526.626 92.838 508.951 102.83 506.011 116.467C502.047 135.099 536.183 152.995 539.09 171.792Z" stroke="white" stroke-opacity="0.32" stroke-width="0.091" stroke-miterlimit="10"/>
<path d="M542.914 170.117C543.663 185.853 518.454 193.423 495.207 198.571C471.961 203.719 446.033 210.262 444.248 225.538C442.226 242.805 476.2 263.083 508.54 267.682C540.88 272.282 568.797 264.424 585.841 252.336C596.628 244.674 604.023 235.398 613.937 227.298C623.85 219.199 637.016 212.106 655.467 210.346C673.919 208.585 698.492 213.466 712.505 224.042C734.619 240.722 721.642 262.363 745.406 278.406C756.646 285.99 773.577 290.106 788.555 290.979C803.533 291.852 817.103 289.959 830.371 288.079C849.74 285.334 869.577 282.456 883.59 275.382C897.603 268.308 904.701 255.989 895.305 243.341C886.675 231.739 867.026 222.763 849.368 214.076C831.709 205.388 813.279 194.518 810.625 182.992C807.389 169.031 829.918 161.164 853.801 161.574C877.684 161.985 903.093 168.184 927.899 171.924C952.704 175.665 979.855 176.501 993.582 167.582C1010.54 156.563 997.897 133.837 972.008 120.473C946.118 107.108 911.782 102.325 883.655 104.159C855.527 105.993 832.313 113.505 810.134 121.244C787.956 128.984 765.837 137.153 738.852 140.469C710.687 143.932 676.718 141.299 646.767 128.858C619.503 117.532 598.791 99.5402 566.063 95.7543C539.03 92.6267 520.46 102.215 516.107 115.55C510.164 133.756 542.034 151.668 542.914 170.117Z" stroke="white" stroke-opacity="0.32" stroke-width="0.09" stroke-miterlimit="10"/>
<path d="M546.861 168.519C545.928 183.945 520.174 191.082 496.62 195.869C473.066 200.655 446.718 206.779 443.32 221.727C439.475 238.622 470.93 258.87 502.439 263.732C533.949 268.594 562.411 261.205 580.566 249.551C592.076 242.164 600.366 233.155 611.04 225.332C621.714 217.508 635.494 210.695 653.935 209.181C672.376 207.667 696.172 212.715 708.907 223.233C728.987 239.822 713.858 260.88 735.681 276.862C745.993 284.416 762.309 288.641 777.044 289.66C791.78 290.68 805.393 288.976 818.731 287.28C838.186 284.806 858.105 282.206 872.743 275.43C887.381 268.655 895.704 256.663 887.754 244.172C880.461 232.708 861.967 223.695 845.424 214.99C828.882 206.285 811.801 195.432 810.404 184.108C808.71 170.393 831.822 162.941 855.413 163.601C879.005 164.262 903.481 170.623 927.623 174.564C951.765 178.506 978.549 179.629 993.085 171.035C1011.04 160.427 1000.97 138.02 976.748 124.639C952.525 111.257 919.096 106.191 891.06 107.676C863.024 109.16 839.281 116.264 816.493 123.602C793.705 130.939 770.966 138.698 743.911 141.649C715.67 144.73 682.338 141.773 654.027 129.251C628.262 117.853 609.686 99.9956 577.702 95.9233C551.273 92.56 531.894 101.754 526.166 114.765C518.34 132.525 547.962 150.433 546.861 168.519Z" stroke="white" stroke-opacity="0.32" stroke-width="0.088" stroke-miterlimit="10"/>
<path d="M550.956 166.996C548.383 182.1 522.138 188.807 498.325 193.237C474.512 197.668 447.782 203.366 442.825 217.982C437.221 234.495 466.179 254.681 496.842 259.794C527.505 264.907 556.452 257.983 575.659 246.766C587.832 239.655 597.001 230.92 608.398 223.366C619.795 215.811 634.158 209.296 652.566 208.016C670.975 206.736 693.984 211.947 705.461 222.393C723.557 238.869 706.341 259.335 726.232 275.237C735.628 282.745 751.318 287.071 765.794 288.234C780.271 289.397 793.922 287.885 807.293 286.364C826.812 284.155 846.812 281.823 862.005 275.352C877.199 268.88 886.724 257.219 880.198 244.887C874.206 233.572 856.865 224.537 841.423 215.824C825.981 207.11 810.243 196.286 810.065 185.178C809.855 171.722 833.522 164.677 856.795 165.584C880.069 166.49 903.606 172.996 927.079 177.125C950.552 181.253 976.927 182.646 992.223 174.393C1011.1 164.199 1003.55 142.133 981.01 128.753C958.47 115.373 925.93 110.04 898.035 111.184C870.139 112.328 845.868 119.025 822.551 125.963C799.235 132.901 775.891 140.249 748.804 142.84C720.531 145.545 687.857 142.28 661.191 129.698C636.919 118.244 620.437 100.535 589.224 96.1976C563.448 92.6091 543.27 101.403 536.215 114.086C526.561 131.418 553.96 149.289 550.956 166.996Z" stroke="white" stroke-opacity="0.32" stroke-width="0.087" stroke-miterlimit="10"/>
<path d="M555.142 165.55C550.983 180.32 524.295 186.601 500.262 190.677C476.228 194.753 449.168 200.051 442.701 214.308C435.393 230.424 461.897 250.525 491.686 255.869C521.475 261.212 550.864 254.754 571.069 243.976C583.873 237.145 593.879 228.688 605.96 221.42C618.042 214.152 632.928 207.92 651.299 206.87C669.669 205.821 691.864 211.18 702.107 221.539C718.255 237.882 699.038 257.744 717.02 273.544C725.52 281.013 740.585 285.419 754.775 286.716C768.966 288.014 782.644 286.68 796.036 285.345C815.583 283.397 835.625 281.338 851.353 275.161C867.081 268.985 877.744 257.667 872.604 245.513C867.879 234.362 851.687 225.316 837.335 216.607C822.983 207.899 808.571 197.119 809.58 186.235C810.809 173.047 834.978 166.408 857.906 167.55C880.835 168.692 903.439 175.333 926.222 179.637C949.004 183.942 974.958 185.599 990.977 177.681C1010.76 167.902 1005.63 146.198 984.753 132.841C963.88 119.484 932.246 113.894 904.523 114.706C876.8 115.518 852.065 121.812 828.252 128.35C804.44 134.888 780.557 141.831 753.481 144.066C725.218 146.404 693.24 142.844 668.192 130.218C645.387 118.728 630.976 101.2 600.556 96.5973C575.432 92.7957 554.532 101.188 546.194 113.536C534.813 130.429 560.017 148.233 555.142 165.55Z" stroke="white" stroke-opacity="0.32" stroke-width="0.086" stroke-miterlimit="10"/>
<path d="M559.45 164.179C553.76 178.605 526.684 184.464 502.462 188.19C478.239 191.917 450.904 196.808 442.986 210.707C434.033 226.423 458.088 246.404 487.025 251.974C515.962 257.545 545.697 251.538 566.851 241.202C580.248 234.65 591.052 226.474 603.78 219.487C616.509 212.5 631.93 206.564 650.198 205.733C668.466 204.902 689.879 210.405 698.902 220.671C713.141 236.862 692.004 256.111 708.109 271.791C715.725 279.202 730.158 283.685 744.068 285.117C757.978 286.548 771.651 285.389 785.06 284.229C804.606 282.537 824.654 280.737 840.878 274.864C857.102 268.992 868.86 258.016 865.068 246.051C861.584 235.074 846.525 226.032 833.246 217.341C819.967 208.649 806.861 197.927 809.024 187.274C811.645 174.365 836.272 168.127 858.839 169.505C881.406 170.883 903.066 177.634 925.142 182.105C947.218 186.575 972.73 188.485 989.429 180.907C1010.05 171.543 1007.28 150.221 988.054 136.901C968.825 123.58 938.125 117.757 910.601 118.246C883.078 118.735 857.938 124.625 833.678 130.768C809.417 136.911 785.044 143.448 758.011 145.342C729.797 147.319 698.535 143.476 675.095 130.829C653.758 119.318 641.369 101.984 611.758 97.1385C587.303 93.1361 565.729 101.127 556.16 113.136C543.081 129.533 566.122 147.265 559.45 164.179Z" stroke="white" stroke-opacity="0.32" stroke-width="0.084" stroke-miterlimit="10"/>
<path d="M563.858 162.884C556.689 176.955 529.274 182.396 504.911 185.779C480.548 189.161 452.97 193.651 443.656 207.181C433.122 222.473 454.815 242.325 482.824 248.103C510.833 253.881 540.929 248.325 562.951 238.432C576.91 232.161 588.469 224.27 601.785 217.564C615.102 210.859 631.019 205.21 649.184 204.604C667.35 203.998 687.948 209.621 695.785 219.779C708.142 235.802 685.171 254.426 699.437 269.968C706.179 277.314 719.986 281.867 733.594 283.423C747.202 284.979 760.859 283.996 774.235 283.007C793.76 281.565 813.792 280.028 830.469 274.451C847.146 268.873 859.956 258.254 857.48 246.488C855.209 235.692 841.272 226.668 829.072 218.004C816.872 209.341 805.033 198.691 808.312 188.276C812.282 175.658 837.313 169.818 859.497 171.419C881.681 173.021 902.387 179.873 923.762 184.497C945.137 189.121 970.147 191.278 987.499 184.036C1008.9 175.09 1008.44 154.175 990.837 140.904C973.232 127.632 943.47 121.593 916.189 121.766C888.909 121.939 863.397 127.435 838.737 133.183C814.078 138.932 789.262 145.068 762.31 146.629C734.182 148.254 703.66 144.141 681.81 131.491C661.929 119.966 651.52 102.852 622.74 97.7883C598.97 93.5973 576.764 101.187 566.015 112.846C551.361 128.758 572.266 146.387 563.858 162.884Z" stroke="white" stroke-opacity="0.32" stroke-width="0.083" stroke-miterlimit="10"/>
<path d="M568.361 161.663C559.763 175.371 532.056 180.399 507.585 183.444C483.115 186.49 455.354 190.581 444.691 203.734C432.636 218.602 451.983 238.291 479.08 244.263C506.178 250.235 536.549 245.126 559.397 235.675C573.884 229.685 586.16 222.082 600.081 215.661C614.001 209.24 630.322 203.877 648.364 203.486C666.406 203.095 686.184 208.831 692.85 218.871C703.373 234.708 678.655 252.701 691.114 268.087C696.998 275.359 710.175 279.972 723.475 281.647C736.776 283.322 750.389 282.51 763.733 281.691C783.21 280.494 803.193 279.211 820.291 273.929C837.388 268.646 851.196 258.387 850.004 246.83C848.925 236.227 836.078 227.23 824.929 218.607C813.781 209.984 803.204 199.417 807.562 189.249C812.837 176.931 838.23 171.486 860.009 173.3C881.789 175.115 901.54 182.058 922.203 186.827C942.866 191.596 967.401 193.986 985.308 187.08C1007.42 178.553 1009.22 158.048 993.215 144.857C977.212 131.666 948.41 125.413 921.394 125.28C894.377 125.147 868.537 130.248 843.537 135.609C818.538 140.97 793.312 146.706 766.479 147.932C738.47 149.212 708.708 144.845 688.444 132.216C669.992 120.712 661.524 103.824 633.585 98.5306C610.512 94.1649 587.74 101.351 575.874 112.656C559.639 128.088 578.463 145.592 568.361 161.663Z" stroke="white" stroke-opacity="0.32" stroke-width="0.082" stroke-miterlimit="10"/>
<path d="M572.944 160.517C562.977 173.854 535.022 178.471 510.486 181.184C485.951 183.898 458.039 187.6 446.081 200.369C432.565 214.802 449.609 234.307 475.789 240.46C501.97 246.612 532.562 241.94 556.154 232.935C571.127 227.226 584.087 219.913 598.548 213.775C613.008 207.637 629.728 202.566 647.63 202.381C665.531 202.195 684.484 208.038 690.013 217.948C698.734 233.581 672.354 250.937 683.039 266.145C688.087 273.336 700.633 278.002 713.615 279.791C726.597 281.579 740.152 280.934 753.447 280.279C772.864 279.323 792.755 278.285 810.236 273.294C827.717 268.304 842.479 258.409 842.528 247.073C842.576 236.672 830.845 227.715 820.732 219.143C810.619 210.571 801.283 200.109 806.676 190.185C813.213 178.174 838.919 173.122 860.278 175.139C881.637 177.156 900.439 184.181 920.373 189.081C940.308 193.981 964.331 196.59 982.799 190.029C1005.61 181.92 1009.56 161.85 995.129 148.748C980.701 135.645 952.87 129.189 926.15 128.77C899.43 128.351 873.336 133.052 848.007 138.026C822.679 142.999 797.13 148.342 770.447 149.247C742.595 150.19 713.61 145.58 694.91 132.975C677.882 121.501 671.302 104.861 644.21 99.3634C621.848 94.8231 598.537 101.62 585.576 112.563C567.896 127.524 584.632 144.883 572.944 160.517Z" stroke="white" stroke-opacity="0.32" stroke-width="0.081" stroke-miterlimit="10"/>
</g>
</svg>
