<svg width="30" height="30" viewBox="0 0 30 30" fill="none" xmlns="http://www.w3.org/2000/svg">
<path d="M20.9531 16.3279V20.6705H18.4359V16.6181C18.4359 15.6009 18.0718 14.9067 17.1603 14.9067C16.4649 14.9067 16.0503 15.3742 15.8682 15.8276C15.8024 15.9897 15.7848 16.2152 15.7848 16.4407V20.6705H13.2665C13.2665 20.6705 13.3005 13.8084 13.2665 13.0978H15.7848V14.1702L15.7684 14.1949H15.7848V14.1714C16.1196 13.6545 16.7163 12.9192 18.0541 12.9192C19.7103 12.9192 20.9531 14.0022 20.9531 16.3279ZM10.6318 9.44592C9.77084 9.44592 9.20703 10.0121 9.20703 10.7544C9.20703 11.4827 9.7544 12.0641 10.5989 12.0641H10.6154C11.494 12.0641 12.0402 11.4815 12.0402 10.7544C12.0237 10.0121 11.494 9.44592 10.6318 9.44592ZM9.35621 20.6705H11.8746V13.0978H9.35621V20.6705Z" fill="#2D64BC"/>
<path d="M8.0324 5.60323C7.40935 5.60323 6.81182 5.85074 6.37126 6.29131C5.93069 6.73186 5.68319 7.3294 5.68319 7.95244V22.0477C5.68319 22.6707 5.93069 23.2682 6.37126 23.7088C6.81182 24.1494 7.40935 24.3969 8.0324 24.3969H22.1276C22.7506 24.3969 23.3482 24.1494 23.7888 23.7088C24.2294 23.2682 24.4768 22.6707 24.4768 22.0477V7.95244C24.4768 7.3294 24.2294 6.73186 23.7888 6.29131C23.3482 5.85074 22.7506 5.60323 22.1276 5.60323H8.0324ZM8.0324 3.25403H22.1276C23.3738 3.25403 24.5688 3.74904 25.4499 4.63016C26.3311 5.51129 26.826 6.70634 26.826 7.95244V22.0477C26.826 23.2938 26.3311 24.4889 25.4499 25.3699C24.5688 26.2511 23.3738 26.7461 22.1276 26.7461H8.0324C6.7863 26.7461 5.59124 26.2511 4.71011 25.3699C3.829 24.4889 3.33398 23.2938 3.33398 22.0477V7.95244C3.33398 6.70634 3.829 5.51129 4.71011 4.63016C5.59124 3.74904 6.7863 3.25403 8.0324 3.25403Z" fill="#2D64BC"/>
</svg>
