<svg width="32" height="32" viewBox="0 0 32 32" fill="none" xmlns="http://www.w3.org/2000/svg">
<rect width="32" height="32" rx="16" fill="#CC2127"/>
<path d="M15.2178 8.08749C12.6205 8.38456 10.0324 10.5376 9.92556 13.6131C9.85842 15.4909 10.3788 16.8996 12.123 17.2952C12.8799 15.9271 11.8789 15.6253 11.7232 14.6356C11.0838 10.5798 16.289 7.81387 19.0129 10.6455C20.8976 12.6061 19.6569 18.6383 16.6171 18.0113C13.7055 17.4125 18.0424 12.6108 15.7183 11.668C13.8291 10.9019 12.825 14.0118 13.7207 15.5565C13.1958 18.213 12.065 20.7162 12.5228 24.0482C14.0076 22.9443 14.5082 20.8304 14.9187 18.6258C15.6649 19.0902 16.0632 19.5733 17.0154 19.6483C20.5267 19.9267 22.4877 16.0569 22.0085 12.4873C21.5827 9.32269 18.5002 7.71224 15.2178 8.08749Z" fill="white"/>
</svg>
