<svg width="15" height="12" viewBox="0 0 15 12" fill="none" xmlns="http://www.w3.org/2000/svg">
<path fill-rule="evenodd" clip-rule="evenodd" d="M0.833008 5.1356V4.91231C0.833008 2.19932 3.02184 0 5.7219 0H9.27745C11.9775 0 14.1663 2.19932 14.1663 4.91231C14.1663 7.61241 11.9983 9.8037 9.31592 9.82447L7.10643 11.6745C6.20365 12.4305 4.83301 11.7854 4.83301 10.6046V9.77713C2.57148 9.4521 0.833008 7.49784 0.833008 5.1356ZM6.25285 10.6453L8.62552 8.65863C8.75959 8.54638 8.92858 8.4849 9.10309 8.4849H9.27745C11.2411 8.4849 12.833 6.8854 12.833 4.91231C12.833 2.93922 11.2411 1.33972 9.27745 1.33972H5.7219C3.75822 1.33972 2.16634 2.93922 2.16634 4.91231V5.1356C2.16634 6.98536 3.65873 8.4849 5.49967 8.4849C5.81154 8.4849 6.07338 8.70006 6.1462 8.9907C6.15936 9.0432 6.16634 9.09816 6.16634 9.15476V10.6046C6.16634 10.6496 6.21849 10.6741 6.25285 10.6453ZM4.16634 4C4.16634 3.63181 4.46482 3.33333 4.83301 3.33333H10.1663C10.5345 3.33333 10.833 3.63181 10.833 4C10.833 4.36819 10.5345 4.66667 10.1663 4.66667H4.83301C4.46482 4.66667 4.16634 4.36819 4.16634 4ZM4.83301 5.33333C4.46482 5.33333 4.16634 5.63181 4.16634 6C4.16634 6.36819 4.46482 6.66667 4.83301 6.66667H8.16634C8.53453 6.66667 8.83301 6.36819 8.83301 6C8.83301 5.63181 8.53453 5.33333 8.16634 5.33333H4.83301Z" fill="#282828"/>
</svg>
