<svg width="12" height="14" viewBox="0 0 12 14" fill="none" xmlns="http://www.w3.org/2000/svg">
<path fill-rule="evenodd" clip-rule="evenodd" d="M3.33333 0.333374C2.96514 0.333374 2.66667 0.631851 2.66667 1.00004V1.66671H2C0.895431 1.66671 0 2.56214 0 3.66671V5.00004V11.6667C0 12.7713 0.895431 13.6667 2 13.6667H10C11.1046 13.6667 12 12.7713 12 11.6667V5.00004V3.66671C12 2.56214 11.1046 1.66671 10 1.66671H9.33333V1.00004C9.33333 0.631851 9.03486 0.333374 8.66667 0.333374C8.29848 0.333374 8 0.631851 8 1.00004V1.66671H4V1.00004C4 0.631851 3.70152 0.333374 3.33333 0.333374ZM8.66667 3.00004H3.33333H2C1.63181 3.00004 1.33333 3.29852 1.33333 3.66671V4.33337H10.6667V3.66671C10.6667 3.29852 10.3682 3.00004 10 3.00004H8.66667ZM1.33333 11.6667V5.66671H10.6667V11.6667C10.6667 12.0349 10.3682 12.3334 10 12.3334H2C1.63181 12.3334 1.33333 12.0349 1.33333 11.6667ZM2.66667 7.66671C2.66667 7.29852 2.96514 7.00004 3.33333 7.00004H4.66667C5.03486 7.00004 5.33333 7.29852 5.33333 7.66671V9.00004C5.33333 9.36823 5.03486 9.66671 4.66667 9.66671H3.33333C2.96514 9.66671 2.66667 9.36823 2.66667 9.00004V7.66671Z" fill="#282828"/>
</svg>
