<svg width="14" height="10" viewBox="0 0 14 10" fill="none" xmlns="http://www.w3.org/2000/svg">
<path fill-rule="evenodd" clip-rule="evenodd" d="M1.90435 4.72103C1.84018 4.82673 1.78688 4.92092 1.74412 5.00004C1.78688 5.07916 1.84018 5.17335 1.90435 5.27906C2.11281 5.62239 2.43206 6.08061 2.87243 6.53728C3.75017 7.44753 5.08733 8.33337 6.99967 8.33337C8.91202 8.33337 10.2492 7.44753 11.1269 6.53728C11.5673 6.08061 11.8865 5.62239 12.095 5.27906C12.1592 5.17335 12.2125 5.07916 12.2552 5.00004C12.2125 4.92092 12.1592 4.82673 12.095 4.72103C11.8865 4.37769 11.5673 3.91948 11.1269 3.4628C10.2492 2.55255 8.91202 1.66671 6.99967 1.66671C5.08733 1.66671 3.75017 2.55255 2.87243 3.4628C2.43206 3.91948 2.11281 4.37769 1.90435 4.72103ZM13.6122 5.26324C13.6123 5.26294 13.6124 5.26265 12.9997 5.00004L13.6124 5.26265C13.6843 5.09495 13.6843 4.90513 13.6124 4.73743L12.9997 5.00004C13.6124 4.73743 13.6123 4.73714 13.6122 4.73684L13.6119 4.73616L13.6112 4.73452L13.6093 4.73015L13.6035 4.71709C13.5988 4.7065 13.5923 4.69218 13.584 4.67438C13.5675 4.63878 13.5438 4.58918 13.5127 4.5276C13.4505 4.40452 13.3585 4.23296 13.2347 4.02906C12.9878 3.62239 12.6106 3.08061 12.0867 2.53728C11.0359 1.44753 9.37305 0.333374 6.99967 0.333374C4.6263 0.333374 2.96347 1.44753 1.91264 2.53728C1.38872 3.08061 1.01154 3.62239 0.764638 4.02906C0.64084 4.23296 0.548805 4.40452 0.48664 4.5276C0.455533 4.58918 0.431829 4.63878 0.4153 4.67438C0.407034 4.69218 0.400554 4.7065 0.395834 4.71709L0.390066 4.73015L0.388164 4.73452L0.387456 4.73616L0.387163 4.73684C0.387034 4.73714 0.386911 4.73743 0.999651 5.00003L0.386911 4.73743C0.31504 4.90513 0.31504 5.09495 0.386911 5.26265L0.999651 5.00005C0.386911 5.26265 0.387034 5.26294 0.387163 5.26324L0.387456 5.26392L0.388164 5.26556L0.390066 5.26993L0.395834 5.28299C0.400554 5.29358 0.407034 5.3079 0.4153 5.3257C0.431829 5.3613 0.455533 5.4109 0.48664 5.47248C0.548805 5.59556 0.64084 5.76712 0.764638 5.97103C1.01154 6.37769 1.38872 6.91948 1.91264 7.4628C2.96347 8.55255 4.6263 9.66671 6.99967 9.66671C9.37305 9.66671 11.0359 8.55255 12.0867 7.4628C12.6106 6.91948 12.9878 6.37769 13.2347 5.97103C13.3585 5.76712 13.4505 5.59556 13.5127 5.47248C13.5438 5.4109 13.5675 5.3613 13.584 5.3257C13.5923 5.3079 13.5988 5.29358 13.6035 5.28299L13.6093 5.26993L13.6112 5.26556L13.6119 5.26392L13.6122 5.26324ZM6.99967 6.33337C6.2633 6.33337 5.66634 5.73642 5.66634 5.00004C5.66634 4.26366 6.2633 3.66671 6.99967 3.66671C7.73605 3.66671 8.33301 4.26366 8.33301 5.00004C8.33301 5.73642 7.73605 6.33337 6.99967 6.33337ZM4.33301 5.00004C4.33301 3.52728 5.52692 2.33337 6.99967 2.33337C8.47243 2.33337 9.66634 3.52728 9.66634 5.00004C9.66634 6.4728 8.47243 7.66671 6.99967 7.66671C5.52692 7.66671 4.33301 6.4728 4.33301 5.00004Z" fill="#282828"/>
</svg>
