<svg width="24" height="24" viewBox="0 0 24 24" fill="none" xmlns="http://www.w3.org/2000/svg">
<path fill-rule="evenodd" clip-rule="evenodd" d="M4.35702 11.5815C4.26075 11.74 4.18081 11.8813 4.11667 12C4.18081 12.1187 4.26075 12.26 4.35702 12.4185C4.6697 12.9335 5.14858 13.6208 5.80913 14.3059C7.12574 15.6712 9.13149 17 12 17C14.8685 17 16.8743 15.6712 18.1909 14.3059C18.8514 13.6208 19.3303 12.9335 19.643 12.4185C19.7392 12.26 19.8192 12.1187 19.8833 12C19.8192 11.8813 19.7392 11.74 19.643 11.5815C19.3303 11.0665 18.8514 10.3792 18.1909 9.69414C16.8743 8.32877 14.8685 7 12 7C9.13149 7 7.12574 8.32877 5.80913 9.69414C5.14858 10.3792 4.6697 11.0665 4.35702 11.5815ZM21.9188 12.3948C21.919 12.3943 21.9191 12.3939 21 12L21.9191 12.3939C22.027 12.1424 22.027 11.8576 21.9191 11.6061L21 12C21.9191 11.6061 21.919 11.6057 21.9188 11.6052L21.9183 11.6042L21.9173 11.6017L21.9144 11.5952L21.9058 11.5756C21.8987 11.5597 21.889 11.5382 21.8766 11.5115C21.8518 11.4581 21.8162 11.3837 21.7696 11.2913C21.6763 11.1067 21.5383 10.8494 21.3526 10.5435C20.9822 9.93352 20.4164 9.12085 19.6306 8.30586C18.0543 6.67123 15.5601 5 12 5C8.43994 5 5.94569 6.67123 4.36944 8.30586C3.58356 9.12085 3.0178 9.93352 2.64744 10.5435C2.46175 10.8494 2.3237 11.1067 2.23045 11.2913C2.18379 11.3837 2.14823 11.4581 2.12344 11.5115C2.11104 11.5382 2.10132 11.5597 2.09424 11.5756L2.08559 11.5952L2.08273 11.6017L2.08167 11.6042L2.08123 11.6052C2.08104 11.6057 2.08085 11.6061 2.99997 12L2.08085 11.6061C1.97305 11.8576 1.97305 12.1424 2.08085 12.3939L2.99997 12C2.08085 12.3939 2.08104 12.3943 2.08123 12.3948L2.08167 12.3958L2.08273 12.3983L2.08559 12.4048L2.09424 12.4244C2.10132 12.4403 2.11104 12.4618 2.12344 12.4885C2.14823 12.5419 2.18379 12.6163 2.23045 12.7087C2.3237 12.8933 2.46175 13.1506 2.64744 13.4565C3.0178 14.0665 3.58356 14.8792 4.36944 15.6941C5.94569 17.3288 8.43994 19 12 19C15.5601 19 18.0543 17.3288 19.6306 15.6941C20.4164 14.8792 20.9822 14.0665 21.3526 13.4565C21.5383 13.1506 21.6763 12.8933 21.7696 12.7087C21.8162 12.6163 21.8518 12.5419 21.8766 12.4885C21.889 12.4618 21.8987 12.4403 21.9058 12.4244L21.9144 12.4048L21.9173 12.3983L21.9183 12.3958L21.9188 12.3948ZM12 14C10.8954 14 10 13.1046 10 12C10 10.8954 10.8954 10 12 10C13.1046 10 14 10.8954 14 12C14 13.1046 13.1046 14 12 14ZM8 12C8 9.79086 9.79086 8 12 8C14.2091 8 16 9.79086 16 12C16 14.2091 14.2091 16 12 16C9.79086 16 8 14.2091 8 12Z" fill="#02534E"/>
</svg>
