<svg width="32" height="32" viewBox="0 0 32 32" fill="none" xmlns="http://www.w3.org/2000/svg">
<rect width="32" height="32" rx="16" fill="#00D95F"/>
<path d="M8 23.4075L9.14796 19.1391C8.22216 17.4764 7.92802 15.5361 8.31953 13.6743C8.71103 11.8125 9.76191 10.1541 11.2793 9.0034C12.7968 7.85271 14.6789 7.28691 16.5805 7.40984C18.4821 7.53277 20.2754 8.33617 21.6315 9.67263C22.9876 11.0091 23.8155 12.7889 23.9632 14.6856C24.111 16.5822 23.5686 18.4685 22.4358 19.9981C21.3029 21.5278 19.6555 22.5983 17.7958 23.0132C15.9362 23.4282 13.989 23.1596 12.3116 22.257L8 23.4075ZM12.5195 20.6597L12.7862 20.8176C14.0011 21.5365 15.4202 21.8341 16.8222 21.6638C18.2242 21.4935 19.5304 20.865 20.5372 19.8762C21.544 18.8874 22.195 17.5939 22.3886 16.1972C22.5821 14.8005 22.3075 13.3791 21.6075 12.1546C20.9074 10.93 19.8212 9.97097 18.5182 9.42701C17.2152 8.88305 15.7686 8.78468 14.4038 9.14723C13.0389 9.50977 11.8325 10.3129 10.9726 11.4314C10.1127 12.5499 9.64754 13.921 9.64963 15.331C9.64849 16.5001 9.97236 17.6466 10.5852 18.6428L10.7524 18.918L10.1106 21.3004L12.5195 20.6597Z" fill="white"/>
<path fill-rule="evenodd" clip-rule="evenodd" d="M18.9923 16.427C18.836 16.3012 18.6529 16.2126 18.4571 16.168C18.2613 16.1234 18.0579 16.1241 17.8624 16.1699C17.5686 16.2917 17.3788 16.7519 17.189 16.982C17.149 17.0372 17.0902 17.0759 17.0236 17.0908C16.957 17.1058 16.8873 17.096 16.8274 17.0632C15.7519 16.6427 14.8504 15.8715 14.2694 14.8749C14.2198 14.8127 14.1964 14.7337 14.2039 14.6546C14.2115 14.5755 14.2496 14.5024 14.31 14.4508C14.5218 14.2415 14.6772 13.9824 14.762 13.6973C14.7808 13.3828 14.7087 13.0695 14.5541 12.7948C14.4346 12.4098 14.2072 12.0669 13.8988 11.8067C13.7397 11.7353 13.5633 11.7113 13.3909 11.7377C13.2185 11.7642 13.0574 11.8398 12.9271 11.9556C12.7009 12.1505 12.5213 12.3935 12.4016 12.6668C12.2819 12.9401 12.2252 13.2367 12.2356 13.5348C12.2363 13.7022 12.2575 13.8689 12.2989 14.0311C12.4038 14.4209 12.5652 14.7934 12.7779 15.1366C12.9314 15.3995 13.0989 15.6541 13.2796 15.8991C13.8669 16.7041 14.6052 17.3875 15.4535 17.9115C15.8792 18.1778 16.3341 18.3943 16.8094 18.5567C17.303 18.7801 17.8481 18.8659 18.3867 18.8049C18.6935 18.7585 18.9843 18.6376 19.2333 18.4527C19.4824 18.2678 19.6821 18.0246 19.8148 17.7446C19.8929 17.5754 19.9166 17.3863 19.8826 17.2031C19.8013 16.8286 19.2996 16.6075 18.9923 16.427Z" fill="white"/>
</svg>
