<svg width="56" height="57" viewBox="0 0 56 57" fill="none" xmlns="http://www.w3.org/2000/svg">
<rect y="0.75" width="56" height="56" rx="28" fill="#E9F5EE"/>
<path d="M27.3062 17.4153C27.3626 17.2777 27.4587 17.1601 27.5821 17.0772C27.7056 16.9944 27.8509 16.9502 27.9996 16.9502C28.1482 16.9502 28.2935 16.9944 28.417 17.0772C28.5405 17.1601 28.6365 17.2777 28.6929 17.4153L31.5262 24.23C31.5793 24.3575 31.6665 24.4679 31.7782 24.549C31.8899 24.6302 32.0219 24.679 32.1596 24.69L39.5169 25.2793C40.1822 25.3326 40.4516 26.1633 39.9449 26.5966L34.3396 31.3993C34.2348 31.4889 34.1568 31.6056 34.114 31.7366C34.0712 31.8676 34.0653 32.0078 34.0969 32.142L35.8102 39.322C35.8447 39.466 35.8356 39.617 35.7843 39.756C35.733 39.8949 35.6416 40.0155 35.5217 40.1025C35.4019 40.1895 35.259 40.2391 35.111 40.2449C34.963 40.2508 34.8166 40.2126 34.6902 40.1353L28.3902 36.2886C28.2726 36.2168 28.1374 36.1787 27.9996 36.1787C27.8617 36.1787 27.7265 36.2168 27.6089 36.2886L21.3089 40.1366C21.1826 40.214 21.0362 40.2521 20.8882 40.2463C20.7402 40.2404 20.5972 40.1909 20.4774 40.1038C20.3575 40.0168 20.2662 39.8962 20.2148 39.7573C20.1635 39.6184 20.1545 39.4673 20.1889 39.3233L21.9022 32.142C21.934 32.0078 21.9282 31.8675 21.8854 31.7365C21.8425 31.6055 21.7644 31.4888 21.6596 31.3993L16.0542 26.5966C15.9414 26.5004 15.8596 26.3729 15.8192 26.2301C15.7789 26.0874 15.7819 25.9359 15.8277 25.7948C15.8735 25.6538 15.9602 25.5295 16.0767 25.4377C16.1932 25.3459 16.3344 25.2908 16.4822 25.2793L23.8396 24.69C23.9772 24.679 24.1092 24.6302 24.2209 24.549C24.3327 24.4679 24.4199 24.3575 24.4729 24.23L27.3062 17.4153Z" stroke="#219653" stroke-width="2" stroke-linecap="round" stroke-linejoin="round"/>
</svg>
