<svg width="56" height="57" viewBox="0 0 56 57" fill="none" xmlns="http://www.w3.org/2000/svg">
<rect y="0.75" width="56" height="56" rx="28" fill="#E9F5EE"/>
<g clip-path="url(#clip0_1712_321)">
<path fill-rule="evenodd" clip-rule="evenodd" d="M22.6065 23.4063C23.0461 23.7406 23.1315 24.368 22.7971 24.8076C21.962 25.9057 21.4668 27.2713 21.4668 28.7501C21.4668 32.3466 24.4029 35.2827 27.9994 35.2827C31.5959 35.2827 34.532 32.3466 34.532 28.7501C34.532 27.2713 34.0369 25.9057 33.2017 24.8075C32.8674 24.368 32.9527 23.7406 33.3923 23.4062C33.8319 23.0719 34.4593 23.1573 34.7936 23.5969C35.8829 25.0292 36.532 26.8168 36.532 28.7501C36.532 33.4512 32.7005 37.2827 27.9994 37.2827C23.2983 37.2827 19.4668 33.4512 19.4668 28.7501C19.4668 26.8168 20.1159 25.0291 21.2052 23.5968C21.5396 23.1572 22.1669 23.0719 22.6065 23.4063Z" fill="#219653"/>
<path fill-rule="evenodd" clip-rule="evenodd" d="M14.0975 28.75C17.1461 33.7621 22.2578 37 28 37C33.7422 37 38.8539 33.7621 41.9025 28.75C38.8539 23.7379 33.7422 20.5 28 20.5C22.2578 20.5 17.1461 23.7379 14.0975 28.75ZM12.0681 28.2559C15.379 22.43 21.252 18.5 28 18.5C34.748 18.5 40.621 22.43 43.9319 28.2559C44.106 28.5623 44.106 28.9377 43.9319 29.2441C40.621 35.07 34.748 39 28 39C21.252 39 15.379 35.07 12.0681 29.2441C11.894 28.9377 11.894 28.5623 12.0681 28.2559Z" fill="#219653"/>
<path fill-rule="evenodd" clip-rule="evenodd" d="M13.646 29.4921C13.6458 29.4922 13.6462 29.4919 13.646 29.4921L13.5887 29.5397C13.1641 29.8929 12.5336 29.8349 12.1804 29.4103C11.8273 28.9857 11.8852 28.3552 12.3098 28.0021L12.3691 27.9527C16.6709 24.3844 22.0981 22.25 27.9999 22.25C33.8723 22.25 39.2749 24.3632 43.5664 27.8996C43.9927 28.2508 44.0535 28.881 43.7022 29.3072C43.351 29.7335 42.7208 29.7943 42.2946 29.4431C38.3391 26.1837 33.3805 24.25 27.9999 24.25C22.5927 24.25 17.611 26.2034 13.646 29.4921Z" fill="#219653"/>
<circle cx="27.9395" cy="29.7715" r="2.5" fill="#219653"/>
</g>
<defs>
<clipPath id="clip0_1712_321">
<rect width="32" height="32" fill="white" transform="translate(12 12.75)"/>
</clipPath>
</defs>
</svg>
