<svg width="56" height="57" viewBox="0 0 56 57" fill="none" xmlns="http://www.w3.org/2000/svg">
<rect y="0.75" width="56" height="56" rx="28" fill="#E9F5EE"/>
<path d="M32.0235 35.8114C34.6474 35.505 37.2255 34.8942 39.7043 33.9917C37.6051 31.698 36.4451 28.7165 36.4498 25.6265V24.5846C36.4498 22.3742 35.5595 20.2542 33.9749 18.6912C32.3902 17.1281 30.241 16.25 28 16.25C25.759 16.25 23.6098 17.1281 22.0251 18.6912C20.4405 20.2542 19.5502 22.3742 19.5502 24.5846V25.6265C19.5545 28.7167 18.394 31.6982 16.2943 33.9917C18.7348 34.8807 21.3078 35.4989 23.9765 35.8114M32.0235 35.8114C29.3505 36.1241 26.6495 36.1241 23.9765 35.8114M32.0235 35.8114C32.2264 36.4363 32.2769 37.0996 32.1708 37.7474C32.0647 38.3952 31.805 39.0091 31.4128 39.5392C31.0207 40.0692 30.5072 40.5005 29.9141 40.7978C29.3211 41.095 28.6652 41.25 28 41.25C27.3348 41.25 26.6789 41.095 26.0859 40.7978C25.4928 40.5005 24.9793 40.0692 24.5872 39.5392C24.195 39.0091 23.9353 38.3952 23.8292 37.7474C23.7231 37.0996 23.7736 36.4363 23.9765 35.8114M15.5 22.501C15.8971 20.1742 16.9559 18.0064 18.5532 16.25M37.4468 16.25C39.0441 18.0064 40.1029 20.1742 40.5 22.501" stroke="#219653" stroke-width="2" stroke-linecap="round" stroke-linejoin="round"/>
</svg>
