<svg width="56" height="56" viewBox="0 0 56 56" fill="none" xmlns="http://www.w3.org/2000/svg">
<rect width="56" height="56" rx="28" fill="#E9F5EE"/>
<path d="M40 27V38C40 38.5304 39.7893 39.0391 39.4142 39.4142C39.0391 39.7893 38.5304 40 38 40H19C18.4696 40 17.9609 39.7893 17.5858 39.4142C17.2107 39.0391 17 38.5304 17 38V27M28 18.5C28 17.8078 27.7947 17.1311 27.4101 16.5555C27.0256 15.9799 26.4789 15.5313 25.8394 15.2664C25.1999 15.0015 24.4961 14.9322 23.8172 15.0673C23.1383 15.2023 22.5146 15.5356 22.0251 16.0251C21.5356 16.5146 21.2023 17.1383 21.0673 17.8172C20.9322 18.4961 21.0015 19.1999 21.2664 19.8394C21.5313 20.4789 21.9799 21.0256 22.5555 21.4101C23.1311 21.7947 23.8078 22 24.5 22H28M28 18.5V22M28 18.5C28 17.8078 28.2053 17.1311 28.5899 16.5555C28.9744 15.9799 29.5211 15.5313 30.1606 15.2664C30.8001 15.0015 31.5039 14.9322 32.1828 15.0673C32.8617 15.2023 33.4854 15.5356 33.9749 16.0251C34.4644 16.5146 34.7977 17.1383 34.9328 17.8172C35.0678 18.4961 34.9985 19.1999 34.7336 19.8394C34.4687 20.4789 34.0201 21.0256 33.4445 21.4101C32.8689 21.7947 32.1922 22 31.5 22H28M28 22V40M16.5 27H40.5C41.328 27 42 26.328 42 25.5V23.5C42 22.672 41.328 22 40.5 22H16.5C15.672 22 15 22.672 15 23.5V25.5C15 26.328 15.672 27 16.5 27Z" stroke="#219653" stroke-width="2" stroke-linecap="round" stroke-linejoin="round"/>
</svg>
