<svg width="160" height="55" viewBox="0 0 160 55" fill="none" xmlns="http://www.w3.org/2000/svg">
<rect x="0.5" y="0.5" width="159" height="54" rx="5.5" fill="black"/>
<rect x="0.5" y="0.5" width="159" height="54" rx="5.5" stroke="#A6A6A6"/>
<path d="M43.5511 28.0175C43.5675 26.791 43.9053 25.5883 44.5333 24.5215C45.1612 23.4548 46.0588 22.5584 47.1425 21.916C46.454 20.9679 45.5458 20.1877 44.4899 19.6373C43.4341 19.0869 42.2597 18.7815 41.06 18.7453C38.5008 18.4863 36.0198 20.2219 34.7157 20.2219C33.3863 20.2219 31.3785 18.771 29.2163 18.8139C27.8178 18.8575 26.4548 19.2496 25.2602 19.9521C24.0655 20.6546 23.08 21.6435 22.3996 22.8225C19.4522 27.743 21.6507 34.9746 24.4741 38.952C25.8867 40.8996 27.5376 43.0751 29.6978 42.998C31.8117 42.9134 32.6011 41.6982 35.1528 41.6982C37.6807 41.6982 38.4214 42.998 40.6255 42.9489C42.8938 42.9134 44.3229 40.9927 45.6859 39.0266C46.7009 37.6389 47.4819 36.1051 48 34.4821C46.6822 33.9447 45.5576 33.0451 44.7664 31.8955C43.9753 30.7459 43.5526 29.3972 43.5511 28.0175Z" fill="white"/>
<path d="M39.3881 16.1295C40.6249 14.6979 41.2342 12.8578 41.0866 11C39.1971 11.1914 37.4518 12.0621 36.1983 13.4388C35.5854 14.1114 35.116 14.8938 34.817 15.7413C34.5179 16.5889 34.395 17.485 34.4553 18.3784C35.4004 18.3878 36.3353 18.1903 37.1898 17.8007C38.0442 17.4112 38.7959 16.8398 39.3881 16.1295Z" fill="white"/>
<path d="M63.791 18.0015H65.8608C67.6494 18.0015 68.5195 19.0649 68.5195 20.9941C68.5195 22.9233 67.6406 24 65.8608 24H63.791V18.0015ZM64.7886 18.8408V23.1606H65.751C66.9375 23.1606 67.4956 22.4443 67.4956 21.0073C67.4956 19.5615 66.9331 18.8408 65.751 18.8408H64.7886ZM71.6748 19.2759C72.8877 19.2759 73.7358 20.0625 73.7358 21.3677V21.9697C73.7358 23.3188 72.8877 24.0791 71.6748 24.0791C70.4443 24.0791 69.605 23.3276 69.605 21.9741V21.3721C69.605 20.1021 70.4575 19.2759 71.6748 19.2759ZM71.6792 20.0625C70.9849 20.0625 70.5894 20.6426 70.5894 21.4204V21.939C70.5894 22.7168 70.9585 23.2925 71.6792 23.2925C72.3911 23.2925 72.7559 22.7212 72.7559 21.939V21.4204C72.7559 20.6426 72.3735 20.0625 71.6792 20.0625ZM80.8989 19.355L79.6772 24H78.6841L77.7129 20.5723H77.6865L76.7329 24H75.7354L74.4609 19.355H75.5112L76.2583 22.897H76.3022L77.2383 19.355H78.1567L79.1191 22.897H79.1631L79.9233 19.355H80.8989ZM81.8657 24V19.355H82.8237V20.1899H82.8721C82.9907 19.8252 83.3291 19.2847 84.2695 19.2847C85.2056 19.2847 85.834 19.8032 85.834 20.8623V24H84.8584V21.1479C84.8584 20.4404 84.4893 20.1152 83.9399 20.1152C83.2192 20.1152 82.8413 20.6689 82.8413 21.4204V24H81.8657ZM87.3105 24V17.6851H88.2861V24H87.3105ZM91.6348 19.2759C92.8477 19.2759 93.6958 20.0625 93.6958 21.3677V21.9697C93.6958 23.3188 92.8477 24.0791 91.6348 24.0791C90.4043 24.0791 89.5649 23.3276 89.5649 21.9741V21.3721C89.5649 20.1021 90.4175 19.2759 91.6348 19.2759ZM91.6392 20.0625C90.9448 20.0625 90.5493 20.6426 90.5493 21.4204V21.939C90.5493 22.7168 90.9185 23.2925 91.6392 23.2925C92.3511 23.2925 92.7158 22.7212 92.7158 21.939V21.4204C92.7158 20.6426 92.3335 20.0625 91.6392 20.0625ZM96.2227 24.0703C95.3218 24.0703 94.7021 23.5166 94.7021 22.6509C94.7021 21.8291 95.2734 21.2754 96.3457 21.2754H97.519V20.8403C97.519 20.3086 97.1807 20.0581 96.6445 20.0581C96.1172 20.0581 95.8799 20.2778 95.8052 20.5854H94.8779C94.9351 19.8076 95.5195 19.2847 96.6753 19.2847C97.6685 19.2847 98.4902 19.6978 98.4902 20.8535V24H97.563V23.3979H97.519C97.3125 23.7539 96.9082 24.0703 96.2227 24.0703ZM96.5259 23.3145C97.0796 23.3145 97.519 22.9365 97.519 22.4312V21.9302H96.4995C95.9326 21.9302 95.6821 22.2158 95.6821 22.6025C95.6821 23.0859 96.0864 23.3145 96.5259 23.3145ZM101.496 19.2935C102.151 19.2935 102.652 19.5835 102.832 20.0537H102.88V17.6851H103.856V24H102.907V23.2573H102.858C102.718 23.7275 102.16 24.0615 101.483 24.0615C100.415 24.0615 99.7207 23.3013 99.7207 22.0752V21.2798C99.7207 20.0537 100.428 19.2935 101.496 19.2935ZM101.769 20.0933C101.118 20.0933 100.714 20.5767 100.714 21.4204V21.9302C100.714 22.7783 101.123 23.2617 101.791 23.2617C102.45 23.2617 102.88 22.7827 102.88 21.9917V21.2886C102.88 20.5723 102.41 20.0933 101.769 20.0933ZM109.213 19.2759C110.426 19.2759 111.274 20.0625 111.274 21.3677V21.9697C111.274 23.3188 110.426 24.0791 109.213 24.0791C107.982 24.0791 107.143 23.3276 107.143 21.9741V21.3721C107.143 20.1021 107.996 19.2759 109.213 19.2759ZM109.217 20.0625C108.523 20.0625 108.127 20.6426 108.127 21.4204V21.939C108.127 22.7168 108.497 23.2925 109.217 23.2925C109.929 23.2925 110.294 22.7212 110.294 21.939V21.4204C110.294 20.6426 109.912 20.0625 109.217 20.0625ZM112.531 24V19.355H113.489V20.1899H113.537C113.656 19.8252 113.994 19.2847 114.935 19.2847C115.871 19.2847 116.499 19.8032 116.499 20.8623V24H115.523V21.1479C115.523 20.4404 115.154 20.1152 114.605 20.1152C113.884 20.1152 113.506 20.6689 113.506 21.4204V24H112.531ZM120.274 19.3857V18.2256H121.228V19.3857H122.269V20.1504H121.228V22.6157C121.228 23.1211 121.417 23.2617 121.939 23.2617C122.071 23.2617 122.247 23.2529 122.322 23.2441V23.9912C122.243 24.0044 121.917 24.0308 121.698 24.0308C120.568 24.0308 120.261 23.6265 120.261 22.6948V20.1504H119.553V19.3857H120.274ZM123.5 24V17.6851H124.471V20.1899H124.519C124.62 19.8604 124.998 19.2847 125.93 19.2847C126.835 19.2847 127.481 19.8076 127.481 20.8667V24H126.51V21.1523C126.51 20.4448 126.119 20.1152 125.565 20.1152C124.866 20.1152 124.471 20.6646 124.471 21.4204V24H123.5ZM130.755 24.0791C129.489 24.0791 128.703 23.3013 128.703 21.9917V21.3633C128.703 20.0449 129.564 19.2759 130.698 19.2759C131.862 19.2759 132.684 20.0845 132.684 21.3633V21.9082H129.669V22.1367C129.669 22.8047 130.065 23.2969 130.75 23.2969C131.26 23.2969 131.612 23.0552 131.678 22.7651H132.631C132.574 23.3013 132.007 24.0791 130.755 24.0791ZM129.669 21.271H131.73V21.2095C131.73 20.5107 131.322 20.0449 130.702 20.0449C130.083 20.0449 129.669 20.5107 129.669 21.2095V21.271Z" fill="white"/>
<path d="M65.2061 40H63.1758L67.3066 28.0029H69.5391L73.6611 40H71.5518L70.4883 36.6777H66.2783L65.2061 40ZM68.4316 30.0771H68.3525L66.7266 35.1484H70.04L68.4316 30.0771ZM79.2644 40.1318C78.0603 40.1318 77.1462 39.5605 76.654 38.708H76.5837V43.085H74.6325V30.71H76.531V32.0723H76.6013C77.1111 31.1846 78.0603 30.5869 79.3083 30.5869C81.3913 30.5869 82.8767 32.1602 82.8767 34.9375V35.7637C82.8767 38.5234 81.4089 40.1318 79.2644 40.1318ZM78.8161 38.5234C80.0554 38.5234 80.8991 37.5303 80.8991 35.6582V35.0078C80.8991 33.2061 80.1081 32.1777 78.781 32.1777C77.4187 32.1777 76.5661 33.2852 76.5661 34.999V35.6582C76.5661 37.416 77.4275 38.5234 78.8161 38.5234ZM89.183 40.1318C87.9789 40.1318 87.0649 39.5605 86.5727 38.708H86.5024V43.085H84.5512V30.71H86.4496V32.0723H86.52C87.0297 31.1846 87.9789 30.5869 89.227 30.5869C91.31 30.5869 92.7954 32.1602 92.7954 34.9375V35.7637C92.7954 38.5234 91.3276 40.1318 89.183 40.1318ZM88.7348 38.5234C89.9741 38.5234 90.8178 37.5303 90.8178 35.6582V35.0078C90.8178 33.2061 90.0268 32.1777 88.6996 32.1777C87.3373 32.1777 86.4848 33.2852 86.4848 34.999V35.6582C86.4848 37.416 87.3461 38.5234 88.7348 38.5234ZM96.8387 36.6689H98.7899C98.8778 37.7061 99.7919 38.5938 101.488 38.5938C103.044 38.5938 103.967 37.8643 103.967 36.7305C103.967 35.8164 103.351 35.3242 102.068 35.0166L100.099 34.5244C98.5526 34.1641 97.1639 33.2412 97.1639 31.29C97.1639 28.9961 99.1679 27.7393 101.497 27.7393C103.826 27.7393 105.768 28.9961 105.812 31.2373H103.896C103.808 30.2178 103.026 29.374 101.471 29.374C100.099 29.374 99.1679 30.0244 99.1679 31.1406C99.1679 31.9229 99.7128 32.4854 100.829 32.7402L102.789 33.2236C104.591 33.6631 105.962 34.5156 105.962 36.5547C105.962 38.9102 104.055 40.2373 101.339 40.2373C97.9989 40.2373 96.8827 38.2861 96.8387 36.6689ZM108.339 30.71V28.4512H110.255V30.71H112.066V32.2744H110.255V37.2314C110.255 38.2422 110.633 38.5234 111.679 38.5234C111.846 38.5234 112.004 38.5234 112.119 38.5059V40C111.961 40.0264 111.591 40.0615 111.196 40.0615C108.937 40.0615 108.313 39.2529 108.313 37.3896V32.2744H107.03V30.71H108.339ZM117.335 30.5518C120.007 30.5518 121.457 32.4326 121.457 34.9639V35.7109C121.457 38.3301 120.016 40.1582 117.335 40.1582C114.655 40.1582 113.196 38.3301 113.196 35.7109V34.9639C113.196 32.4414 114.663 30.5518 117.335 30.5518ZM117.335 32.1162C115.885 32.1162 115.164 33.3027 115.164 34.9902V35.7021C115.164 37.3633 115.876 38.585 117.335 38.585C118.794 38.585 119.497 37.3721 119.497 35.7021V34.9902C119.497 33.2939 118.785 32.1162 117.335 32.1162ZM123.106 40V30.71H125.057V31.9316H125.127C125.364 31.3516 126.059 30.5781 127.351 30.5781C127.606 30.5781 127.825 30.5957 128.01 30.6309V32.3535C127.843 32.3096 127.5 32.2832 127.175 32.2832C125.61 32.2832 125.083 33.25 125.083 34.498V40H123.106ZM132.743 40.1582C130.256 40.1582 128.674 38.5146 128.674 35.7637V34.8232C128.674 32.2305 130.22 30.5518 132.664 30.5518C135.142 30.5518 136.636 32.292 136.636 34.9111V35.7988H130.598V36.0186C130.598 37.583 131.442 38.6201 132.769 38.6201C133.762 38.6201 134.439 38.1279 134.677 37.3281H136.531C136.25 38.8311 135.037 40.1582 132.743 40.1582ZM130.598 34.4365H134.729V34.4189C134.729 33.1006 133.912 32.0635 132.673 32.0635C131.416 32.0635 130.598 33.1006 130.598 34.4189V34.4365Z" fill="white"/>
</svg>
