<svg width="1440" height="500" viewBox="0 0 1440 500" fill="none" xmlns="http://www.w3.org/2000/svg">
<mask id="mask0_24_1853" style="mask-type:alpha" maskUnits="userSpaceOnUse" x="-2" y="0" width="1444" height="500">
<rect x="-2" width="1444" height="500" fill="#FFC467"/>
</mask>
<g mask="url(#mask0_24_1853)">
<path d="M1344.78 -247.151C1385.44 27.9972 1322.65 812.731 1498.16 812.731M1247.51 -224.69C1268.61 -119.404 1308.45 197.859 1298.98 624.62C1289.51 1051.38 1419.24 1089.75 1485.29 1055.59M1133.77 -224.69C1218.17 46.2468 1286.11 519.333 1107 812.731C1063.77 886.198 962.793 1088.72 904.738 1311.09C846.682 1533.45 756.34 1627.41 718.426 1646.6M911.428 1572.2C911.428 1556.76 996.864 1333.55 1051.93 1243.7C1107 1153.86 1253.17 1054.19 1298.98 1471.12C1335.62 1804.67 1432.96 1441.64 1477.05 1218.43M1045.24 1572.2C1078.7 1516.04 1153.32 1440.8 1184.21 1589.04M-113.8 694.811C-107.11 746.284 -84.1551 829.297 -45.8635 749.56C2.00112 649.889 169.27 418.259 210.444 273.665C251.618 129.072 272.204 -63.251 172.873 -349.63M355.581 -249.959C383.374 -50.1487 404.064 384.005 264.484 522.141C90.0102 694.811 8.69187 1035.94 -10.8657 1103.32C-30.4233 1170.71 -67.4797 1243.7 -150.857 1243.7M-26.8206 1572.2C-2.28782 1495.46 51.9244 1311.37 72.5113 1188.95C98.245 1035.94 168.24 833.789 339.112 665.331C509.983 496.872 518.218 190.84 505.351 -317.342M790.995 -249.959C740.042 -169.005 630.829 63.0927 601.595 343.856C565.053 694.811 411.681 842.212 222.281 1042.96C70.7614 1203.55 134.787 1784.64 185.739 2055.11M246.985 1572.2C242.697 1461.3 269.219 1219.84 409.622 1141.22C585.126 1042.96 617.55 759.386 654.092 551.621C690.634 343.856 855.329 -214.863 958.264 -317.342M635.564 1537.1C679.825 1496.86 779.878 1367.24 825.993 1170.71C883.636 925.037 967.013 697.618 1003.04 624.62C1039.07 551.621 1174.43 146.233 1019.51 -1.483C864.593 -149.199 759.6 494.065 712.765 742.541C665.929 991.016 669.017 1110.34 582.552 1378.47C513.38 1592.97 589.071 1573.6 635.564 1537.1ZM760.629 978.382C806.092 737.393 909.267 259.066 958.264 273.665C1019.51 291.915 908.34 582.505 867.166 812.731C825.993 1042.96 712.765 1379.87 760.629 978.382Z" stroke="white" stroke-opacity="0.07" stroke-width="4"/>
</g>
</svg>
