<svg width="168" height="42" viewBox="0 0 168 42" fill="none" xmlns="http://www.w3.org/2000/svg">
<g clip-path="url(#clip0_1233_2509)">
<path d="M49.1309 29.2938H61.0829V25.6938H53.3789V12.1338H49.1309V29.2938Z" fill="white"/>
<path d="M68.1638 26.8934C66.4598 26.8934 65.5718 25.4054 65.5718 23.1734C65.5718 20.9414 66.4598 19.4294 68.1638 19.4294C69.8678 19.4294 70.7798 20.9414 70.7798 23.1734C70.7798 25.4054 69.8678 26.8934 68.1638 26.8934ZM68.1878 29.6774C72.1478 29.6774 74.7398 26.8694 74.7398 23.1734C74.7398 19.4774 72.1478 16.6694 68.1878 16.6694C64.2518 16.6694 61.6118 19.4774 61.6118 23.1734C61.6118 26.8694 64.2518 29.6774 68.1878 29.6774Z" fill="white"/>
<path d="M81.5941 33.5415C83.4181 33.5415 85.0261 33.1335 86.1061 32.1735C87.0901 31.2855 87.7381 29.9415 87.7381 28.0935V17.0055H83.9941V18.3255H83.9461C83.2261 17.2935 82.1221 16.6455 80.4901 16.6455C77.4421 16.6455 75.3301 19.1895 75.3301 22.7895C75.3301 26.5575 77.8981 28.6215 80.6581 28.6215C82.1461 28.6215 83.0821 28.0215 83.8021 27.2055H83.8981V28.4295C83.8981 29.9175 83.2021 30.7815 81.5461 30.7815C80.2501 30.7815 79.6021 30.2295 79.3861 29.5815H75.5941C75.9781 32.1495 78.2101 33.5415 81.5941 33.5415ZM81.5701 25.7175C80.1061 25.7175 79.1461 24.5175 79.1461 22.6695C79.1461 20.7975 80.1061 19.5975 81.5701 19.5975C83.2021 19.5975 84.0661 20.9895 84.0661 22.6455C84.0661 24.3735 83.2741 25.7175 81.5701 25.7175Z" fill="white"/>
<path d="M95.4368 26.8934C93.7328 26.8934 92.8448 25.4054 92.8448 23.1734C92.8448 20.9414 93.7328 19.4294 95.4368 19.4294C97.1408 19.4294 98.0528 20.9414 98.0528 23.1734C98.0528 25.4054 97.1408 26.8934 95.4368 26.8934ZM95.4608 29.6774C99.4208 29.6774 102.013 26.8694 102.013 23.1734C102.013 19.4774 99.4208 16.6694 95.4608 16.6694C91.5248 16.6694 88.8848 19.4774 88.8848 23.1734C88.8848 26.8694 91.5248 29.6774 95.4608 29.6774Z" fill="white"/>
<path d="M103.155 29.2938H107.067V17.0058H103.155V29.2938ZM103.155 15.3018H107.067V12.1338H103.155V15.3018Z" fill="white"/>
<path d="M108.764 33.3495H112.676V28.0215H112.724C113.492 29.0535 114.62 29.6775 116.204 29.6775C119.42 29.6775 121.556 27.1335 121.556 23.1495C121.556 19.4535 119.564 16.6455 116.3 16.6455C114.62 16.6455 113.42 17.3895 112.58 18.4935H112.508V17.0055H108.764V33.3495ZM115.196 26.6535C113.516 26.6535 112.556 25.2855 112.556 23.2935C112.556 21.3015 113.42 19.7895 115.124 19.7895C116.804 19.7895 117.596 21.1815 117.596 23.2935C117.596 25.3815 116.684 26.6535 115.196 26.6535Z" fill="white"/>
<path d="M127.926 29.6775C131.142 29.6775 133.518 28.2855 133.518 25.5975C133.518 22.4535 130.974 21.9015 128.814 21.5415C127.254 21.2535 125.862 21.1335 125.862 20.2695C125.862 19.5015 126.606 19.1415 127.566 19.1415C128.646 19.1415 129.39 19.4775 129.534 20.5815H133.134C132.942 18.1575 131.07 16.6455 127.59 16.6455C124.686 16.6455 122.286 17.9895 122.286 20.5815C122.286 23.4615 124.566 24.0375 126.702 24.3975C128.334 24.6855 129.822 24.8055 129.822 25.9095C129.822 26.7015 129.078 27.1335 127.902 27.1335C126.606 27.1335 125.79 26.5335 125.646 25.3095H121.95C122.07 28.0215 124.326 29.6775 127.926 29.6775Z" fill="white"/>
<path d="M138.831 29.6534C140.535 29.6534 141.615 28.9814 142.503 27.7814H142.575V29.2934H146.319V17.0054H142.407V23.8694C142.407 25.3334 141.591 26.3414 140.247 26.3414C138.999 26.3414 138.399 25.5974 138.399 24.2534V17.0054H134.511V25.0694C134.511 27.8054 135.999 29.6534 138.831 29.6534Z" fill="white"/>
<path d="M148.021 29.2935H151.933V22.4055C151.933 20.9415 152.653 19.9095 153.877 19.9095C155.053 19.9095 155.605 20.6775 155.605 21.9975V29.2935H159.517V22.4055C159.517 20.9415 160.213 19.9095 161.461 19.9095C162.637 19.9095 163.189 20.6775 163.189 21.9975V29.2935H167.101V21.3015C167.101 18.5415 165.709 16.6455 162.925 16.6455C161.341 16.6455 160.021 17.3175 159.061 18.8055H159.013C158.389 17.4855 157.165 16.6455 155.557 16.6455C153.781 16.6455 152.605 17.4855 151.837 18.7575H151.765V17.0055H148.021V29.2935Z" fill="white"/>
<path fill-rule="evenodd" clip-rule="evenodd" d="M9.15429 4.39132C7.72363 5.39168 6.42993 6.57443 5.30688 7.90585C9.89618 7.47978 15.7267 8.1755 22.4959 11.5601C29.7245 15.1743 35.5453 15.2965 39.5963 14.5151C39.2287 13.4022 38.7659 12.3326 38.2178 11.3158C33.5805 11.8049 27.6355 11.1575 20.7071 7.69343C16.3075 5.49363 12.4293 4.58746 9.15429 4.39132ZM35.5089 7.4601C31.8468 3.36845 26.5249 0.793457 20.6015 0.793457C18.862 0.793457 17.1742 1.01556 15.5652 1.43294C17.7444 2.02754 20.0594 2.89744 22.4959 4.11572C27.5685 6.65198 31.9479 7.46861 35.5089 7.4601ZM40.4624 18.4215C35.5684 19.3879 28.8103 19.1894 20.7071 15.1378C13.1315 11.35 7.10199 11.3977 3.03546 12.3014C2.82556 12.348 2.6206 12.397 2.42059 12.448C1.88818 13.6059 1.4632 14.8235 1.15826 16.0879C1.48395 16.0009 1.82049 15.9182 2.16772 15.841C7.10113 14.7447 14.0716 14.7923 22.4959 19.0045C30.0716 22.7923 36.1011 22.7446 40.1677 21.8409C40.307 21.81 40.4443 21.778 40.5793 21.745C40.5941 21.4297 40.6015 21.1124 40.6015 20.7934C40.6015 19.9909 40.5543 19.1994 40.4624 18.4215ZM39.9263 25.9657C35.0798 26.813 28.5185 26.4878 20.7071 22.5822C13.1315 18.7944 7.10199 18.8421 3.03546 19.7458C2.13281 19.9463 1.3208 20.1906 0.604493 20.4485C0.60254 20.5632 0.601562 20.6782 0.601562 20.7934C0.601562 31.8391 9.55585 40.7934 20.6015 40.7934C29.8586 40.7934 37.6468 34.5043 39.9263 25.9657Z" fill="white"/>
</g>
<defs>
<clipPath id="clip0_1233_2509">
<rect width="167" height="41" fill="white" transform="translate(0.5 0.5)"/>
</clipPath>
</defs>
</svg>
