<svg width="24" height="24" viewBox="0 0 24 24" fill="none" xmlns="http://www.w3.org/2000/svg">
<path d="M5.88184 2.77441C6.26725 2.80739 6.64228 3.00548 7.00977 3.36523C7.56578 3.91041 9.13582 5.90049 9.25781 6.48535C9.39225 7.13484 9.09784 7.65181 8.83594 8.10547C8.56804 8.57315 7.85381 9.45992 8.04004 9.97656C9.09674 12.5707 11.5376 14.8342 14.1328 15.8975C14.6387 16.0813 15.5242 15.3665 15.9893 15.0967C16.4433 14.8349 16.9563 14.5351 17.6045 14.6729C18.1871 14.7958 20.173 16.4082 20.7168 16.9668C21.0732 17.3325 21.2719 17.7102 21.3027 18.0879C21.3563 19.5698 19.3421 21.2618 18.9756 21.4727C18.4887 21.8232 17.9223 22 17.2861 22C16.6358 22 15.9108 21.815 15.1201 21.4463C10.8298 19.6555 4.27584 13.2307 2.54297 8.97363C1.82404 7.3889 1.81838 6.08188 2.53027 5.09961C2.8141 4.63893 4.43282 2.71352 5.88184 2.77441ZM13.4141 6.1709C13.5047 5.70624 13.942 5.40233 14.418 5.49023C16.5024 5.89696 18.1112 7.51102 18.5186 9.60059C18.6089 10.0661 18.3037 10.5184 17.8408 10.6113C17.7851 10.6213 17.7305 10.626 17.6758 10.626C17.2675 10.626 16.9126 10.3334 16.835 9.93066V9.92969C16.562 8.53087 15.4858 7.45159 14.0918 7.17969C13.6288 7.08878 13.3237 6.63543 13.4141 6.1709ZM14.3555 2.00781C18.3998 2.4585 21.54 5.60783 21.9941 9.66504C22.0199 9.89361 21.9556 10.1172 21.8135 10.2969C21.6701 10.4768 21.4663 10.5903 21.2383 10.6152C21.2055 10.6192 21.1734 10.6211 21.1406 10.6211C20.7046 10.6209 20.3388 10.292 20.29 9.85645C19.9255 6.60488 17.4065 4.07968 14.165 3.71777C13.695 3.66481 13.3555 3.23919 13.4082 2.76855C13.4331 2.53571 13.5472 2.32749 13.7305 2.18359C13.9086 2.04185 14.1326 1.97597 14.3555 2.00781Z" fill="#E51D1D"/>
</svg>
