<svg width="56" height="56" viewBox="0 0 56 56" fill="none" xmlns="http://www.w3.org/2000/svg">
<rect width="56" height="56" rx="28" fill="#E9F5EE"/>
<path d="M44 29.8228L43.9982 19.4766C43.9979 17.9218 42.7326 16.6568 41.1776 16.6568C39.6224 16.6568 38.3573 17.9219 38.3573 19.4771V24.8234L37.7104 25.4703C36.7379 24.9788 35.3117 25.163 34.4959 26.0192L33.7821 26.7303C32.7943 24.9236 30.9966 23.6628 28.9374 23.3656V21.4062H29.9362C31.1792 21.4062 32.3526 20.9177 33.2417 20.0294C34.1379 19.134 34.63 17.952 34.6273 16.7011L34.6252 15.7656H31.7656C30.7048 15.7656 29.7252 16.119 28.9375 16.7137V16.7031C28.9375 14.1098 26.8277 12 24.2344 12H21.3748L21.3727 12.9354C21.3699 14.1864 21.862 15.3684 22.7583 16.2638C23.6473 17.1521 24.8206 17.6406 26.0638 17.6406H27.0625V23.3655C25.0033 23.6628 23.2057 24.9236 22.2179 26.7303L21.5053 26.0204C20.7077 25.2013 19.3704 24.9525 18.2896 25.4703L17.6427 24.8234V19.4771C17.6427 17.9219 16.3776 16.6568 14.8224 16.6568C13.2674 16.6568 12.0021 17.9218 12.0018 19.4766L12 29.8228L19.4176 37.2404L18.0524 44H37.9476L36.5824 37.2404L44 29.8228ZM31.7656 17.6406H32.5925C32.4528 18.0335 32.2241 18.3956 31.9166 18.7029C31.3817 19.2373 30.6787 19.5312 29.9361 19.5312H29.0971C29.4848 18.4312 30.5347 17.6406 31.7656 17.6406ZM26.0728 15.7656H26.0639C25.3213 15.7656 24.6182 15.4717 24.0834 14.9373C23.7758 14.63 23.5471 14.2679 23.4074 13.875H24.2343C25.4653 13.875 26.5151 14.6656 26.9028 15.7656H26.0728ZM27.0625 42.125H20.3439L21.4546 36.6258L13.8751 29.0462L13.8767 19.4769C13.8769 18.9557 14.3011 18.5318 14.8224 18.5318C15.3437 18.5318 15.7678 18.9558 15.7678 19.4771V25.6001L16.9642 26.7966C16.4736 27.77 16.6582 29.1935 17.5153 30.0104L21.4747 33.9699L22.8006 32.6441L18.8411 28.6846C18.5272 28.3746 18.441 27.7453 18.8411 27.3463C19.1524 27.0321 19.7803 26.9459 20.1808 27.3476L27.0625 34.2026V42.125ZM23.6255 28.1324C24.3324 26.366 26.0618 25.1719 28 25.1719C29.9382 25.1719 31.6676 26.366 32.3745 28.1324L28 32.4899L23.6255 28.1324ZM28.9375 42.125V34.2026L35.8205 27.3462C36.1306 27.0324 36.7598 26.9462 37.1589 27.3462C37.4727 27.6564 37.559 28.2856 37.1589 28.6846L33.1994 32.6441L34.5252 33.9699L38.4847 30.0105C39.3033 29.2133 39.5524 27.8771 39.0358 26.7966L40.2323 25.6001V19.4771C40.2323 18.9558 40.6563 18.5318 41.1776 18.5318C41.6989 18.5318 42.1231 18.9558 42.1232 19.477L42.1249 29.0463L34.5454 36.6258L35.6561 42.125H28.9375Z" fill="#219653"/>
</svg>
