<svg width="20" height="20" viewBox="0 0 20 20" fill="none" xmlns="http://www.w3.org/2000/svg">
<path d="M10.8333 18.2922C10.5592 18.3194 10.2812 18.3333 10 18.3333C9.71875 18.3333 9.44076 18.3194 9.16667 18.2922V11.6666H8.33333C7.8731 11.6666 7.5 11.2936 7.5 10.8333C7.5 10.3731 7.8731 9.99998 8.33333 9.99998H9.16667V8.33331C9.16667 6.9526 10.286 5.83331 11.6667 5.83331H12.5C12.9602 5.83331 13.3333 6.20641 13.3333 6.66665C13.3333 7.12688 12.9602 7.49998 12.5 7.49998H11.6667C11.2064 7.49998 10.8333 7.87308 10.8333 8.33331V9.99998H12.5C12.9602 9.99998 13.3333 10.3731 13.3333 10.8333C13.3333 11.2936 12.9602 11.6666 12.5 11.6666H10.8333V18.2922Z" fill="white"/>
<path fill-rule="evenodd" clip-rule="evenodd" d="M10.0003 16.6667C13.6822 16.6667 16.667 13.6819 16.667 10C16.667 6.31812 13.6822 3.33335 10.0003 3.33335C6.31843 3.33335 3.33366 6.31812 3.33366 10C3.33366 13.6819 6.31843 16.6667 10.0003 16.6667ZM10.0003 18.3334C14.6027 18.3334 18.3337 14.6024 18.3337 10C18.3337 5.39765 14.6027 1.66669 10.0003 1.66669C5.39795 1.66669 1.66699 5.39765 1.66699 10C1.66699 14.6024 5.39795 18.3334 10.0003 18.3334Z" fill="white"/>
</svg>
