<svg width="26" height="25" viewBox="0 0 26 25" fill="none" xmlns="http://www.w3.org/2000/svg">
<path d="M2.13403 9.34031C2.13403 6.6178 2.13403 5.25656 2.66386 4.21671C3.12992 3.30204 3.87357 2.55838 4.78824 2.09233C5.8281 1.5625 7.18933 1.5625 9.91185 1.5625H16.2312C18.9537 1.5625 20.315 1.5625 21.3548 2.09233C22.2695 2.55838 23.0132 3.30204 23.4792 4.21671C24.009 5.25656 24.009 6.6178 24.009 9.34031V15.6597C24.009 18.3822 24.009 19.7434 23.4792 20.7833C23.0132 21.698 22.2695 22.4416 21.3548 22.9077C20.315 23.4375 18.9537 23.4375 16.2312 23.4375H9.91185C7.18933 23.4375 5.8281 23.4375 4.78824 22.9077C3.87357 22.4416 3.12992 21.698 2.66386 20.7833C2.13403 19.7434 2.13403 18.3822 2.13403 15.6597V9.34031Z" fill="white"/>
<path d="M17.7993 6.65869L13.1218 10.309L8.33749 6.65869V6.65968L8.34328 6.66461V11.7761L13.0679 15.5053L17.7993 11.9201V6.65869Z" fill="#EA4335"/>
<path d="M19.0271 5.77061L17.7987 6.65853V11.9199L21.6639 8.95234V7.16464C21.6639 7.16464 21.1948 4.61139 19.0271 5.77061Z" fill="#FBBC05"/>
<path d="M17.7987 11.9197V18.7439H20.7612C20.7612 18.7439 21.6043 18.6571 21.6649 17.6961V8.95215L17.7987 11.9197Z" fill="#34A853"/>
<path d="M8.34349 18.7501V11.7759L8.33749 11.771L8.34349 18.7501Z" fill="#C5221F"/>
<path d="M8.33727 6.65955L7.11564 5.77656C4.94793 4.61734 4.47778 7.16961 4.47778 7.16961V8.95725L8.33727 11.771V6.65955Z" fill="#C5221F"/>
<path d="M8.33749 6.65967V11.7711L8.34349 11.7761V6.66461L8.33749 6.65967Z" fill="#C5221F"/>
<path d="M4.47778 8.9585V17.7025C4.53752 18.6644 5.38148 18.7503 5.38148 18.7503H8.34401L8.33727 11.7712L4.47778 8.9585Z" fill="#4285F4"/>
</svg>
