<svg width="160" height="55" viewBox="0 0 160 55" fill="none" xmlns="http://www.w3.org/2000/svg">
<rect x="0.5" y="0.5" width="159" height="54" rx="5.5" fill="white"/>
<rect x="0.5" y="0.5" width="159" height="54" rx="5.5" stroke="black"/>
<path d="M33.6062 26.8047L21.1152 40.4243C21.1163 40.4267 21.1163 40.4303 21.1175 40.4328C21.5012 41.9116 22.8151 43 24.3755 43C24.9996 43 25.585 42.8264 26.0872 42.5227L26.1271 42.4986L40.1866 34.1641L33.6062 26.8047Z" fill="#EA4335"/>
<path d="M46.2426 24.4855L46.2309 24.477L40.1607 20.8624L33.3222 27.1142L40.1854 34.1627L46.2226 30.5842C47.2809 29.996 48 28.8498 48 27.5288C48 26.215 47.2914 25.0749 46.2426 24.4855Z" fill="#FBBC04"/>
<path d="M21.115 14.5747C21.0399 14.8591 21 15.158 21 15.4666V39.5336C21 39.8422 21.0399 40.1411 21.1161 40.4243L34.0354 27.153L21.115 14.5747Z" fill="#4285F4"/>
<path d="M33.6984 27.4999L40.1627 20.86L26.1196 12.4954C25.6093 12.1808 25.0133 12 24.3762 12C22.8159 12 21.4996 13.0908 21.1159 14.5708C21.1159 14.5721 21.1147 14.5733 21.1147 14.5745L33.6984 27.4999Z" fill="#34A853"/>
<path d="M70.61 18.71C70.61 19.71 70.3133 20.5067 69.72 21.1C69.0533 21.8067 68.1767 22.16 67.09 22.16C66.05 22.16 65.17 21.8 64.45 21.08C63.73 20.36 63.37 19.4733 63.37 18.42C63.37 17.3667 63.73 16.48 64.45 15.76C65.17 15.04 66.05 14.68 67.09 14.68C67.6167 14.68 68.1133 14.7733 68.58 14.96C69.0467 15.1467 69.43 15.41 69.73 15.75L69.07 16.41C68.85 16.1433 68.5633 15.9367 68.21 15.79C67.8633 15.6367 67.49 15.56 67.09 15.56C66.31 15.56 65.65 15.83 65.11 16.37C64.5767 16.9167 64.31 17.6 64.31 18.42C64.31 19.24 64.5767 19.9233 65.11 20.47C65.65 21.01 66.31 21.28 67.09 21.28C67.8033 21.28 68.3967 21.08 68.87 20.68C69.3433 20.28 69.6167 19.73 69.69 19.03H67.09V18.17H70.56C70.5933 18.3567 70.61 18.5367 70.61 18.71ZM75.9078 14.84V15.72H72.6478V17.99H75.5878V18.85H72.6478V21.12H75.9078V22H71.7278V14.84H75.9078ZM79.5877 15.72V22H78.6677V15.72H76.6677V14.84H81.5877V15.72H79.5877ZM85.6654 22H84.7454V14.84H85.6654V22ZM89.5487 15.72V22H88.6287V15.72H86.6287V14.84H91.5487V15.72H89.5487ZM101.521 18.42C101.521 19.48 101.168 20.3667 100.461 21.08C99.7477 21.8 98.8743 22.16 97.841 22.16C96.801 22.16 95.9277 21.8 95.221 21.08C94.5143 20.3667 94.161 19.48 94.161 18.42C94.161 17.36 94.5143 16.4733 95.221 15.76C95.9277 15.04 96.801 14.68 97.841 14.68C98.881 14.68 99.7543 15.0433 100.461 15.77C101.168 16.4833 101.521 17.3667 101.521 18.42ZM95.101 18.42C95.101 19.2467 95.361 19.93 95.881 20.47C96.4077 21.01 97.061 21.28 97.841 21.28C98.621 21.28 99.271 21.01 99.791 20.47C100.318 19.9367 100.581 19.2533 100.581 18.42C100.581 17.5867 100.318 16.9033 99.791 16.37C99.271 15.83 98.621 15.56 97.841 15.56C97.061 15.56 96.4077 15.83 95.881 16.37C95.361 16.91 95.101 17.5933 95.101 18.42ZM103.527 22H102.607V14.84H103.727L107.207 20.41H107.247L107.207 19.03V14.84H108.127V22H107.167L103.527 16.16H103.487L103.527 17.54V22Z" fill="black"/>
<path d="M120.518 38.4097H122.147V27.3981H120.518V38.4097ZM135.189 31.3646L133.322 36.1388H133.266L131.328 31.3646H129.573L132.479 38.0371L130.823 41.749H132.521L137 31.3646H135.189ZM125.952 37.1588C125.418 37.1588 124.674 36.8902 124.674 36.2234C124.674 35.3742 125.6 35.0483 126.401 35.0483C127.116 35.0483 127.454 35.2042 127.889 35.4165C127.762 36.4365 126.892 37.1588 125.952 37.1588ZM126.148 31.1241C124.969 31.1241 123.747 31.6482 123.242 32.8101L124.688 33.4188C124.997 32.8101 125.572 32.611 126.176 32.611C127.019 32.611 127.875 33.121 127.889 34.0283V34.1411C127.594 33.971 126.963 33.7165 126.19 33.7165C124.632 33.7165 123.045 34.5806 123.045 36.1952C123.045 37.6689 124.323 38.6184 125.755 38.6184C126.85 38.6184 127.454 38.1225 127.833 37.5411H127.889V38.3912H129.461V34.1692C129.461 32.2146 128.015 31.1241 126.148 31.1241ZM116.082 32.7053H113.765V28.9308H116.082C117.3 28.9308 117.991 29.9482 117.991 30.8176C117.991 31.6711 117.3 32.7053 116.082 32.7053ZM116.04 27.3981H112.138V38.4097H113.765V34.2379H116.04C117.845 34.2379 119.62 32.9184 119.62 30.8176C119.62 28.7168 117.845 27.3981 116.04 27.3981ZM94.7583 37.1606C93.6332 37.1606 92.6913 36.2102 92.6913 34.9047C92.6913 33.5852 93.6332 32.6198 94.7583 32.6198C95.8695 32.6198 96.7406 33.5852 96.7406 34.9047C96.7406 36.2102 95.8695 37.1606 94.7583 37.1606ZM96.6289 31.9812H96.5722C96.2064 31.5417 95.5038 31.1444 94.6178 31.1444C92.7611 31.1444 91.0599 32.7898 91.0599 34.9047C91.0599 37.0047 92.7611 38.6369 94.6178 38.6369C95.5038 38.6369 96.2064 38.2396 96.5722 37.7851H96.6289V38.3251C96.6289 39.7582 95.8695 40.5246 94.6457 40.5246C93.6471 40.5246 93.0282 39.8005 92.7751 39.1901L91.3549 39.7864C91.7626 40.78 92.8458 42 94.6457 42C96.5582 42 98.1757 40.8646 98.1757 38.0978V31.3708H96.6289V31.9812ZM99.3008 38.4097H100.932V27.3973H99.3008V38.4097ZM103.336 34.777C103.294 33.3298 104.447 32.5916 105.277 32.5916C105.924 32.5916 106.472 32.9176 106.655 33.3862L103.336 34.777ZM108.399 33.528C108.09 32.6912 107.147 31.1444 105.221 31.1444C103.308 31.1444 101.72 32.6621 101.72 34.8907C101.72 36.9906 103.294 38.6369 105.403 38.6369C107.105 38.6369 108.09 37.5869 108.498 36.9765L107.232 36.1247C106.81 36.7493 106.233 37.1606 105.403 37.1606C104.574 37.1606 103.983 36.7774 103.603 36.0261L108.567 33.9534L108.399 33.528ZM68.8501 32.2939V33.883H72.6184C72.5058 34.777 72.2107 35.4297 71.7612 35.8834C71.2121 36.4374 70.3541 37.0479 68.8501 37.0479C66.5291 37.0479 64.7152 35.1602 64.7152 32.8189C64.7152 30.4767 66.5291 28.5899 68.8501 28.5899C70.1018 28.5899 71.0157 29.0867 71.6905 29.7254L72.8017 28.604C71.8589 27.6959 70.6081 27 68.8501 27C65.6719 27 63 29.6117 63 32.8189C63 36.0261 65.6719 38.6369 68.8501 38.6369C70.5653 38.6369 71.8589 38.0688 72.8715 37.0047C73.9129 35.9547 74.2358 34.4793 74.2358 33.2866C74.2358 32.9176 74.2079 32.5775 74.1512 32.2939H68.8501ZM78.5208 37.1606C77.3957 37.1606 76.425 36.2243 76.425 34.8907C76.425 33.5421 77.3957 32.6198 78.5208 32.6198C79.6451 32.6198 80.6158 33.5421 80.6158 34.8907C80.6158 36.2243 79.6451 37.1606 78.5208 37.1606ZM78.5208 31.1444C76.4669 31.1444 74.7936 32.7194 74.7936 34.8907C74.7936 37.0479 76.4669 38.6369 78.5208 38.6369C80.5739 38.6369 82.2472 37.0479 82.2472 34.8907C82.2472 32.7194 80.5739 31.1444 78.5208 31.1444ZM86.65 37.1606C85.5249 37.1606 84.5542 36.2243 84.5542 34.8907C84.5542 33.5421 85.5249 32.6198 86.65 32.6198C87.7752 32.6198 88.745 33.5421 88.745 34.8907C88.745 36.2243 87.7752 37.1606 86.65 37.1606ZM86.65 31.1444C84.597 31.1444 82.9237 32.7194 82.9237 34.8907C82.9237 37.0479 84.597 38.6369 86.65 38.6369C88.7031 38.6369 90.3764 37.0479 90.3764 34.8907C90.3764 32.7194 88.7031 31.1444 86.65 31.1444Z" fill="black"/>
</svg>
