<svg width="72" height="73" viewBox="0 0 72 73" fill="none" xmlns="http://www.w3.org/2000/svg">
<rect x="2" y="2.5" width="68" height="68" rx="34" fill="#E51D1D"/>
<rect x="2" y="2.5" width="68" height="68" rx="34" stroke="#F7B9B9" stroke-width="4"/>
<g clip-path="url(#clip0_1233_2452)" filter="url(#filter0_d_1233_2452)">
<path d="M38.0108 49.2241C37.0115 47.5276 36.4755 45.5935 36.4605 43.6309L36.4393 40.8409C36.4302 39.63 37.1835 38.5559 38.3138 38.1682C38.8703 37.9781 39.3575 37.6266 39.7132 37.1583C40.2335 36.4743 41.0682 36.0621 41.946 36.0556L45.663 36.0282L45.6632 36.026V22.0625C45.6632 21.2009 44.9622 20.5 44.1007 20.5H22.5C21.6384 20.5 20.9375 21.2009 20.9375 22.0625V50.9374C20.9375 51.799 21.6384 52.4999 22.5 52.4999L40.928 52.5C39.7534 51.6081 38.7592 50.4947 38.0108 49.2241ZM33.5163 42.5909H26.2801C25.7624 42.5909 25.3426 42.1712 25.3426 41.6534C25.3426 41.1357 25.7624 40.7159 26.2801 40.7159H33.5163C34.0341 40.7159 34.4538 41.1357 34.4538 41.6534C34.4538 42.1712 34.0342 42.5909 33.5163 42.5909ZM34.4538 45.4037C34.4538 45.9214 34.0341 46.3412 33.5163 46.3412H26.2801C25.7624 46.3412 25.3426 45.9214 25.3426 45.4037C25.3426 44.8859 25.7624 44.4662 26.2801 44.4662H33.5163C34.0342 44.4662 34.4538 44.8859 34.4538 45.4037ZM33.5163 39.4657H26.2801C25.7624 39.4657 25.3426 39.046 25.3426 38.5282C25.3426 38.0105 25.7624 37.5907 26.2801 37.5907H33.5163C34.0341 37.5907 34.4538 38.0105 34.4538 38.5282C34.4538 39.046 34.0342 39.4657 33.5163 39.4657ZM33.5163 35.7409H26.2801C25.7624 35.7409 25.3426 35.3212 25.3426 34.8034C25.3426 34.2857 25.7624 33.8659 26.2801 33.8659H33.5163C34.0341 33.8659 34.4538 34.2857 34.4538 34.8034C34.4538 35.3212 34.0342 35.7409 33.5163 35.7409ZM33.5163 31.9906H26.2801C25.7624 31.9906 25.3426 31.5709 25.3426 31.0531C25.3426 30.5354 25.7624 30.1156 26.2801 30.1156H33.5163C34.0341 30.1156 34.4538 30.5354 34.4538 31.0531C34.4538 31.5709 34.0342 31.9906 33.5163 31.9906ZM40.2613 28.2405H26.2801C25.7624 28.2405 25.3426 27.8207 25.3426 27.303C25.3426 26.7852 25.7624 26.3654 26.2801 26.3654H40.2613C40.7791 26.3654 41.1989 26.7852 41.1989 27.303C41.1989 27.8207 40.7792 28.2405 40.2613 28.2405Z" fill="white"/>
<path d="M46.4273 51.665C49.3115 49.9577 51.0876 46.8379 51.0624 43.5231L51.0412 40.7326C51.0381 40.3292 50.7887 39.9774 50.4205 39.8572C49.5043 39.5582 48.7059 39 48.1119 38.2429C47.9387 38.0221 47.6577 37.8909 47.3592 37.8909H47.3517L41.9599 37.9307C41.6588 37.9329 41.3769 38.0686 41.2057 38.2936C40.6232 39.0593 39.8337 39.6292 38.9224 39.9419C38.5557 40.0676 38.3114 40.4232 38.3145 40.8267L38.3357 43.6168C38.3607 46.9317 40.184 50.025 43.094 51.6896L44.2945 52.3764C44.4384 52.4585 44.6014 52.5011 44.767 52.4998C44.9326 52.4986 45.095 52.4536 45.2376 52.3693L46.4273 51.665ZM41.8538 44.1405C42.2553 43.8136 42.8459 43.8741 43.1727 44.2756L44.1047 45.4204L46.7627 42.5941C47.1175 42.2169 47.7107 42.1988 48.0879 42.5535C48.4651 42.9082 48.4833 43.5015 48.1286 43.8787L44.7367 47.4852C44.6452 47.5825 44.5339 47.6592 44.4103 47.71C44.2868 47.7608 44.1538 47.7846 44.0203 47.7799C43.8867 47.7751 43.7558 47.7418 43.6362 47.6823C43.5165 47.6228 43.411 47.5384 43.3267 47.4348L41.7186 45.4595C41.3917 45.0579 41.4522 44.4674 41.8538 44.1405Z" fill="white"/>
</g>
<defs>
<filter id="filter0_d_1233_2452" x="16" y="20.5" width="40" height="40" filterUnits="userSpaceOnUse" color-interpolation-filters="sRGB">
<feFlood flood-opacity="0" result="BackgroundImageFix"/>
<feColorMatrix in="SourceAlpha" type="matrix" values="0 0 0 0 0 0 0 0 0 0 0 0 0 0 0 0 0 0 127 0" result="hardAlpha"/>
<feOffset dy="4"/>
<feGaussianBlur stdDeviation="2"/>
<feComposite in2="hardAlpha" operator="out"/>
<feColorMatrix type="matrix" values="0 0 0 0 0 0 0 0 0 0 0 0 0 0 0 0 0 0 0.25 0"/>
<feBlend mode="normal" in2="BackgroundImageFix" result="effect1_dropShadow_1233_2452"/>
<feBlend mode="normal" in="SourceGraphic" in2="effect1_dropShadow_1233_2452" result="shape"/>
</filter>
<clipPath id="clip0_1233_2452">
<rect width="32" height="32" fill="white" transform="translate(20 20.5)"/>
</clipPath>
</defs>
</svg>
