<svg width="20" height="20" viewBox="0 0 20 20" fill="none" xmlns="http://www.w3.org/2000/svg">
<path fill-rule="evenodd" clip-rule="evenodd" d="M7.29892 2.5H12.7011C13.3719 2.49999 13.9255 2.49998 14.3765 2.53683C14.8449 2.5751 15.2755 2.65724 15.68 2.86331C16.3072 3.18289 16.8171 3.69283 17.1367 4.32003C17.3428 4.72448 17.4249 5.15506 17.4632 5.62348C17.5 6.07447 17.5 6.6281 17.5 7.2989V12.7011C17.5 13.3719 17.5 13.9255 17.4632 14.3765C17.4249 14.8449 17.3428 15.2755 17.1367 15.68C16.8171 16.3072 16.3072 16.8171 15.68 17.1367C15.2755 17.3428 14.8449 17.4249 14.3765 17.4632C13.9255 17.5 13.3719 17.5 12.7011 17.5H7.2989C6.6281 17.5 6.07447 17.5 5.62348 17.4632C5.15506 17.4249 4.72448 17.3428 4.32003 17.1367C3.69283 16.8171 3.18289 16.3072 2.86331 15.68C2.65724 15.2755 2.5751 14.8449 2.53683 14.3765C2.49998 13.9255 2.49999 13.3719 2.5 12.7011V7.29892C2.49999 6.62811 2.49998 6.07448 2.53683 5.62348C2.5751 5.15506 2.65724 4.72448 2.86331 4.32003C3.18289 3.69283 3.69283 3.18289 4.32003 2.86331C4.72448 2.65724 5.15506 2.5751 5.62348 2.53683C6.07448 2.49998 6.62811 2.49999 7.29892 2.5ZM5.7592 4.19796C5.39385 4.22781 5.20702 4.28192 5.07668 4.34832C4.76308 4.50811 4.50811 4.76308 4.34832 5.07668C4.28192 5.20702 4.22781 5.39385 4.19796 5.7592C4.16732 6.13427 4.16667 6.61952 4.16667 7.33333V12.6667C4.16667 13.3805 4.16732 13.8657 4.19796 14.2408C4.22781 14.6061 4.28192 14.793 4.34832 14.9233C4.50811 15.2369 4.76308 15.4919 5.07668 15.6517C5.20702 15.7181 5.39385 15.7722 5.7592 15.802C6.13427 15.8327 6.61952 15.8333 7.33333 15.8333H12.6667C13.3805 15.8333 13.8657 15.8327 14.2408 15.802C14.6061 15.7722 14.793 15.7181 14.9233 15.6517C15.2369 15.4919 15.4919 15.2369 15.6517 14.9233C15.7181 14.793 15.7722 14.6061 15.802 14.2408C15.8327 13.8657 15.8333 13.3805 15.8333 12.6667V7.33333C15.8333 6.61952 15.8327 6.13427 15.802 5.7592C15.7722 5.39385 15.7181 5.20702 15.6517 5.07668C15.4919 4.76308 15.2369 4.50811 14.9233 4.34832C14.793 4.28192 14.6061 4.22781 14.2408 4.19796C13.8657 4.16732 13.3805 4.16667 12.6667 4.16667H7.33333C6.61952 4.16667 6.13427 4.16732 5.7592 4.19796Z" fill="white"/>
<path fill-rule="evenodd" clip-rule="evenodd" d="M6.66634 7.49998C7.12658 7.49998 7.49967 7.12688 7.49967 6.66665C7.49967 6.20641 7.12658 5.83331 6.66634 5.83331C6.2061 5.83331 5.83301 6.20641 5.83301 6.66665C5.83301 7.12688 6.2061 7.49998 6.66634 7.49998ZM6.66634 9.16665C6.2061 9.16665 5.83301 9.53974 5.83301 9.99998V13.3333C5.83301 13.7936 6.2061 14.1666 6.66634 14.1666C7.12658 14.1666 7.49967 13.7936 7.49967 13.3333V9.99998C7.49967 9.53974 7.12658 9.16665 6.66634 9.16665ZM11.6663 10.8333C11.2061 10.8333 10.833 11.2064 10.833 11.6666V13.3333C10.833 13.7936 10.4599 14.1666 9.99967 14.1666C9.53944 14.1666 9.16634 13.7936 9.16634 13.3333V11.6666V9.99998C9.16634 9.53974 9.53944 9.16665 9.99967 9.16665C10.2296 9.16665 10.4377 9.25974 10.5885 9.41029C10.9149 9.25411 11.2804 9.16665 11.6663 9.16665C13.0471 9.16665 14.1663 10.2859 14.1663 11.6666V13.3333C14.1663 13.7936 13.7932 14.1666 13.333 14.1666C12.8728 14.1666 12.4997 13.7936 12.4997 13.3333V11.6666C12.4997 11.2064 12.1266 10.8333 11.6663 10.8333Z" fill="white"/>
</svg>
