<svg width="22" height="19" viewBox="0 0 22 19" fill="none" xmlns="http://www.w3.org/2000/svg">
<path d="M19.5 5.5H10.5C9.83725 5.50079 9.20183 5.76444 8.73316 6.23311C8.26449 6.70177 8.00084 7.3372 8.00005 8V14C8.00084 14.6628 8.26449 15.2982 8.73316 15.7669C9.20183 16.2356 9.83725 16.4992 10.5 16.5H15.543L17.7195 18.677C17.8244 18.782 17.9581 18.8534 18.1036 18.8824C18.2492 18.9114 18.4 18.8965 18.5371 18.8397C18.6742 18.7829 18.7914 18.6868 18.8738 18.5634C18.9562 18.44 19.0001 18.2949 19 18.1465V16.5H19.5C20.1628 16.4992 20.7983 16.2356 21.2669 15.7669C21.7356 15.2982 21.9993 14.6628 22 14V8C21.9993 7.3372 21.7356 6.70177 21.2669 6.23311C20.7983 5.76444 20.1628 5.50079 19.5 5.5ZM17.5 10.25H17.2205C17.105 11.2824 16.6347 12.2427 15.89 12.967C16.3197 13.1519 16.7823 13.2482 17.25 13.25C17.3846 13.2493 17.514 13.3012 17.6108 13.3946C17.7076 13.488 17.764 13.6155 17.768 13.75C17.7701 13.8147 17.7591 13.8792 17.7358 13.9396C17.7124 14 17.6773 14.0552 17.6323 14.1018C17.5873 14.1484 17.5335 14.1855 17.4739 14.211C17.4144 14.2364 17.3503 14.2497 17.2855 14.25C16.4863 14.2478 15.7016 14.0357 15.01 13.635C14.3248 14.0374 13.5447 14.2497 12.75 14.25C12.6155 14.2507 12.4861 14.1988 12.3893 14.1054C12.2925 14.012 12.2361 13.8844 12.232 13.75C12.23 13.6853 12.241 13.6208 12.2643 13.5604C12.2877 13.4999 12.3228 13.4448 12.3678 13.3982C12.4128 13.3516 12.4666 13.3145 12.5262 13.289C12.5857 13.2636 12.6498 13.2503 12.7145 13.25C13.1977 13.2506 13.6758 13.1529 14.12 12.963C13.7324 12.5943 13.4148 12.1584 13.1825 11.6765C13.152 11.6169 13.1336 11.5518 13.1287 11.485C13.1238 11.4182 13.1323 11.3511 13.1538 11.2877C13.1753 11.2242 13.2093 11.1658 13.2538 11.1157C13.2984 11.0657 13.3525 11.0251 13.413 10.9964C13.4735 10.9677 13.5392 10.9514 13.6061 10.9486C13.673 10.9457 13.7398 10.9563 13.8025 10.9798C13.8653 11.0033 13.9226 11.0391 13.9713 11.0852C14.0199 11.1312 14.0587 11.1866 14.0855 11.248C14.3012 11.701 14.6121 12.1021 14.997 12.424C15.6556 11.8737 16.0876 11.0994 16.21 10.25H12.5C12.3674 10.25 12.2403 10.1973 12.1465 10.1035C12.0527 10.0098 12 9.8826 12 9.75C12 9.61739 12.0527 9.49021 12.1465 9.39644C12.2403 9.30267 12.3674 9.25 12.5 9.25H14.5V8.25C14.5 8.11739 14.5527 7.99021 14.6465 7.89644C14.7403 7.80267 14.8674 7.75 15 7.75C15.1327 7.75 15.2598 7.80267 15.3536 7.89644C15.4474 7.99021 15.5 8.11739 15.5 8.25V9.25H17.5C17.6327 9.25 17.7598 9.30267 17.8536 9.39644C17.9474 9.49021 18 9.61739 18 9.75C18 9.8826 17.9474 10.0098 17.8536 10.1035C17.7598 10.1973 17.6327 10.25 17.5 10.25ZM7.00005 4.2085L6.18555 6H7.63205C7.66805 5.95 7.70655 5.9 7.74555 5.85L7.00005 4.2085Z" fill="#333333"/>
<path d="M11.5 0H2.5C1.8372 0.000793929 1.20178 0.264441 0.73311 0.73311C0.264441 1.20178 0.000793929 1.8372 0 2.5V8.5C0.000793929 9.1628 0.264441 9.79822 0.73311 10.2669C1.20178 10.7356 1.8372 10.9992 2.5 11H3V12.6465C2.99993 12.7949 3.04388 12.94 3.12629 13.0634C3.2087 13.1868 3.32585 13.2829 3.46294 13.3397C3.60003 13.3965 3.75088 13.4114 3.89641 13.3824C4.04194 13.3534 4.17561 13.282 4.2805 13.177L6.457 11H7V8C7.00102 7.66114 7.05155 7.32425 7.15 7H5.731L4.955 8.707C4.89823 8.82469 4.79765 8.91548 4.67479 8.95994C4.55192 9.00441 4.41653 8.99901 4.2976 8.9449C4.17866 8.89079 4.08563 8.79227 4.03842 8.67043C3.99121 8.5486 3.99358 8.41312 4.045 8.293L6.545 2.793C6.58477 2.70571 6.64882 2.6317 6.72949 2.5798C6.81017 2.5279 6.90407 2.5003 7 2.5003C7.09593 2.5003 7.18983 2.5279 7.27051 2.5798C7.35118 2.6317 7.41523 2.70571 7.455 2.793L8.5135 5.1215C9.09664 4.71629 9.7899 4.49939 10.5 4.5H14V2.5C13.9992 1.8372 13.7356 1.20178 13.2669 0.73311C12.7982 0.264441 12.1628 0.000793929 11.5 0Z" fill="#333333"/>
</svg>
