<svg width="55" height="64" viewBox="0 0 55 64" fill="none" xmlns="http://www.w3.org/2000/svg">
<g clip-path="url(#clip0_1709_3447)">
<path d="M53.7617 27.6499C53.7617 27.6499 51.4909 19.9275 48.4334 16.7948C44.9959 13.2732 39.8553 11.1818 33.5346 18.1802C33.5346 18.1802 25.8058 27.9895 25.2247 28.5705C24.6435 29.1515 19.7801 34.4651 16.8522 36.0426C13.9243 37.6201 6.67378 41.0344 0.263672 33.0841C0.263672 33.0841 2.19475 40.0378 7.76895 41.3607C13.3432 42.679 20.5042 40.8869 28.4476 34.1343C33.463 29.871 40.8298 20.151 53.7617 27.6544V27.6499Z" fill="#249336"/>
<path d="M27.5225 20.2136C27.813 19.074 16.8747 32.9233 11.7386 26.3316C10.2992 24.325 5.93641 19.5924 1.56019 25.5584C1.56019 25.5584 -1.53311 30.1838 4.6088 33.6964C10.7507 37.2045 16.7183 33.0529 16.7183 33.0529C16.9462 33.0127 22.5562 30.1883 27.518 20.2136H27.5225Z" fill="#D31E28"/>
<path d="M6.5625 17.7778C9.29048 17.7778 11.5019 15.5669 11.5019 12.8396C11.5019 10.1123 9.29048 7.90137 6.5625 7.90137C3.83451 7.90137 1.62305 10.1123 1.62305 12.8396C1.62305 15.5669 3.83451 17.7778 6.5625 17.7778Z" fill="#D31E28"/>
<path d="M36.9718 12.8349C40.5169 12.8349 43.3908 9.96168 43.3908 6.41743C43.3908 2.87318 40.5169 0 36.9718 0C33.4266 0 30.5527 2.87318 30.5527 6.41743C30.5527 9.96168 33.4266 12.8349 36.9718 12.8349Z" fill="#D31E28"/>
<path d="M44.7411 14.1848C49.0011 15.3289 62.0404 30.4116 50.065 51.5901C44.9602 60.6174 32.5825 64.5724 24.7777 63.9333C13.4773 63.0083 9.3112 58.8923 5.94969 54.62C0 47.0675 0.777796 36.6861 0 32.8338C5.62784 38.2234 3.23188 56.0501 24.4693 57.0958C47.1416 58.2131 56.3857 25.2813 44.0215 24.9819C35.2154 24.7674 32.426 29.7547 28.8544 30.6887C22.3549 32.3869 38.5948 12.5313 44.7411 14.1848Z" fill="#1D8C2F"/>
</g>
<defs>
<clipPath id="clip0_1709_3447">
<rect width="55" height="64" fill="white"/>
</clipPath>
</defs>
</svg>
