<svg width="24" height="25" viewBox="0 0 24 25" fill="none" xmlns="http://www.w3.org/2000/svg">
<g clip-path="url(#clip0_24_1919)">
<path d="M21 3.75146H3C2.73478 3.75146 2.48043 3.85682 2.29289 4.04436C2.10536 4.23189 2 4.48625 2 4.75146V20.7515C2 21.0167 2.10536 21.271 2.29289 21.4586C2.48043 21.6461 2.73478 21.7515 3 21.7515H21C21.2652 21.7515 21.5196 21.6461 21.7071 21.4586C21.8946 21.271 22 21.0167 22 20.7515V4.75146C22 4.48625 21.8946 4.23189 21.7071 4.04436C21.5196 3.85682 21.2652 3.75146 21 3.75146ZM11.94 12.4345L18.352 6.98946L19.647 8.51346L11.927 15.0685L4.346 8.50846L5.654 6.99546L11.939 12.4345H11.94Z" fill="#313131"/>
</g>
<defs>
<clipPath id="clip0_24_1919">
<rect width="24" height="24" fill="white" transform="matrix(-1 0 0 1 24 0.751465)"/>
</clipPath>
</defs>
</svg>
