<svg width="26" height="25" viewBox="0 0 26 25" fill="none" xmlns="http://www.w3.org/2000/svg">
<path fill-rule="evenodd" clip-rule="evenodd" d="M13.0679 0C6.17688 0 0.571533 5.60691 0.571533 12.4999C0.571533 15.2336 1.45312 17.7688 2.95175 19.8265L1.39424 24.4707L6.19885 22.9352C8.17497 24.2432 10.5332 25 13.0752 25C19.9662 25 25.5715 19.3929 25.5715 12.5001C25.5715 5.60713 19.9662 0.000206629 13.0752 0.000206629L13.0679 0ZM9.57822 6.34939C9.33585 5.76889 9.15215 5.74691 8.78496 5.73198C8.65993 5.72472 8.5206 5.71747 8.36614 5.71747C7.88843 5.71747 7.38896 5.85704 7.0877 6.16565C6.72051 6.54041 5.80946 7.41478 5.80946 9.20792C5.80946 11.0011 7.11714 12.7353 7.29338 12.9779C7.47708 13.2202 9.84277 16.9533 13.5159 18.4747C16.3884 19.6652 17.2408 19.5548 17.8945 19.4153C18.8495 19.2095 20.0471 18.5038 20.3483 17.6516C20.6496 16.799 20.6496 16.0714 20.5612 15.9171C20.4731 15.7628 20.2305 15.6749 19.8633 15.4909C19.4962 15.3072 17.7108 14.4253 17.3728 14.3078C17.0421 14.1829 16.7264 14.2271 16.4767 14.5799C16.124 15.0722 15.7788 15.572 15.4996 15.8732C15.2792 16.1084 14.919 16.1378 14.6179 16.0127C14.2138 15.8439 13.0826 15.4468 11.6866 14.2049C10.6066 13.2424 9.87203 12.0447 9.6591 11.6846C9.44595 11.3173 9.63709 11.1039 9.80587 10.9056C9.98957 10.6777 10.1658 10.5162 10.3495 10.303C10.5332 10.09 10.6361 9.97963 10.7536 9.72972C10.8787 9.48727 10.7903 9.23736 10.7022 9.05361C10.6141 8.86986 9.87948 7.07672 9.57822 6.34939Z" fill="#67C15E"/>
</svg>
