<svg width="32" height="32" viewBox="0 0 32 32" fill="none" xmlns="http://www.w3.org/2000/svg">
<path d="M10.4805 3.94672L22.5201 7.94672C30.6131 10.6534 30.6131 15.0667 22.5201 17.7601L18.9469 18.9467L17.7602 22.5201C15.067 30.6134 10.6405 30.6134 7.94727 22.5201L3.93409 10.4934C2.14749 5.09339 5.08071 2.14672 10.4805 3.94672ZM10.0539 11.1201L15.1203 16.2134C15.3203 16.4134 15.5737 16.5067 15.827 16.5067C16.0803 16.5067 16.3336 16.4134 16.5336 16.2134C16.9203 15.8267 16.9203 15.1867 16.5336 14.8001L11.4671 9.70672C11.0805 9.32006 10.4405 9.32006 10.0539 9.70672C9.66721 10.0934 9.66721 10.7334 10.0539 11.1201Z" fill="white"/>
</svg>
