<svg width="24" height="24" viewBox="0 0 24 24" fill="none" xmlns="http://www.w3.org/2000/svg">
<g clip-path="url(#clip0_1510_31)">
<rect width="24" height="24" rx="12" fill="white"/>
<path d="M12 0C5.36344 0 0 5.36203 0 12C0 18.6366 5.36203 24 12 24C18.6366 24 24 18.638 24 12C24 5.36344 18.638 0 12 0ZM9.89062 12C9.89062 12.2648 9.85312 12.5212 9.78422 12.7645L13.5192 14.9433C14.0292 14.4286 14.7356 14.1094 15.5156 14.1094C17.0662 14.1094 18.3281 15.3713 18.3281 16.9219C18.3281 18.4725 17.0662 19.7344 15.5156 19.7344C13.965 19.7344 12.7031 18.4725 12.7031 16.9219C12.7031 16.657 12.7406 16.4006 12.8095 16.1573L9.07453 13.9786C8.56453 14.4933 7.85812 14.8125 7.07812 14.8125C5.5275 14.8125 4.26562 13.5506 4.26562 12C4.26562 10.4494 5.5275 9.1875 7.07812 9.1875C7.85812 9.1875 8.56453 9.50672 9.07453 10.0214L12.8095 7.84266C12.739 7.59394 12.7031 7.33666 12.7031 7.07812C12.7031 5.5275 13.965 4.26562 15.5156 4.26562C17.0662 4.26562 18.3281 5.5275 18.3281 7.07812C18.3281 8.62875 17.0662 9.89062 15.5156 9.89062C14.7356 9.89062 14.0292 9.57141 13.5192 9.05672L9.78422 11.2355C9.85479 11.4842 9.8906 11.7415 9.89062 12Z" fill="#121212"/>
</g>
<defs>
<clipPath id="clip0_1510_31">
<rect width="24" height="24" rx="12" fill="white"/>
</clipPath>
</defs>
</svg>
