<svg width="20" height="20" viewBox="0 0 20 20" fill="none" xmlns="http://www.w3.org/2000/svg">
<path fill-rule="evenodd" clip-rule="evenodd" d="M15.8482 4.14163C14.2874 2.58036 12.2117 1.72015 10.0003 1.71924C5.44369 1.71924 1.73523 5.42445 1.7334 9.97845C1.73278 11.4342 2.11338 12.8553 2.83685 14.1079L1.66406 18.388L6.04649 17.2394C7.25403 17.8976 8.61351 18.2444 9.99697 18.2448H10.0005C14.5566 18.2448 18.2655 14.5393 18.2672 9.98507C18.2681 7.77796 17.409 5.70282 15.8482 4.14163ZM10.0003 16.8498H9.99746C8.76459 16.8493 7.55542 16.5183 6.5003 15.8929L6.24953 15.744L3.64892 16.4257L4.34303 13.8923L4.17959 13.6326C3.49179 12.5395 3.12857 11.2761 3.12919 9.97895C3.13063 6.19377 6.21306 3.11426 10.0031 3.11426C11.8384 3.11486 13.5636 3.82987 14.8608 5.12754C16.1581 6.42521 16.8721 8.15009 16.8715 9.98455C16.8699 13.77 13.7876 16.8498 10.0003 16.8498ZM13.7693 11.7081C13.5628 11.6047 12.5472 11.1056 12.3578 11.0366C12.1686 10.9677 12.0307 10.9334 11.8931 11.14C11.7554 11.3465 11.3596 11.8114 11.239 11.9491C11.1185 12.0869 10.9981 12.1041 10.7915 12.0008C10.5849 11.8975 9.91937 11.6795 9.13034 10.9764C8.51633 10.4291 8.10181 9.75329 7.98125 9.54678C7.8609 9.34004 7.98021 9.23911 8.07186 9.12556C8.29546 8.84812 8.51938 8.55725 8.58822 8.4196C8.65714 8.28183 8.62263 8.16129 8.57091 8.05802C8.51938 7.95475 8.10629 6.93889 7.9342 6.52553C7.7664 6.12327 7.59624 6.17757 7.46937 6.1713C7.34902 6.16528 7.21125 6.16405 7.07349 6.16405C6.9358 6.16405 6.71199 6.21562 6.52261 6.42237C6.33331 6.62901 5.79977 7.12824 5.79977 8.1441C5.79977 9.15996 6.53992 10.1413 6.64317 10.2791C6.7464 10.4168 8.09978 12.5014 10.1718 13.3953C10.6646 13.6082 11.0493 13.735 11.3494 13.8301C11.8443 13.9872 12.2944 13.9651 12.6504 13.9119C13.0473 13.8526 13.8724 13.4126 14.0447 12.9305C14.2168 12.4485 14.2168 12.0353 14.1651 11.9491C14.1135 11.863 13.9758 11.8114 13.7693 11.7081Z" fill="white"/>
</svg>
