<svg width="24" height="25" viewBox="0 0 24 25" fill="none" xmlns="http://www.w3.org/2000/svg">
<path d="M7.36003 22.7515H16.64C17.6509 22.7147 18.5925 22.2285 19.2077 21.4256C19.8229 20.6227 20.0475 19.5871 19.82 18.6015L19.58 17.4615C19.304 15.9183 17.9774 14.7842 16.41 14.7515H7.59003C6.02265 14.7842 4.69606 15.9183 4.42003 17.4615L4.18003 18.6015C3.95259 19.5871 4.17715 20.6227 4.79237 21.4256C5.40759 22.2285 6.3492 22.7147 7.36003 22.7515Z" fill="#313131"/>
<path d="M11.5 12.7515H12.5C14.7092 12.7515 16.5 10.9606 16.5 8.75148V6.11148C16.5027 5.21954 16.1496 4.36336 15.5189 3.73266C14.8881 3.10196 14.032 2.74881 13.14 2.75148H10.86C9.96808 2.74881 9.11191 3.10196 8.4812 3.73266C7.8505 4.36336 7.49736 5.21954 7.50003 6.11148V8.75148C7.50003 9.81235 7.92146 10.8298 8.6716 11.5799C9.42175 12.3301 10.4392 12.7515 11.5 12.7515Z" fill="#313131"/>
</svg>
