<svg width="36" height="40" viewBox="0 0 36 40" fill="none" xmlns="http://www.w3.org/2000/svg">
<path d="M33.5275 18.278C33.8349 18.4484 34.0911 18.6979 34.2695 19.0007C34.4479 19.3035 34.5419 19.6486 34.5419 20C34.5419 20.3515 34.4479 20.6965 34.2695 20.9993C34.0911 21.3021 33.8349 21.5517 33.5275 21.722L4.11175 38.0653C3.812 38.2316 3.474 38.3169 3.1312 38.3125C2.78839 38.3082 2.45267 38.2143 2.15726 38.0404C1.86184 37.8664 1.61697 37.6183 1.44688 37.3207C1.27679 37.023 1.18738 36.6861 1.1875 36.3433V3.65676C1.1875 2.15526 2.79925 1.21026 4.11175 1.94001L33.5275 18.278Z" fill="white" stroke="white" stroke-width="1.5" stroke-linecap="round" stroke-linejoin="round"/>
</svg>
