<svg width="18" height="18" viewBox="0 0 18 18" fill="none" xmlns="http://www.w3.org/2000/svg">
<path fill-rule="evenodd" clip-rule="evenodd" d="M14.8482 3.14163C13.2874 1.58036 11.2117 0.72015 9.00033 0.719238C4.44369 0.719238 0.735226 4.42445 0.733401 8.97845C0.732775 10.4342 1.11338 11.8553 1.83685 13.1079L0.664062 17.388L5.04649 16.2394C6.25403 16.8976 7.61351 17.2444 8.99697 17.2448H9.00046C13.5566 17.2448 17.2655 13.5393 17.2672 8.98507C17.2681 6.77796 16.409 4.70282 14.8482 3.14163ZM9.00033 15.8498H8.99746C7.76459 15.8493 6.55542 15.5183 5.5003 14.8929L5.24953 14.744L2.64892 15.4257L3.34303 12.8923L3.17959 12.6326C2.49179 11.5395 2.12857 10.2761 2.12919 8.97895C2.13063 5.19377 5.21306 2.11426 9.0031 2.11426C10.8384 2.11486 12.5636 2.82987 13.8608 4.12754C15.1581 5.42521 15.8721 7.15009 15.8715 8.98455C15.8699 12.77 12.7876 15.8498 9.00033 15.8498ZM12.7693 10.7081C12.5628 10.6047 11.5472 10.1056 11.3578 10.0366C11.1686 9.96775 11.0307 9.93344 10.8931 10.14C10.7554 10.3465 10.3596 10.8114 10.239 10.9491C10.1185 11.0869 9.9981 11.1041 9.7915 11.0008C9.58491 10.8975 8.91937 10.6795 8.13034 9.97639C7.51633 9.42913 7.10181 8.75329 6.98125 8.54678C6.8609 8.34004 6.98021 8.23911 7.07186 8.12556C7.29546 7.84812 7.51938 7.55725 7.58822 7.4196C7.65714 7.28183 7.62263 7.16129 7.57091 7.05802C7.51938 6.95475 7.10629 5.93889 6.9342 5.52553C6.7664 5.12327 6.59624 5.17757 6.46937 5.1713C6.34902 5.16528 6.21125 5.16405 6.07349 5.16405C5.9358 5.16405 5.71199 5.21562 5.52261 5.42237C5.33331 5.62901 4.79977 6.12824 4.79977 7.1441C4.79977 8.15996 5.53992 9.14131 5.64317 9.27906C5.7464 9.41684 7.09978 11.5014 9.1718 12.3953C9.66463 12.6082 10.0493 12.735 10.3494 12.8301C10.8443 12.9872 11.2944 12.9651 11.6504 12.9119C12.0473 12.8526 12.8724 12.4126 13.0447 11.9305C13.2168 11.4485 13.2168 11.0353 13.1651 10.9491C13.1135 10.863 12.9758 10.8114 12.7693 10.7081Z" fill="white"/>
</svg>
